M48
; DRILL file {KiCad 5.1.4} date Mon 18 Nov 2019 01:50:00 AM EST
; FORMAT={-:-/ absolute / metric / decimal}
; #@! TF.CreationDate,2019-11-18T01:50:00-05:00
; #@! TF.GenerationSoftware,Kicad,Pcbnew,5.1.4
; #@! TF.FileFunction,Plated,1,4,PTH
FMAT,2
METRIC
T1C0.254
T2C0.400
T3C0.600
T4C0.700
T5C0.900
T6C1.000
T7C1.118
T8C1.321
%
G90
G05
T1
X132.015Y-85.325
X132.625Y-84.69
X132.625Y-85.96
X133.125Y-84.69
X133.125Y-85.96
X133.735Y-85.325
T2
X118.475Y-88.125
X119.675Y-82.525
X120.175Y-85.912
X124.575Y-88.125
X124.675Y-85.925
X125.775Y-81.525
X125.775Y-83.725
X125.775Y-85.925
X125.775Y-88.125
X130.355Y-81.495
X130.355Y-83.695
X130.355Y-84.795
X130.355Y-85.895
X130.355Y-88.095
X130.355Y-89.145
X130.355Y-90.145
X134.275Y-85.325
X171.4Y-115.425
X172.5Y-116.05
X173.5Y-116.775
X173.8Y-118.225
X174.1Y-113.925
X175.8Y-108.225
X180.9Y-120.025
X181.1Y-119.025
X182.2Y-119.025
X183.022Y-116.15
X183.022Y-117.2
X183.3Y-118.925
X183.651Y-117.989
X185.6Y-124.925
X187.1Y-124.9
X187.4Y-120.025
X188.186Y-114.148
X188.928Y-114.89
X189.0Y-121.925
X193.0Y-120.625
X193.7Y-119.825
X195.9Y-124.925
T4
X142.85Y-117.375
X143.35Y-118.875
X144.85Y-117.375
X145.85Y-118.875
X146.85Y-117.375
X147.85Y-118.875
X148.85Y-117.375
X150.35Y-118.875
X150.85Y-117.375
T7
X125.719Y-45.215
X177.281Y-45.215
T8
X167.375Y-127.019
X167.975Y-122.119
X182.625Y-122.119
X183.225Y-127.019
T3
G00X140.45Y-117.575
M15
G01X140.45Y-118.675
M16
G05
G00X140.45Y-126.225
M15
G01X140.45Y-127.025
M16
G05
G00X153.25Y-117.575
M15
G01X153.25Y-118.675
M16
G05
G00X153.25Y-126.225
M15
G01X153.25Y-127.025
M16
G05
T5
G00X124.45Y-125.25
M15
G01X124.45Y-126.85
M16
G05
G00X135.85Y-125.25
M15
G01X135.85Y-126.85
M16
G05
T6
G00X115.13Y-118.85
M15
G01X117.13Y-118.85
M16
G05
G00X115.13Y-124.85
M15
G01X117.13Y-124.85
M16
G05
G00X120.83Y-122.85
M15
G01X120.83Y-120.85
M16
G05
T0
M30
