G04 #@! TF.GenerationSoftware,KiCad,Pcbnew,5.1.4*
G04 #@! TF.CreationDate,2019-11-18T01:49:56-05:00*
G04 #@! TF.ProjectId,YellowCake,59656c6c-6f77-4436-916b-652e6b696361,rev?*
G04 #@! TF.SameCoordinates,Original*
G04 #@! TF.FileFunction,Copper,L3,Inr*
G04 #@! TF.FilePolarity,Positive*
%FSLAX46Y46*%
G04 Gerber Fmt 4.6, Leading zero omitted, Abs format (unit mm)*
G04 Created by KiCad (PCBNEW 5.1.4) date 2019-11-18 01:49:56*
%MOMM*%
%LPD*%
G04 APERTURE LIST*
%ADD10R,0.249936X0.579882*%
%ADD11R,0.630000X0.350000*%
%ADD12C,1.828800*%
%ADD13O,1.900000X3.500000*%
%ADD14C,1.200000*%
%ADD15O,1.200000X2.400000*%
%ADD16O,1.200000X2.100000*%
%ADD17C,1.625600*%
%ADD18R,3.500000X3.500000*%
%ADD19C,0.100000*%
%ADD20C,3.000000*%
%ADD21C,3.500000*%
%ADD22C,0.800000*%
G04 APERTURE END LIST*
D10*
X132625000Y-84690000D03*
X133125000Y-84690000D03*
D11*
X133735001Y-85325000D03*
D10*
X133125000Y-85960000D03*
X132625000Y-85960000D03*
D11*
X132014999Y-85325000D03*
D12*
X183225053Y-127018790D03*
X167374945Y-127018790D03*
X182624978Y-122118800D03*
X167975020Y-122118800D03*
D13*
X135850000Y-126050000D03*
X124450000Y-126050000D03*
D14*
X143350000Y-118875000D03*
X145850000Y-118875000D03*
X147850000Y-118875000D03*
X150350000Y-118875000D03*
X150850000Y-117375000D03*
X148850000Y-117375000D03*
X146850000Y-117375000D03*
X144850000Y-117375000D03*
X142850000Y-117375000D03*
D15*
X153250000Y-118125000D03*
X140450000Y-118125000D03*
D16*
X153250000Y-126625000D03*
X140450000Y-126625000D03*
D17*
X125719000Y-45215000D03*
X177281000Y-45215000D03*
D18*
X116130001Y-118849999D03*
D19*
G36*
X117203514Y-123353610D02*
G01*
X117276319Y-123364410D01*
X117347715Y-123382294D01*
X117417014Y-123407089D01*
X117483549Y-123438558D01*
X117546679Y-123476397D01*
X117605796Y-123520241D01*
X117660331Y-123569669D01*
X117709759Y-123624204D01*
X117753603Y-123683321D01*
X117791442Y-123746451D01*
X117822911Y-123812986D01*
X117847706Y-123882285D01*
X117865590Y-123953681D01*
X117876390Y-124026486D01*
X117880001Y-124099999D01*
X117880001Y-125599999D01*
X117876390Y-125673512D01*
X117865590Y-125746317D01*
X117847706Y-125817713D01*
X117822911Y-125887012D01*
X117791442Y-125953547D01*
X117753603Y-126016677D01*
X117709759Y-126075794D01*
X117660331Y-126130329D01*
X117605796Y-126179757D01*
X117546679Y-126223601D01*
X117483549Y-126261440D01*
X117417014Y-126292909D01*
X117347715Y-126317704D01*
X117276319Y-126335588D01*
X117203514Y-126346388D01*
X117130001Y-126349999D01*
X115130001Y-126349999D01*
X115056488Y-126346388D01*
X114983683Y-126335588D01*
X114912287Y-126317704D01*
X114842988Y-126292909D01*
X114776453Y-126261440D01*
X114713323Y-126223601D01*
X114654206Y-126179757D01*
X114599671Y-126130329D01*
X114550243Y-126075794D01*
X114506399Y-126016677D01*
X114468560Y-125953547D01*
X114437091Y-125887012D01*
X114412296Y-125817713D01*
X114394412Y-125746317D01*
X114383612Y-125673512D01*
X114380001Y-125599999D01*
X114380001Y-124099999D01*
X114383612Y-124026486D01*
X114394412Y-123953681D01*
X114412296Y-123882285D01*
X114437091Y-123812986D01*
X114468560Y-123746451D01*
X114506399Y-123683321D01*
X114550243Y-123624204D01*
X114599671Y-123569669D01*
X114654206Y-123520241D01*
X114713323Y-123476397D01*
X114776453Y-123438558D01*
X114842988Y-123407089D01*
X114912287Y-123382294D01*
X114983683Y-123364410D01*
X115056488Y-123353610D01*
X115130001Y-123349999D01*
X117130001Y-123349999D01*
X117203514Y-123353610D01*
X117203514Y-123353610D01*
G37*
D20*
X116130001Y-124849999D03*
D19*
G36*
X121790766Y-120104212D02*
G01*
X121875705Y-120116812D01*
X121959000Y-120137676D01*
X122039849Y-120166604D01*
X122117473Y-120203318D01*
X122191125Y-120247463D01*
X122260095Y-120298615D01*
X122323719Y-120356281D01*
X122381385Y-120419905D01*
X122432537Y-120488875D01*
X122476682Y-120562527D01*
X122513396Y-120640151D01*
X122542324Y-120721000D01*
X122563188Y-120804295D01*
X122575788Y-120889234D01*
X122580001Y-120974999D01*
X122580001Y-122724999D01*
X122575788Y-122810764D01*
X122563188Y-122895703D01*
X122542324Y-122978998D01*
X122513396Y-123059847D01*
X122476682Y-123137471D01*
X122432537Y-123211123D01*
X122381385Y-123280093D01*
X122323719Y-123343717D01*
X122260095Y-123401383D01*
X122191125Y-123452535D01*
X122117473Y-123496680D01*
X122039849Y-123533394D01*
X121959000Y-123562322D01*
X121875705Y-123583186D01*
X121790766Y-123595786D01*
X121705001Y-123599999D01*
X119955001Y-123599999D01*
X119869236Y-123595786D01*
X119784297Y-123583186D01*
X119701002Y-123562322D01*
X119620153Y-123533394D01*
X119542529Y-123496680D01*
X119468877Y-123452535D01*
X119399907Y-123401383D01*
X119336283Y-123343717D01*
X119278617Y-123280093D01*
X119227465Y-123211123D01*
X119183320Y-123137471D01*
X119146606Y-123059847D01*
X119117678Y-122978998D01*
X119096814Y-122895703D01*
X119084214Y-122810764D01*
X119080001Y-122724999D01*
X119080001Y-120974999D01*
X119084214Y-120889234D01*
X119096814Y-120804295D01*
X119117678Y-120721000D01*
X119146606Y-120640151D01*
X119183320Y-120562527D01*
X119227465Y-120488875D01*
X119278617Y-120419905D01*
X119336283Y-120356281D01*
X119399907Y-120298615D01*
X119468877Y-120247463D01*
X119542529Y-120203318D01*
X119620153Y-120166604D01*
X119701002Y-120137676D01*
X119784297Y-120116812D01*
X119869236Y-120104212D01*
X119955001Y-120099999D01*
X121705001Y-120099999D01*
X121790766Y-120104212D01*
X121790766Y-120104212D01*
G37*
D21*
X120830001Y-121849999D03*
D22*
X130354999Y-84794999D03*
X134275000Y-85325000D03*
X195900000Y-124925000D03*
X130354999Y-90144999D03*
X188927970Y-114890104D03*
X183022199Y-117200006D03*
X188185506Y-114147640D03*
X183022199Y-116150006D03*
X180900000Y-120025000D03*
X173800000Y-118225000D03*
X181100000Y-119025000D03*
X173500000Y-116775000D03*
X182200000Y-119025000D03*
X172500000Y-116050000D03*
X175800000Y-108225000D03*
X174100000Y-113925000D03*
X183300000Y-118925000D03*
X171400000Y-115425000D03*
X130354999Y-89144996D03*
X130354999Y-81494999D03*
X119675000Y-82525000D03*
X130354999Y-83694999D03*
X120175000Y-85912500D03*
X124675000Y-85925000D03*
X130354999Y-85894999D03*
X118475000Y-88125000D03*
X124575000Y-88125000D03*
X130354999Y-88094999D03*
X183651124Y-117988669D03*
X187400000Y-120025000D03*
X185600000Y-124925000D03*
X189000000Y-121925000D03*
X193000000Y-120625000D03*
X187100000Y-124900000D03*
X193700000Y-119825000D03*
X125775000Y-81525000D03*
X125775000Y-83725000D03*
X125775000Y-85925000D03*
X125775000Y-88125000D03*
M02*
