G04 #@! TF.GenerationSoftware,KiCad,Pcbnew,5.1.4*
G04 #@! TF.CreationDate,2019-11-18T01:49:56-05:00*
G04 #@! TF.ProjectId,YellowCake,59656c6c-6f77-4436-916b-652e6b696361,rev?*
G04 #@! TF.SameCoordinates,Original*
G04 #@! TF.FileFunction,Legend,Bot*
G04 #@! TF.FilePolarity,Positive*
%FSLAX46Y46*%
G04 Gerber Fmt 4.6, Leading zero omitted, Abs format (unit mm)*
G04 Created by KiCad (PCBNEW 5.1.4) date 2019-11-18 01:49:56*
%MOMM*%
%LPD*%
G04 APERTURE LIST*
%ADD10C,0.152400*%
%ADD11C,0.120000*%
%ADD12C,0.100000*%
%ADD13C,0.150000*%
G04 APERTURE END LIST*
D10*
X134154000Y-84296000D02*
X134154000Y-84831257D01*
X134154000Y-85818743D02*
X134154000Y-86354000D01*
X131596000Y-86354000D02*
X131596000Y-85818743D01*
X131596000Y-84831257D02*
X131596000Y-84296000D01*
X131471000Y-85134500D02*
X131217000Y-85134500D01*
X131217000Y-85134500D02*
X131217000Y-85515500D01*
X131217000Y-85515500D02*
X131471000Y-85515500D01*
X131471000Y-85515500D02*
X131471000Y-85134500D01*
D11*
X114244999Y-81264999D02*
X114594999Y-81774999D01*
X114444999Y-78754999D02*
X114444999Y-78494999D01*
X114244999Y-78954999D02*
X114444999Y-78754999D01*
X114244999Y-88354999D02*
X114444999Y-88144999D01*
X114594999Y-88144999D02*
X114444999Y-88144999D01*
X114594999Y-88144999D02*
X114594999Y-81774999D01*
X119204999Y-91244999D02*
X117404999Y-91244999D01*
X125204999Y-91244999D02*
X120504999Y-91244999D01*
X114244999Y-90214999D02*
X114444999Y-90414999D01*
X114244999Y-90214999D02*
X114244999Y-88354999D01*
X114244999Y-78954999D02*
X114244999Y-81264999D01*
X130514999Y-91244999D02*
X126904999Y-91244999D01*
X130514999Y-90794999D02*
X130514999Y-91244999D01*
X130514999Y-77274999D02*
X116504999Y-77274999D01*
X130514999Y-79194999D02*
X130514999Y-77274999D01*
X173424721Y-112535000D02*
X173750279Y-112535000D01*
X173424721Y-111515000D02*
X173750279Y-111515000D01*
X172037222Y-73474999D02*
X172362780Y-73474999D01*
X172037222Y-72454999D02*
X172362780Y-72454999D01*
X172557222Y-78494999D02*
X172882780Y-78494999D01*
X172557222Y-77474999D02*
X172882780Y-77474999D01*
X168987222Y-83514999D02*
X169312780Y-83514999D01*
X168987222Y-82494999D02*
X169312780Y-82494999D01*
X164537222Y-78964999D02*
X164862780Y-78964999D01*
X164537222Y-77944999D02*
X164862780Y-77944999D01*
X147987222Y-59544999D02*
X148312780Y-59544999D01*
X147987222Y-60564999D02*
X148312780Y-60564999D01*
X168547222Y-74964999D02*
X168872780Y-74964999D01*
X168547222Y-75984999D02*
X168872780Y-75984999D01*
X168987222Y-79984999D02*
X169312780Y-79984999D01*
X168987222Y-81004999D02*
X169312780Y-81004999D01*
X159577222Y-68054999D02*
X159902780Y-68054999D01*
X159577222Y-67034999D02*
X159902780Y-67034999D01*
X164017222Y-73944999D02*
X164342780Y-73944999D01*
X164017222Y-72924999D02*
X164342780Y-72924999D01*
X168547222Y-77474999D02*
X168872780Y-77474999D01*
X168547222Y-78494999D02*
X168872780Y-78494999D01*
X149307222Y-57034999D02*
X149632780Y-57034999D01*
X149307222Y-58054999D02*
X149632780Y-58054999D01*
X151997222Y-61264999D02*
X152322780Y-61264999D01*
X151997222Y-60244999D02*
X152322780Y-60244999D01*
X172997222Y-82494999D02*
X173322780Y-82494999D01*
X172997222Y-83514999D02*
X173322780Y-83514999D01*
X151997222Y-62754999D02*
X152322780Y-62754999D01*
X151997222Y-63774999D02*
X152322780Y-63774999D01*
X145297222Y-57034999D02*
X145622780Y-57034999D01*
X145297222Y-58054999D02*
X145622780Y-58054999D01*
X163777222Y-70564999D02*
X164102780Y-70564999D01*
X163777222Y-69544999D02*
X164102780Y-69544999D01*
X133267222Y-55784999D02*
X133592780Y-55784999D01*
X133267222Y-56804999D02*
X133592780Y-56804999D01*
X164537222Y-75434999D02*
X164862780Y-75434999D01*
X164537222Y-76454999D02*
X164862780Y-76454999D01*
X155567222Y-67044999D02*
X155892780Y-67044999D01*
X155567222Y-66024999D02*
X155892780Y-66024999D01*
X159767222Y-70564999D02*
X160092780Y-70564999D01*
X159767222Y-69544999D02*
X160092780Y-69544999D01*
X155567222Y-68534999D02*
X155892780Y-68534999D01*
X155567222Y-69554999D02*
X155892780Y-69554999D01*
X141287222Y-57114999D02*
X141612780Y-57114999D01*
X141287222Y-56094999D02*
X141612780Y-56094999D01*
X147987222Y-63074999D02*
X148312780Y-63074999D01*
X147987222Y-62054999D02*
X148312780Y-62054999D01*
X175807222Y-70964999D02*
X176132780Y-70964999D01*
X175807222Y-69944999D02*
X176132780Y-69944999D01*
X175405001Y-92315001D02*
X175405001Y-100375001D01*
X170885001Y-92315001D02*
X175405001Y-92315001D01*
X170885001Y-100375001D02*
X170885001Y-92315001D01*
X165035001Y-110265001D02*
X165035001Y-102205001D01*
X165035001Y-102205001D02*
X169555001Y-102205001D01*
X169555001Y-102205001D02*
X169555001Y-110265001D01*
X165035001Y-100375001D02*
X165035001Y-92315001D01*
X165035001Y-92315001D02*
X169555001Y-92315001D01*
X169555001Y-92315001D02*
X169555001Y-100375001D01*
X148010001Y-64514999D02*
X148010001Y-65444999D01*
X148010001Y-67674999D02*
X148010001Y-66744999D01*
X148010001Y-67674999D02*
X145850001Y-67674999D01*
X148010001Y-64514999D02*
X146550001Y-64514999D01*
X139935001Y-65529999D02*
X143820001Y-65529999D01*
X139935001Y-67799999D02*
X139935001Y-65529999D01*
X143820001Y-67799999D02*
X139935001Y-67799999D01*
X152270001Y-75749999D02*
X148385001Y-75749999D01*
X148385001Y-75749999D02*
X148385001Y-73479999D01*
X148385001Y-73479999D02*
X152270001Y-73479999D01*
D12*
X127525001Y-56034999D02*
G75*
G03X127525001Y-56034999I-50000J0D01*
G01*
D11*
X161230001Y-80404999D02*
X161230001Y-81334999D01*
X161230001Y-83564999D02*
X161230001Y-82634999D01*
X161230001Y-83564999D02*
X159070001Y-83564999D01*
X161230001Y-80404999D02*
X159770001Y-80404999D01*
D10*
X182932699Y-130895262D02*
X167667299Y-130895262D01*
X167667299Y-130895262D02*
X167667299Y-128231179D01*
X169083900Y-121548062D02*
X170302158Y-121548062D01*
X182932699Y-123327380D02*
X182932699Y-125806401D01*
X180297840Y-121548062D02*
X181516097Y-121548062D01*
X182932699Y-128231179D02*
X182932699Y-130895262D01*
X167667299Y-125806401D02*
X167667299Y-123327380D01*
X183305914Y-120648180D02*
G75*
G02X183567699Y-121306000I261785J-276820D01*
G01*
X114873200Y-45189600D02*
X114873200Y-71453200D01*
X114873200Y-71453200D02*
X120842200Y-71453200D01*
X120842200Y-71453200D02*
X120842200Y-54740110D01*
X119437453Y-45189600D02*
X114873200Y-45189600D01*
X182157800Y-54740301D02*
X182157800Y-71453200D01*
X182157800Y-71453200D02*
X188126800Y-71453200D01*
X188126800Y-71453200D02*
X188126800Y-45189600D01*
X188126800Y-45189600D02*
X183557340Y-45189600D01*
X143434657Y-45189600D02*
X141560134Y-45189600D01*
X141560134Y-52835000D02*
X143434657Y-52835000D01*
D11*
X144670001Y-63044999D02*
G75*
G03X145370001Y-62344999I0J700000D01*
G01*
X145370001Y-61744999D02*
G75*
G03X144670001Y-61044999I-700000J0D01*
G01*
X143270001Y-61044999D02*
G75*
G03X142570001Y-61744999I0J-700000D01*
G01*
X142570001Y-62344999D02*
G75*
G03X143270001Y-63044999I700000J0D01*
G01*
X142570001Y-61744999D02*
X142570001Y-62344999D01*
X144670001Y-61044999D02*
X143270001Y-61044999D01*
X145370001Y-62344999D02*
X145370001Y-61744999D01*
X143270001Y-63044999D02*
X144670001Y-63044999D01*
X170790000Y-112674721D02*
X170790000Y-113000279D01*
X171810000Y-112674721D02*
X171810000Y-113000279D01*
X137277222Y-56804999D02*
X137602780Y-56804999D01*
X137277222Y-55784999D02*
X137602780Y-55784999D01*
X156460001Y-70994999D02*
X155000001Y-70994999D01*
X156460001Y-74154999D02*
X154300001Y-74154999D01*
X156460001Y-74154999D02*
X156460001Y-73224999D01*
X156460001Y-70994999D02*
X156460001Y-71924999D01*
X165680001Y-80404999D02*
X165680001Y-81334999D01*
X165680001Y-83564999D02*
X165680001Y-82634999D01*
X165680001Y-83564999D02*
X163520001Y-83564999D01*
X165680001Y-80404999D02*
X164220001Y-80404999D01*
X161230001Y-75854999D02*
X161230001Y-76784999D01*
X161230001Y-79014999D02*
X161230001Y-78084999D01*
X161230001Y-79014999D02*
X159070001Y-79014999D01*
X161230001Y-75854999D02*
X159770001Y-75854999D01*
X140330001Y-58554999D02*
X138870001Y-58554999D01*
X140330001Y-61714999D02*
X138170001Y-61714999D01*
X140330001Y-61714999D02*
X140330001Y-60784999D01*
X140330001Y-58554999D02*
X140330001Y-59484999D01*
X150810001Y-69064999D02*
X150810001Y-69994999D01*
X150810001Y-72224999D02*
X150810001Y-71294999D01*
X150810001Y-72224999D02*
X148650001Y-72224999D01*
X150810001Y-69064999D02*
X149350001Y-69064999D01*
X156460001Y-75544999D02*
X155000001Y-75544999D01*
X156460001Y-78704999D02*
X154300001Y-78704999D01*
X156460001Y-78704999D02*
X156460001Y-77774999D01*
X156460001Y-75544999D02*
X156460001Y-76474999D01*
X160750001Y-74394999D02*
X158850001Y-74394999D01*
X159350001Y-72074999D02*
X160750001Y-72074999D01*
X150900001Y-65284999D02*
X152300001Y-65284999D01*
X152300001Y-67604999D02*
X150400001Y-67604999D01*
X173449721Y-108515000D02*
X173775279Y-108515000D01*
X173449721Y-109535000D02*
X173775279Y-109535000D01*
X173424721Y-108035000D02*
X173750279Y-108035000D01*
X173424721Y-107015000D02*
X173750279Y-107015000D01*
X173449721Y-111035000D02*
X173775279Y-111035000D01*
X173449721Y-110015000D02*
X173775279Y-110015000D01*
X157327222Y-59514999D02*
X157652780Y-59514999D01*
X157327222Y-58494999D02*
X157652780Y-58494999D01*
X164027222Y-65544999D02*
X164352780Y-65544999D01*
X164027222Y-64524999D02*
X164352780Y-64524999D01*
X172997222Y-79984999D02*
X173322780Y-79984999D01*
X172997222Y-81004999D02*
X173322780Y-81004999D01*
X167597222Y-67034999D02*
X167922780Y-67034999D01*
X167597222Y-68054999D02*
X167922780Y-68054999D01*
D10*
X153053601Y-82804578D02*
G75*
G03X153053601Y-82804578I-76200J0D01*
G01*
X157036194Y-83277018D02*
X157036194Y-83556799D01*
X153784994Y-80382180D02*
X153784994Y-80102399D01*
X153784994Y-83556799D02*
X153784994Y-83277018D01*
X157036194Y-83556799D02*
X153784994Y-83556799D01*
X157036194Y-80102399D02*
X157036194Y-80382180D01*
X153784994Y-80102399D02*
X157036194Y-80102399D01*
D11*
X171797222Y-69944999D02*
X172122780Y-69944999D01*
X171797222Y-70964999D02*
X172122780Y-70964999D01*
D10*
X132884994Y-58252399D02*
X136136194Y-58252399D01*
X136136194Y-58252399D02*
X136136194Y-58532180D01*
X136136194Y-61706799D02*
X132884994Y-61706799D01*
X132884994Y-61706799D02*
X132884994Y-61427018D01*
X132884994Y-58532180D02*
X132884994Y-58252399D01*
X136136194Y-61427018D02*
X136136194Y-61706799D01*
X132153601Y-60954578D02*
G75*
G03X132153601Y-60954578I-76200J0D01*
G01*
D11*
X157327222Y-57004999D02*
X157652780Y-57004999D01*
X157327222Y-55984999D02*
X157652780Y-55984999D01*
X176567222Y-77474999D02*
X176892780Y-77474999D01*
X176567222Y-78494999D02*
X176892780Y-78494999D01*
X164027222Y-62014999D02*
X164352780Y-62014999D01*
X164027222Y-63034999D02*
X164352780Y-63034999D01*
D10*
X128815140Y-59173099D02*
X129490862Y-59173099D01*
X130727801Y-59173099D02*
X130727801Y-61078099D01*
X130727801Y-61078099D02*
X129765141Y-61078099D01*
X127578201Y-61078099D02*
X127578201Y-59173099D01*
X128540861Y-61078099D02*
X127578201Y-61078099D01*
X128279201Y-57509399D02*
G75*
G03X128279201Y-57509399I-76200J0D01*
G01*
X136229201Y-63059399D02*
G75*
G03X136229201Y-63059399I-76200J0D01*
G01*
X136490861Y-66628099D02*
X135528201Y-66628099D01*
X135528201Y-66628099D02*
X135528201Y-64723099D01*
X138677801Y-66628099D02*
X137715141Y-66628099D01*
X138677801Y-64723099D02*
X138677801Y-66628099D01*
X136765140Y-64723099D02*
X137440862Y-64723099D01*
D11*
X161337222Y-60524999D02*
X161662780Y-60524999D01*
X161337222Y-59504999D02*
X161662780Y-59504999D01*
X168037222Y-64524999D02*
X168362780Y-64524999D01*
X168037222Y-65544999D02*
X168362780Y-65544999D01*
X176047222Y-72454999D02*
X176372780Y-72454999D01*
X176047222Y-73474999D02*
X176372780Y-73474999D01*
X171607222Y-68454999D02*
X171932780Y-68454999D01*
X171607222Y-67434999D02*
X171932780Y-67434999D01*
X161337222Y-56994999D02*
X161662780Y-56994999D01*
X161337222Y-58014999D02*
X161662780Y-58014999D01*
X176567222Y-75984999D02*
X176892780Y-75984999D01*
X176567222Y-74964999D02*
X176892780Y-74964999D01*
X165347222Y-59504999D02*
X165672780Y-59504999D01*
X165347222Y-60524999D02*
X165672780Y-60524999D01*
X156007222Y-64534999D02*
X156332780Y-64534999D01*
X156007222Y-63514999D02*
X156332780Y-63514999D01*
D10*
X145215140Y-72673099D02*
X145890862Y-72673099D01*
X147127801Y-72673099D02*
X147127801Y-74578099D01*
X147127801Y-74578099D02*
X146165141Y-74578099D01*
X143978201Y-74578099D02*
X143978201Y-72673099D01*
X144940861Y-74578099D02*
X143978201Y-74578099D01*
X144679201Y-71009399D02*
G75*
G03X144679201Y-71009399I-76200J0D01*
G01*
D11*
X156007222Y-61004999D02*
X156332780Y-61004999D01*
X156007222Y-62024999D02*
X156332780Y-62024999D01*
X153317222Y-58754999D02*
X153642780Y-58754999D01*
X153317222Y-57734999D02*
X153642780Y-57734999D01*
X168027222Y-73474999D02*
X168352780Y-73474999D01*
X168027222Y-72454999D02*
X168352780Y-72454999D01*
X163587222Y-67034999D02*
X163912780Y-67034999D01*
X163587222Y-68054999D02*
X163912780Y-68054999D01*
X172557222Y-74964999D02*
X172882780Y-74964999D01*
X172557222Y-75984999D02*
X172882780Y-75984999D01*
X160017222Y-62014999D02*
X160342780Y-62014999D01*
X160017222Y-63034999D02*
X160342780Y-63034999D01*
X167787222Y-70964999D02*
X168112780Y-70964999D01*
X167787222Y-69944999D02*
X168112780Y-69944999D01*
X160017222Y-65544999D02*
X160342780Y-65544999D01*
X160017222Y-64524999D02*
X160342780Y-64524999D01*
D10*
X183823300Y-116330015D02*
X183823300Y-112519985D01*
X191976700Y-112519985D02*
X191976700Y-116330015D01*
X185815501Y-118590600D02*
X185434501Y-118590600D01*
X185434501Y-118590600D02*
X185434501Y-118336600D01*
X185434501Y-118336600D02*
X185815501Y-118336600D01*
X185815501Y-118336600D02*
X185815501Y-118590600D01*
X189065499Y-110259400D02*
X188684499Y-110259400D01*
X188684499Y-110259400D02*
X188684499Y-110513400D01*
X188684499Y-110513400D02*
X189065499Y-110513400D01*
X189065499Y-110513400D02*
X189065499Y-110259400D01*
D11*
X129150001Y-71424999D02*
X133050001Y-71424999D01*
X127650001Y-76544999D02*
X133050001Y-76544999D01*
X109440001Y-50462222D02*
X109440001Y-50787780D01*
X108420001Y-50462222D02*
X108420001Y-50787780D01*
X104370001Y-54512222D02*
X104370001Y-54837780D01*
X105390001Y-54512222D02*
X105390001Y-54837780D01*
X111950001Y-50462222D02*
X111950001Y-50787780D01*
X110930001Y-50462222D02*
X110930001Y-50787780D01*
X108420001Y-54472222D02*
X108420001Y-54797780D01*
X109440001Y-54472222D02*
X109440001Y-54797780D01*
X104370001Y-58522222D02*
X104370001Y-58847780D01*
X105390001Y-58522222D02*
X105390001Y-58847780D01*
X110930001Y-54472222D02*
X110930001Y-54797780D01*
X111950001Y-54472222D02*
X111950001Y-54797780D01*
X106880001Y-58482222D02*
X106880001Y-58807780D01*
X107900001Y-58482222D02*
X107900001Y-58807780D01*
X117690001Y-50462222D02*
X117690001Y-50787780D01*
X116670001Y-50462222D02*
X116670001Y-50787780D01*
D13*
X132327380Y-84563095D02*
X133136904Y-84563095D01*
X133232142Y-84610714D01*
X133279761Y-84658333D01*
X133327380Y-84753571D01*
X133327380Y-84944047D01*
X133279761Y-85039285D01*
X133232142Y-85086904D01*
X133136904Y-85134523D01*
X132327380Y-85134523D01*
X132755952Y-85753571D02*
X132708333Y-85658333D01*
X132660714Y-85610714D01*
X132565476Y-85563095D01*
X132517857Y-85563095D01*
X132422619Y-85610714D01*
X132375000Y-85658333D01*
X132327380Y-85753571D01*
X132327380Y-85944047D01*
X132375000Y-86039285D01*
X132422619Y-86086904D01*
X132517857Y-86134523D01*
X132565476Y-86134523D01*
X132660714Y-86086904D01*
X132708333Y-86039285D01*
X132755952Y-85944047D01*
X132755952Y-85753571D01*
X132803571Y-85658333D01*
X132851190Y-85610714D01*
X132946428Y-85563095D01*
X133136904Y-85563095D01*
X133232142Y-85610714D01*
X133279761Y-85658333D01*
X133327380Y-85753571D01*
X133327380Y-85944047D01*
X133279761Y-86039285D01*
X133232142Y-86086904D01*
X133136904Y-86134523D01*
X132946428Y-86134523D01*
X132851190Y-86086904D01*
X132803571Y-86039285D01*
X132755952Y-85944047D01*
X132327380Y-79753571D02*
X132327380Y-80325000D01*
X133327380Y-80039285D02*
X132327380Y-80039285D01*
X133327380Y-80658333D02*
X132327380Y-80658333D01*
X132327380Y-81039285D01*
X132375000Y-81134523D01*
X132422619Y-81182142D01*
X132517857Y-81229761D01*
X132660714Y-81229761D01*
X132755952Y-81182142D01*
X132803571Y-81134523D01*
X132851190Y-81039285D01*
X132851190Y-80658333D01*
X133327380Y-81658333D02*
X132327380Y-81658333D01*
X132327380Y-81896428D01*
X132375000Y-82039285D01*
X132470238Y-82134523D01*
X132565476Y-82182142D01*
X132755952Y-82229761D01*
X132898809Y-82229761D01*
X133089285Y-82182142D01*
X133184523Y-82134523D01*
X133279761Y-82039285D01*
X133327380Y-81896428D01*
X133327380Y-81658333D01*
X132327380Y-83086904D02*
X132327380Y-82896428D01*
X132375000Y-82801190D01*
X132422619Y-82753571D01*
X132565476Y-82658333D01*
X132755952Y-82610714D01*
X133136904Y-82610714D01*
X133232142Y-82658333D01*
X133279761Y-82705952D01*
X133327380Y-82801190D01*
X133327380Y-82991666D01*
X133279761Y-83086904D01*
X133232142Y-83134523D01*
X133136904Y-83182142D01*
X132898809Y-83182142D01*
X132803571Y-83134523D01*
X132755952Y-83086904D01*
X132708333Y-82991666D01*
X132708333Y-82801190D01*
X132755952Y-82705952D01*
X132803571Y-82658333D01*
X132898809Y-82610714D01*
X132803571Y-83610714D02*
X132803571Y-83944047D01*
X133327380Y-84086904D02*
X133327380Y-83610714D01*
X132327380Y-83610714D01*
X132327380Y-84086904D01*
X132327380Y-84705952D02*
X132327380Y-84801190D01*
X132375000Y-84896428D01*
X132422619Y-84944047D01*
X132517857Y-84991666D01*
X132708333Y-85039285D01*
X132946428Y-85039285D01*
X133136904Y-84991666D01*
X133232142Y-84944047D01*
X133279761Y-84896428D01*
X133327380Y-84801190D01*
X133327380Y-84705952D01*
X133279761Y-84610714D01*
X133232142Y-84563095D01*
X133136904Y-84515476D01*
X132946428Y-84467857D01*
X132708333Y-84467857D01*
X132517857Y-84515476D01*
X132422619Y-84563095D01*
X132375000Y-84610714D01*
X132327380Y-84705952D01*
X132327380Y-85658333D02*
X132327380Y-85753571D01*
X132375000Y-85848809D01*
X132422619Y-85896428D01*
X132517857Y-85944047D01*
X132708333Y-85991666D01*
X132946428Y-85991666D01*
X133136904Y-85944047D01*
X133232142Y-85896428D01*
X133279761Y-85848809D01*
X133327380Y-85753571D01*
X133327380Y-85658333D01*
X133279761Y-85563095D01*
X133232142Y-85515476D01*
X133136904Y-85467857D01*
X132946428Y-85420238D01*
X132708333Y-85420238D01*
X132517857Y-85467857D01*
X132422619Y-85515476D01*
X132375000Y-85563095D01*
X132327380Y-85658333D01*
X133327380Y-86944047D02*
X133327380Y-86372619D01*
X133327380Y-86658333D02*
X132327380Y-86658333D01*
X132470238Y-86563095D01*
X132565476Y-86467857D01*
X132613095Y-86372619D01*
X133327380Y-87944047D02*
X132851190Y-87610714D01*
X133327380Y-87372619D02*
X132327380Y-87372619D01*
X132327380Y-87753571D01*
X132375000Y-87848809D01*
X132422619Y-87896428D01*
X132517857Y-87944047D01*
X132660714Y-87944047D01*
X132755952Y-87896428D01*
X132803571Y-87848809D01*
X132851190Y-87753571D01*
X132851190Y-87372619D01*
X133279761Y-88325000D02*
X133327380Y-88467857D01*
X133327380Y-88705952D01*
X133279761Y-88801190D01*
X133232142Y-88848809D01*
X133136904Y-88896428D01*
X133041666Y-88896428D01*
X132946428Y-88848809D01*
X132898809Y-88801190D01*
X132851190Y-88705952D01*
X132803571Y-88515476D01*
X132755952Y-88420238D01*
X132708333Y-88372619D01*
X132613095Y-88325000D01*
X132517857Y-88325000D01*
X132422619Y-88372619D01*
X132375000Y-88420238D01*
X132327380Y-88515476D01*
X132327380Y-88753571D01*
X132375000Y-88896428D01*
X132803571Y-89325000D02*
X132803571Y-89658333D01*
X133327380Y-89801190D02*
X133327380Y-89325000D01*
X132327380Y-89325000D01*
X132327380Y-89801190D01*
X133327380Y-90801190D02*
X132851190Y-90467857D01*
X133327380Y-90229761D02*
X132327380Y-90229761D01*
X132327380Y-90610714D01*
X132375000Y-90705952D01*
X132422619Y-90753571D01*
X132517857Y-90801190D01*
X132660714Y-90801190D01*
X132755952Y-90753571D01*
X132803571Y-90705952D01*
X132851190Y-90610714D01*
X132851190Y-90229761D01*
X130946380Y-83765000D02*
X131184476Y-83765000D01*
X131089238Y-83526904D02*
X131184476Y-83765000D01*
X131089238Y-84003095D01*
X131374952Y-83622142D02*
X131184476Y-83765000D01*
X131374952Y-83907857D01*
X131607379Y-84011665D02*
X132321665Y-84011665D01*
X132464522Y-83964046D01*
X132559760Y-83868808D01*
X132607379Y-83725951D01*
X132607379Y-83630713D01*
X131607379Y-84964046D02*
X131607379Y-84487856D01*
X132083570Y-84440237D01*
X132035951Y-84487856D01*
X131988332Y-84583094D01*
X131988332Y-84821189D01*
X132035951Y-84916427D01*
X132083570Y-84964046D01*
X132178808Y-85011665D01*
X132416903Y-85011665D01*
X132512141Y-84964046D01*
X132559760Y-84916427D01*
X132607379Y-84821189D01*
X132607379Y-84583094D01*
X132559760Y-84487856D01*
X132512141Y-84440237D01*
X174230357Y-113812142D02*
X174277976Y-113859761D01*
X174420833Y-113907380D01*
X174516071Y-113907380D01*
X174658928Y-113859761D01*
X174754166Y-113764523D01*
X174801785Y-113669285D01*
X174849404Y-113478809D01*
X174849404Y-113335952D01*
X174801785Y-113145476D01*
X174754166Y-113050238D01*
X174658928Y-112955000D01*
X174516071Y-112907380D01*
X174420833Y-112907380D01*
X174277976Y-112955000D01*
X174230357Y-113002619D01*
X173325595Y-112907380D02*
X173801785Y-112907380D01*
X173849404Y-113383571D01*
X173801785Y-113335952D01*
X173706547Y-113288333D01*
X173468452Y-113288333D01*
X173373214Y-113335952D01*
X173325595Y-113383571D01*
X173277976Y-113478809D01*
X173277976Y-113716904D01*
X173325595Y-113812142D01*
X173373214Y-113859761D01*
X173468452Y-113907380D01*
X173706547Y-113907380D01*
X173801785Y-113859761D01*
X173849404Y-113812142D01*
X172325595Y-113907380D02*
X172897023Y-113907380D01*
X172611309Y-113907380D02*
X172611309Y-112907380D01*
X172706547Y-113050238D01*
X172801785Y-113145476D01*
X172897023Y-113193095D01*
X172842858Y-74752141D02*
X172890477Y-74799760D01*
X173033334Y-74847379D01*
X173128572Y-74847379D01*
X173271429Y-74799760D01*
X173366667Y-74704522D01*
X173414286Y-74609284D01*
X173461905Y-74418808D01*
X173461905Y-74275951D01*
X173414286Y-74085475D01*
X173366667Y-73990237D01*
X173271429Y-73894999D01*
X173128572Y-73847379D01*
X173033334Y-73847379D01*
X172890477Y-73894999D01*
X172842858Y-73942618D01*
X172366667Y-74847379D02*
X172176191Y-74847379D01*
X172080953Y-74799760D01*
X172033334Y-74752141D01*
X171938096Y-74609284D01*
X171890477Y-74418808D01*
X171890477Y-74037856D01*
X171938096Y-73942618D01*
X171985715Y-73894999D01*
X172080953Y-73847379D01*
X172271429Y-73847379D01*
X172366667Y-73894999D01*
X172414286Y-73942618D01*
X172461905Y-74037856D01*
X172461905Y-74275951D01*
X172414286Y-74371189D01*
X172366667Y-74418808D01*
X172271429Y-74466427D01*
X172080953Y-74466427D01*
X171985715Y-74418808D01*
X171938096Y-74371189D01*
X171890477Y-74275951D01*
X171033334Y-73847379D02*
X171223810Y-73847379D01*
X171319048Y-73894999D01*
X171366667Y-73942618D01*
X171461905Y-74085475D01*
X171509524Y-74275951D01*
X171509524Y-74656903D01*
X171461905Y-74752141D01*
X171414286Y-74799760D01*
X171319048Y-74847379D01*
X171128572Y-74847379D01*
X171033334Y-74799760D01*
X170985715Y-74752141D01*
X170938096Y-74656903D01*
X170938096Y-74418808D01*
X170985715Y-74323570D01*
X171033334Y-74275951D01*
X171128572Y-74228332D01*
X171319048Y-74228332D01*
X171414286Y-74275951D01*
X171461905Y-74323570D01*
X171509524Y-74418808D01*
X173362858Y-79772141D02*
X173410477Y-79819760D01*
X173553334Y-79867379D01*
X173648572Y-79867379D01*
X173791429Y-79819760D01*
X173886667Y-79724522D01*
X173934286Y-79629284D01*
X173981905Y-79438808D01*
X173981905Y-79295951D01*
X173934286Y-79105475D01*
X173886667Y-79010237D01*
X173791429Y-78914999D01*
X173648572Y-78867379D01*
X173553334Y-78867379D01*
X173410477Y-78914999D01*
X173362858Y-78962618D01*
X172886667Y-79867379D02*
X172696191Y-79867379D01*
X172600953Y-79819760D01*
X172553334Y-79772141D01*
X172458096Y-79629284D01*
X172410477Y-79438808D01*
X172410477Y-79057856D01*
X172458096Y-78962618D01*
X172505715Y-78914999D01*
X172600953Y-78867379D01*
X172791429Y-78867379D01*
X172886667Y-78914999D01*
X172934286Y-78962618D01*
X172981905Y-79057856D01*
X172981905Y-79295951D01*
X172934286Y-79391189D01*
X172886667Y-79438808D01*
X172791429Y-79486427D01*
X172600953Y-79486427D01*
X172505715Y-79438808D01*
X172458096Y-79391189D01*
X172410477Y-79295951D01*
X172077143Y-78867379D02*
X171410477Y-78867379D01*
X171839048Y-79867379D01*
X169792858Y-84792141D02*
X169840477Y-84839760D01*
X169983334Y-84887379D01*
X170078572Y-84887379D01*
X170221429Y-84839760D01*
X170316667Y-84744522D01*
X170364286Y-84649284D01*
X170411905Y-84458808D01*
X170411905Y-84315951D01*
X170364286Y-84125475D01*
X170316667Y-84030237D01*
X170221429Y-83934999D01*
X170078572Y-83887379D01*
X169983334Y-83887379D01*
X169840477Y-83934999D01*
X169792858Y-83982618D01*
X169316667Y-84887379D02*
X169126191Y-84887379D01*
X169030953Y-84839760D01*
X168983334Y-84792141D01*
X168888096Y-84649284D01*
X168840477Y-84458808D01*
X168840477Y-84077856D01*
X168888096Y-83982618D01*
X168935715Y-83934999D01*
X169030953Y-83887379D01*
X169221429Y-83887379D01*
X169316667Y-83934999D01*
X169364286Y-83982618D01*
X169411905Y-84077856D01*
X169411905Y-84315951D01*
X169364286Y-84411189D01*
X169316667Y-84458808D01*
X169221429Y-84506427D01*
X169030953Y-84506427D01*
X168935715Y-84458808D01*
X168888096Y-84411189D01*
X168840477Y-84315951D01*
X168269048Y-84315951D02*
X168364286Y-84268332D01*
X168411905Y-84220713D01*
X168459524Y-84125475D01*
X168459524Y-84077856D01*
X168411905Y-83982618D01*
X168364286Y-83934999D01*
X168269048Y-83887379D01*
X168078572Y-83887379D01*
X167983334Y-83934999D01*
X167935715Y-83982618D01*
X167888096Y-84077856D01*
X167888096Y-84125475D01*
X167935715Y-84220713D01*
X167983334Y-84268332D01*
X168078572Y-84315951D01*
X168269048Y-84315951D01*
X168364286Y-84363570D01*
X168411905Y-84411189D01*
X168459524Y-84506427D01*
X168459524Y-84696903D01*
X168411905Y-84792141D01*
X168364286Y-84839760D01*
X168269048Y-84887379D01*
X168078572Y-84887379D01*
X167983334Y-84839760D01*
X167935715Y-84792141D01*
X167888096Y-84696903D01*
X167888096Y-84506427D01*
X167935715Y-84411189D01*
X167983334Y-84363570D01*
X168078572Y-84315951D01*
X165342858Y-80242141D02*
X165390477Y-80289760D01*
X165533334Y-80337379D01*
X165628572Y-80337379D01*
X165771429Y-80289760D01*
X165866667Y-80194522D01*
X165914286Y-80099284D01*
X165961905Y-79908808D01*
X165961905Y-79765951D01*
X165914286Y-79575475D01*
X165866667Y-79480237D01*
X165771429Y-79384999D01*
X165628572Y-79337379D01*
X165533334Y-79337379D01*
X165390477Y-79384999D01*
X165342858Y-79432618D01*
X164866667Y-80337379D02*
X164676191Y-80337379D01*
X164580953Y-80289760D01*
X164533334Y-80242141D01*
X164438096Y-80099284D01*
X164390477Y-79908808D01*
X164390477Y-79527856D01*
X164438096Y-79432618D01*
X164485715Y-79384999D01*
X164580953Y-79337379D01*
X164771429Y-79337379D01*
X164866667Y-79384999D01*
X164914286Y-79432618D01*
X164961905Y-79527856D01*
X164961905Y-79765951D01*
X164914286Y-79861189D01*
X164866667Y-79908808D01*
X164771429Y-79956427D01*
X164580953Y-79956427D01*
X164485715Y-79908808D01*
X164438096Y-79861189D01*
X164390477Y-79765951D01*
X163914286Y-80337379D02*
X163723810Y-80337379D01*
X163628572Y-80289760D01*
X163580953Y-80242141D01*
X163485715Y-80099284D01*
X163438096Y-79908808D01*
X163438096Y-79527856D01*
X163485715Y-79432618D01*
X163533334Y-79384999D01*
X163628572Y-79337379D01*
X163819048Y-79337379D01*
X163914286Y-79384999D01*
X163961905Y-79432618D01*
X164009524Y-79527856D01*
X164009524Y-79765951D01*
X163961905Y-79861189D01*
X163914286Y-79908808D01*
X163819048Y-79956427D01*
X163628572Y-79956427D01*
X163533334Y-79908808D01*
X163485715Y-79861189D01*
X163438096Y-79765951D01*
X149269048Y-61842141D02*
X149316667Y-61889760D01*
X149459524Y-61937379D01*
X149554762Y-61937379D01*
X149697620Y-61889760D01*
X149792858Y-61794522D01*
X149840477Y-61699284D01*
X149888096Y-61508808D01*
X149888096Y-61365951D01*
X149840477Y-61175475D01*
X149792858Y-61080237D01*
X149697620Y-60984999D01*
X149554762Y-60937379D01*
X149459524Y-60937379D01*
X149316667Y-60984999D01*
X149269048Y-61032618D01*
X148316667Y-61937379D02*
X148888096Y-61937379D01*
X148602381Y-61937379D02*
X148602381Y-60937379D01*
X148697620Y-61080237D01*
X148792858Y-61175475D01*
X148888096Y-61223094D01*
X147697620Y-60937379D02*
X147602381Y-60937379D01*
X147507143Y-60984999D01*
X147459524Y-61032618D01*
X147411905Y-61127856D01*
X147364286Y-61318332D01*
X147364286Y-61556427D01*
X147411905Y-61746903D01*
X147459524Y-61842141D01*
X147507143Y-61889760D01*
X147602381Y-61937379D01*
X147697620Y-61937379D01*
X147792858Y-61889760D01*
X147840477Y-61842141D01*
X147888096Y-61746903D01*
X147935715Y-61556427D01*
X147935715Y-61318332D01*
X147888096Y-61127856D01*
X147840477Y-61032618D01*
X147792858Y-60984999D01*
X147697620Y-60937379D01*
X146745239Y-60937379D02*
X146650001Y-60937379D01*
X146554762Y-60984999D01*
X146507143Y-61032618D01*
X146459524Y-61127856D01*
X146411905Y-61318332D01*
X146411905Y-61556427D01*
X146459524Y-61746903D01*
X146507143Y-61842141D01*
X146554762Y-61889760D01*
X146650001Y-61937379D01*
X146745239Y-61937379D01*
X146840477Y-61889760D01*
X146888096Y-61842141D01*
X146935715Y-61746903D01*
X146983334Y-61556427D01*
X146983334Y-61318332D01*
X146935715Y-61127856D01*
X146888096Y-61032618D01*
X146840477Y-60984999D01*
X146745239Y-60937379D01*
X169829048Y-77262141D02*
X169876667Y-77309760D01*
X170019524Y-77357379D01*
X170114762Y-77357379D01*
X170257620Y-77309760D01*
X170352858Y-77214522D01*
X170400477Y-77119284D01*
X170448096Y-76928808D01*
X170448096Y-76785951D01*
X170400477Y-76595475D01*
X170352858Y-76500237D01*
X170257620Y-76404999D01*
X170114762Y-76357379D01*
X170019524Y-76357379D01*
X169876667Y-76404999D01*
X169829048Y-76452618D01*
X168876667Y-77357379D02*
X169448096Y-77357379D01*
X169162381Y-77357379D02*
X169162381Y-76357379D01*
X169257620Y-76500237D01*
X169352858Y-76595475D01*
X169448096Y-76643094D01*
X168257620Y-76357379D02*
X168162381Y-76357379D01*
X168067143Y-76404999D01*
X168019524Y-76452618D01*
X167971905Y-76547856D01*
X167924286Y-76738332D01*
X167924286Y-76976427D01*
X167971905Y-77166903D01*
X168019524Y-77262141D01*
X168067143Y-77309760D01*
X168162381Y-77357379D01*
X168257620Y-77357379D01*
X168352858Y-77309760D01*
X168400477Y-77262141D01*
X168448096Y-77166903D01*
X168495715Y-76976427D01*
X168495715Y-76738332D01*
X168448096Y-76547856D01*
X168400477Y-76452618D01*
X168352858Y-76404999D01*
X168257620Y-76357379D01*
X166971905Y-77357379D02*
X167543334Y-77357379D01*
X167257620Y-77357379D02*
X167257620Y-76357379D01*
X167352858Y-76500237D01*
X167448096Y-76595475D01*
X167543334Y-76643094D01*
X170269048Y-82282141D02*
X170316667Y-82329760D01*
X170459524Y-82377379D01*
X170554762Y-82377379D01*
X170697620Y-82329760D01*
X170792858Y-82234522D01*
X170840477Y-82139284D01*
X170888096Y-81948808D01*
X170888096Y-81805951D01*
X170840477Y-81615475D01*
X170792858Y-81520237D01*
X170697620Y-81424999D01*
X170554762Y-81377379D01*
X170459524Y-81377379D01*
X170316667Y-81424999D01*
X170269048Y-81472618D01*
X169316667Y-82377379D02*
X169888096Y-82377379D01*
X169602381Y-82377379D02*
X169602381Y-81377379D01*
X169697620Y-81520237D01*
X169792858Y-81615475D01*
X169888096Y-81663094D01*
X168697620Y-81377379D02*
X168602381Y-81377379D01*
X168507143Y-81424999D01*
X168459524Y-81472618D01*
X168411905Y-81567856D01*
X168364286Y-81758332D01*
X168364286Y-81996427D01*
X168411905Y-82186903D01*
X168459524Y-82282141D01*
X168507143Y-82329760D01*
X168602381Y-82377379D01*
X168697620Y-82377379D01*
X168792858Y-82329760D01*
X168840477Y-82282141D01*
X168888096Y-82186903D01*
X168935715Y-81996427D01*
X168935715Y-81758332D01*
X168888096Y-81567856D01*
X168840477Y-81472618D01*
X168792858Y-81424999D01*
X168697620Y-81377379D01*
X167983334Y-81472618D02*
X167935715Y-81424999D01*
X167840477Y-81377379D01*
X167602381Y-81377379D01*
X167507143Y-81424999D01*
X167459524Y-81472618D01*
X167411905Y-81567856D01*
X167411905Y-81663094D01*
X167459524Y-81805951D01*
X168030953Y-82377379D01*
X167411905Y-82377379D01*
X160859048Y-69332141D02*
X160906667Y-69379760D01*
X161049524Y-69427379D01*
X161144762Y-69427379D01*
X161287620Y-69379760D01*
X161382858Y-69284522D01*
X161430477Y-69189284D01*
X161478096Y-68998808D01*
X161478096Y-68855951D01*
X161430477Y-68665475D01*
X161382858Y-68570237D01*
X161287620Y-68474999D01*
X161144762Y-68427379D01*
X161049524Y-68427379D01*
X160906667Y-68474999D01*
X160859048Y-68522618D01*
X159906667Y-69427379D02*
X160478096Y-69427379D01*
X160192381Y-69427379D02*
X160192381Y-68427379D01*
X160287620Y-68570237D01*
X160382858Y-68665475D01*
X160478096Y-68713094D01*
X159287620Y-68427379D02*
X159192381Y-68427379D01*
X159097143Y-68474999D01*
X159049524Y-68522618D01*
X159001905Y-68617856D01*
X158954286Y-68808332D01*
X158954286Y-69046427D01*
X159001905Y-69236903D01*
X159049524Y-69332141D01*
X159097143Y-69379760D01*
X159192381Y-69427379D01*
X159287620Y-69427379D01*
X159382858Y-69379760D01*
X159430477Y-69332141D01*
X159478096Y-69236903D01*
X159525715Y-69046427D01*
X159525715Y-68808332D01*
X159478096Y-68617856D01*
X159430477Y-68522618D01*
X159382858Y-68474999D01*
X159287620Y-68427379D01*
X158620953Y-68427379D02*
X158001905Y-68427379D01*
X158335239Y-68808332D01*
X158192381Y-68808332D01*
X158097143Y-68855951D01*
X158049524Y-68903570D01*
X158001905Y-68998808D01*
X158001905Y-69236903D01*
X158049524Y-69332141D01*
X158097143Y-69379760D01*
X158192381Y-69427379D01*
X158478096Y-69427379D01*
X158573334Y-69379760D01*
X158620953Y-69332141D01*
X165299048Y-75222141D02*
X165346667Y-75269760D01*
X165489524Y-75317379D01*
X165584762Y-75317379D01*
X165727620Y-75269760D01*
X165822858Y-75174522D01*
X165870477Y-75079284D01*
X165918096Y-74888808D01*
X165918096Y-74745951D01*
X165870477Y-74555475D01*
X165822858Y-74460237D01*
X165727620Y-74364999D01*
X165584762Y-74317379D01*
X165489524Y-74317379D01*
X165346667Y-74364999D01*
X165299048Y-74412618D01*
X164346667Y-75317379D02*
X164918096Y-75317379D01*
X164632381Y-75317379D02*
X164632381Y-74317379D01*
X164727620Y-74460237D01*
X164822858Y-74555475D01*
X164918096Y-74603094D01*
X163727620Y-74317379D02*
X163632381Y-74317379D01*
X163537143Y-74364999D01*
X163489524Y-74412618D01*
X163441905Y-74507856D01*
X163394286Y-74698332D01*
X163394286Y-74936427D01*
X163441905Y-75126903D01*
X163489524Y-75222141D01*
X163537143Y-75269760D01*
X163632381Y-75317379D01*
X163727620Y-75317379D01*
X163822858Y-75269760D01*
X163870477Y-75222141D01*
X163918096Y-75126903D01*
X163965715Y-74936427D01*
X163965715Y-74698332D01*
X163918096Y-74507856D01*
X163870477Y-74412618D01*
X163822858Y-74364999D01*
X163727620Y-74317379D01*
X162537143Y-74650713D02*
X162537143Y-75317379D01*
X162775239Y-74269760D02*
X163013334Y-74984046D01*
X162394286Y-74984046D01*
X169829048Y-79772141D02*
X169876667Y-79819760D01*
X170019524Y-79867379D01*
X170114762Y-79867379D01*
X170257620Y-79819760D01*
X170352858Y-79724522D01*
X170400477Y-79629284D01*
X170448096Y-79438808D01*
X170448096Y-79295951D01*
X170400477Y-79105475D01*
X170352858Y-79010237D01*
X170257620Y-78914999D01*
X170114762Y-78867379D01*
X170019524Y-78867379D01*
X169876667Y-78914999D01*
X169829048Y-78962618D01*
X168876667Y-79867379D02*
X169448096Y-79867379D01*
X169162381Y-79867379D02*
X169162381Y-78867379D01*
X169257620Y-79010237D01*
X169352858Y-79105475D01*
X169448096Y-79153094D01*
X168257620Y-78867379D02*
X168162381Y-78867379D01*
X168067143Y-78914999D01*
X168019524Y-78962618D01*
X167971905Y-79057856D01*
X167924286Y-79248332D01*
X167924286Y-79486427D01*
X167971905Y-79676903D01*
X168019524Y-79772141D01*
X168067143Y-79819760D01*
X168162381Y-79867379D01*
X168257620Y-79867379D01*
X168352858Y-79819760D01*
X168400477Y-79772141D01*
X168448096Y-79676903D01*
X168495715Y-79486427D01*
X168495715Y-79248332D01*
X168448096Y-79057856D01*
X168400477Y-78962618D01*
X168352858Y-78914999D01*
X168257620Y-78867379D01*
X167019524Y-78867379D02*
X167495715Y-78867379D01*
X167543334Y-79343570D01*
X167495715Y-79295951D01*
X167400477Y-79248332D01*
X167162381Y-79248332D01*
X167067143Y-79295951D01*
X167019524Y-79343570D01*
X166971905Y-79438808D01*
X166971905Y-79676903D01*
X167019524Y-79772141D01*
X167067143Y-79819760D01*
X167162381Y-79867379D01*
X167400477Y-79867379D01*
X167495715Y-79819760D01*
X167543334Y-79772141D01*
X150589048Y-59332141D02*
X150636667Y-59379760D01*
X150779524Y-59427379D01*
X150874762Y-59427379D01*
X151017620Y-59379760D01*
X151112858Y-59284522D01*
X151160477Y-59189284D01*
X151208096Y-58998808D01*
X151208096Y-58855951D01*
X151160477Y-58665475D01*
X151112858Y-58570237D01*
X151017620Y-58474999D01*
X150874762Y-58427379D01*
X150779524Y-58427379D01*
X150636667Y-58474999D01*
X150589048Y-58522618D01*
X149636667Y-59427379D02*
X150208096Y-59427379D01*
X149922381Y-59427379D02*
X149922381Y-58427379D01*
X150017620Y-58570237D01*
X150112858Y-58665475D01*
X150208096Y-58713094D01*
X149017620Y-58427379D02*
X148922381Y-58427379D01*
X148827143Y-58474999D01*
X148779524Y-58522618D01*
X148731905Y-58617856D01*
X148684286Y-58808332D01*
X148684286Y-59046427D01*
X148731905Y-59236903D01*
X148779524Y-59332141D01*
X148827143Y-59379760D01*
X148922381Y-59427379D01*
X149017620Y-59427379D01*
X149112858Y-59379760D01*
X149160477Y-59332141D01*
X149208096Y-59236903D01*
X149255715Y-59046427D01*
X149255715Y-58808332D01*
X149208096Y-58617856D01*
X149160477Y-58522618D01*
X149112858Y-58474999D01*
X149017620Y-58427379D01*
X147827143Y-58427379D02*
X148017620Y-58427379D01*
X148112858Y-58474999D01*
X148160477Y-58522618D01*
X148255715Y-58665475D01*
X148303334Y-58855951D01*
X148303334Y-59236903D01*
X148255715Y-59332141D01*
X148208096Y-59379760D01*
X148112858Y-59427379D01*
X147922381Y-59427379D01*
X147827143Y-59379760D01*
X147779524Y-59332141D01*
X147731905Y-59236903D01*
X147731905Y-58998808D01*
X147779524Y-58903570D01*
X147827143Y-58855951D01*
X147922381Y-58808332D01*
X148112858Y-58808332D01*
X148208096Y-58855951D01*
X148255715Y-58903570D01*
X148303334Y-58998808D01*
X153279048Y-62542141D02*
X153326667Y-62589760D01*
X153469524Y-62637379D01*
X153564762Y-62637379D01*
X153707620Y-62589760D01*
X153802858Y-62494522D01*
X153850477Y-62399284D01*
X153898096Y-62208808D01*
X153898096Y-62065951D01*
X153850477Y-61875475D01*
X153802858Y-61780237D01*
X153707620Y-61684999D01*
X153564762Y-61637379D01*
X153469524Y-61637379D01*
X153326667Y-61684999D01*
X153279048Y-61732618D01*
X152326667Y-62637379D02*
X152898096Y-62637379D01*
X152612381Y-62637379D02*
X152612381Y-61637379D01*
X152707620Y-61780237D01*
X152802858Y-61875475D01*
X152898096Y-61923094D01*
X151707620Y-61637379D02*
X151612381Y-61637379D01*
X151517143Y-61684999D01*
X151469524Y-61732618D01*
X151421905Y-61827856D01*
X151374286Y-62018332D01*
X151374286Y-62256427D01*
X151421905Y-62446903D01*
X151469524Y-62542141D01*
X151517143Y-62589760D01*
X151612381Y-62637379D01*
X151707620Y-62637379D01*
X151802858Y-62589760D01*
X151850477Y-62542141D01*
X151898096Y-62446903D01*
X151945715Y-62256427D01*
X151945715Y-62018332D01*
X151898096Y-61827856D01*
X151850477Y-61732618D01*
X151802858Y-61684999D01*
X151707620Y-61637379D01*
X151040953Y-61637379D02*
X150374286Y-61637379D01*
X150802858Y-62637379D01*
X174279048Y-84792141D02*
X174326667Y-84839760D01*
X174469524Y-84887379D01*
X174564762Y-84887379D01*
X174707620Y-84839760D01*
X174802858Y-84744522D01*
X174850477Y-84649284D01*
X174898096Y-84458808D01*
X174898096Y-84315951D01*
X174850477Y-84125475D01*
X174802858Y-84030237D01*
X174707620Y-83934999D01*
X174564762Y-83887379D01*
X174469524Y-83887379D01*
X174326667Y-83934999D01*
X174279048Y-83982618D01*
X173326667Y-84887379D02*
X173898096Y-84887379D01*
X173612381Y-84887379D02*
X173612381Y-83887379D01*
X173707620Y-84030237D01*
X173802858Y-84125475D01*
X173898096Y-84173094D01*
X172707620Y-83887379D02*
X172612381Y-83887379D01*
X172517143Y-83934999D01*
X172469524Y-83982618D01*
X172421905Y-84077856D01*
X172374286Y-84268332D01*
X172374286Y-84506427D01*
X172421905Y-84696903D01*
X172469524Y-84792141D01*
X172517143Y-84839760D01*
X172612381Y-84887379D01*
X172707620Y-84887379D01*
X172802858Y-84839760D01*
X172850477Y-84792141D01*
X172898096Y-84696903D01*
X172945715Y-84506427D01*
X172945715Y-84268332D01*
X172898096Y-84077856D01*
X172850477Y-83982618D01*
X172802858Y-83934999D01*
X172707620Y-83887379D01*
X171802858Y-84315951D02*
X171898096Y-84268332D01*
X171945715Y-84220713D01*
X171993334Y-84125475D01*
X171993334Y-84077856D01*
X171945715Y-83982618D01*
X171898096Y-83934999D01*
X171802858Y-83887379D01*
X171612381Y-83887379D01*
X171517143Y-83934999D01*
X171469524Y-83982618D01*
X171421905Y-84077856D01*
X171421905Y-84125475D01*
X171469524Y-84220713D01*
X171517143Y-84268332D01*
X171612381Y-84315951D01*
X171802858Y-84315951D01*
X171898096Y-84363570D01*
X171945715Y-84411189D01*
X171993334Y-84506427D01*
X171993334Y-84696903D01*
X171945715Y-84792141D01*
X171898096Y-84839760D01*
X171802858Y-84887379D01*
X171612381Y-84887379D01*
X171517143Y-84839760D01*
X171469524Y-84792141D01*
X171421905Y-84696903D01*
X171421905Y-84506427D01*
X171469524Y-84411189D01*
X171517143Y-84363570D01*
X171612381Y-84315951D01*
X153279048Y-65052141D02*
X153326667Y-65099760D01*
X153469524Y-65147379D01*
X153564762Y-65147379D01*
X153707620Y-65099760D01*
X153802858Y-65004522D01*
X153850477Y-64909284D01*
X153898096Y-64718808D01*
X153898096Y-64575951D01*
X153850477Y-64385475D01*
X153802858Y-64290237D01*
X153707620Y-64194999D01*
X153564762Y-64147379D01*
X153469524Y-64147379D01*
X153326667Y-64194999D01*
X153279048Y-64242618D01*
X152326667Y-65147379D02*
X152898096Y-65147379D01*
X152612381Y-65147379D02*
X152612381Y-64147379D01*
X152707620Y-64290237D01*
X152802858Y-64385475D01*
X152898096Y-64433094D01*
X151707620Y-64147379D02*
X151612381Y-64147379D01*
X151517143Y-64194999D01*
X151469524Y-64242618D01*
X151421905Y-64337856D01*
X151374286Y-64528332D01*
X151374286Y-64766427D01*
X151421905Y-64956903D01*
X151469524Y-65052141D01*
X151517143Y-65099760D01*
X151612381Y-65147379D01*
X151707620Y-65147379D01*
X151802858Y-65099760D01*
X151850477Y-65052141D01*
X151898096Y-64956903D01*
X151945715Y-64766427D01*
X151945715Y-64528332D01*
X151898096Y-64337856D01*
X151850477Y-64242618D01*
X151802858Y-64194999D01*
X151707620Y-64147379D01*
X150898096Y-65147379D02*
X150707620Y-65147379D01*
X150612381Y-65099760D01*
X150564762Y-65052141D01*
X150469524Y-64909284D01*
X150421905Y-64718808D01*
X150421905Y-64337856D01*
X150469524Y-64242618D01*
X150517143Y-64194999D01*
X150612381Y-64147379D01*
X150802858Y-64147379D01*
X150898096Y-64194999D01*
X150945715Y-64242618D01*
X150993334Y-64337856D01*
X150993334Y-64575951D01*
X150945715Y-64671189D01*
X150898096Y-64718808D01*
X150802858Y-64766427D01*
X150612381Y-64766427D01*
X150517143Y-64718808D01*
X150469524Y-64671189D01*
X150421905Y-64575951D01*
X146579048Y-59332141D02*
X146626667Y-59379760D01*
X146769524Y-59427379D01*
X146864762Y-59427379D01*
X147007620Y-59379760D01*
X147102858Y-59284522D01*
X147150477Y-59189284D01*
X147198096Y-58998808D01*
X147198096Y-58855951D01*
X147150477Y-58665475D01*
X147102858Y-58570237D01*
X147007620Y-58474999D01*
X146864762Y-58427379D01*
X146769524Y-58427379D01*
X146626667Y-58474999D01*
X146579048Y-58522618D01*
X145626667Y-59427379D02*
X146198096Y-59427379D01*
X145912381Y-59427379D02*
X145912381Y-58427379D01*
X146007620Y-58570237D01*
X146102858Y-58665475D01*
X146198096Y-58713094D01*
X144674286Y-59427379D02*
X145245715Y-59427379D01*
X144960001Y-59427379D02*
X144960001Y-58427379D01*
X145055239Y-58570237D01*
X145150477Y-58665475D01*
X145245715Y-58713094D01*
X144055239Y-58427379D02*
X143960001Y-58427379D01*
X143864762Y-58474999D01*
X143817143Y-58522618D01*
X143769524Y-58617856D01*
X143721905Y-58808332D01*
X143721905Y-59046427D01*
X143769524Y-59236903D01*
X143817143Y-59332141D01*
X143864762Y-59379760D01*
X143960001Y-59427379D01*
X144055239Y-59427379D01*
X144150477Y-59379760D01*
X144198096Y-59332141D01*
X144245715Y-59236903D01*
X144293334Y-59046427D01*
X144293334Y-58808332D01*
X144245715Y-58617856D01*
X144198096Y-58522618D01*
X144150477Y-58474999D01*
X144055239Y-58427379D01*
X165059048Y-71842141D02*
X165106667Y-71889760D01*
X165249524Y-71937379D01*
X165344762Y-71937379D01*
X165487620Y-71889760D01*
X165582858Y-71794522D01*
X165630477Y-71699284D01*
X165678096Y-71508808D01*
X165678096Y-71365951D01*
X165630477Y-71175475D01*
X165582858Y-71080237D01*
X165487620Y-70984999D01*
X165344762Y-70937379D01*
X165249524Y-70937379D01*
X165106667Y-70984999D01*
X165059048Y-71032618D01*
X164106667Y-71937379D02*
X164678096Y-71937379D01*
X164392381Y-71937379D02*
X164392381Y-70937379D01*
X164487620Y-71080237D01*
X164582858Y-71175475D01*
X164678096Y-71223094D01*
X163154286Y-71937379D02*
X163725715Y-71937379D01*
X163440001Y-71937379D02*
X163440001Y-70937379D01*
X163535239Y-71080237D01*
X163630477Y-71175475D01*
X163725715Y-71223094D01*
X162201905Y-71937379D02*
X162773334Y-71937379D01*
X162487620Y-71937379D02*
X162487620Y-70937379D01*
X162582858Y-71080237D01*
X162678096Y-71175475D01*
X162773334Y-71223094D01*
X134549048Y-58082141D02*
X134596667Y-58129760D01*
X134739524Y-58177379D01*
X134834762Y-58177379D01*
X134977620Y-58129760D01*
X135072858Y-58034522D01*
X135120477Y-57939284D01*
X135168096Y-57748808D01*
X135168096Y-57605951D01*
X135120477Y-57415475D01*
X135072858Y-57320237D01*
X134977620Y-57224999D01*
X134834762Y-57177379D01*
X134739524Y-57177379D01*
X134596667Y-57224999D01*
X134549048Y-57272618D01*
X133596667Y-58177379D02*
X134168096Y-58177379D01*
X133882381Y-58177379D02*
X133882381Y-57177379D01*
X133977620Y-57320237D01*
X134072858Y-57415475D01*
X134168096Y-57463094D01*
X132644286Y-58177379D02*
X133215715Y-58177379D01*
X132930001Y-58177379D02*
X132930001Y-57177379D01*
X133025239Y-57320237D01*
X133120477Y-57415475D01*
X133215715Y-57463094D01*
X132263334Y-57272618D02*
X132215715Y-57224999D01*
X132120477Y-57177379D01*
X131882381Y-57177379D01*
X131787143Y-57224999D01*
X131739524Y-57272618D01*
X131691905Y-57367856D01*
X131691905Y-57463094D01*
X131739524Y-57605951D01*
X132310953Y-58177379D01*
X131691905Y-58177379D01*
X165819048Y-77732141D02*
X165866667Y-77779760D01*
X166009524Y-77827379D01*
X166104762Y-77827379D01*
X166247620Y-77779760D01*
X166342858Y-77684522D01*
X166390477Y-77589284D01*
X166438096Y-77398808D01*
X166438096Y-77255951D01*
X166390477Y-77065475D01*
X166342858Y-76970237D01*
X166247620Y-76874999D01*
X166104762Y-76827379D01*
X166009524Y-76827379D01*
X165866667Y-76874999D01*
X165819048Y-76922618D01*
X164866667Y-77827379D02*
X165438096Y-77827379D01*
X165152381Y-77827379D02*
X165152381Y-76827379D01*
X165247620Y-76970237D01*
X165342858Y-77065475D01*
X165438096Y-77113094D01*
X163914286Y-77827379D02*
X164485715Y-77827379D01*
X164200001Y-77827379D02*
X164200001Y-76827379D01*
X164295239Y-76970237D01*
X164390477Y-77065475D01*
X164485715Y-77113094D01*
X163580953Y-76827379D02*
X162961905Y-76827379D01*
X163295239Y-77208332D01*
X163152381Y-77208332D01*
X163057143Y-77255951D01*
X163009524Y-77303570D01*
X162961905Y-77398808D01*
X162961905Y-77636903D01*
X163009524Y-77732141D01*
X163057143Y-77779760D01*
X163152381Y-77827379D01*
X163438096Y-77827379D01*
X163533334Y-77779760D01*
X163580953Y-77732141D01*
X156849048Y-68322141D02*
X156896667Y-68369760D01*
X157039524Y-68417379D01*
X157134762Y-68417379D01*
X157277620Y-68369760D01*
X157372858Y-68274522D01*
X157420477Y-68179284D01*
X157468096Y-67988808D01*
X157468096Y-67845951D01*
X157420477Y-67655475D01*
X157372858Y-67560237D01*
X157277620Y-67464999D01*
X157134762Y-67417379D01*
X157039524Y-67417379D01*
X156896667Y-67464999D01*
X156849048Y-67512618D01*
X155896667Y-68417379D02*
X156468096Y-68417379D01*
X156182381Y-68417379D02*
X156182381Y-67417379D01*
X156277620Y-67560237D01*
X156372858Y-67655475D01*
X156468096Y-67703094D01*
X154944286Y-68417379D02*
X155515715Y-68417379D01*
X155230001Y-68417379D02*
X155230001Y-67417379D01*
X155325239Y-67560237D01*
X155420477Y-67655475D01*
X155515715Y-67703094D01*
X154087143Y-67750713D02*
X154087143Y-68417379D01*
X154325239Y-67369760D02*
X154563334Y-68084046D01*
X153944286Y-68084046D01*
X161049048Y-71842141D02*
X161096667Y-71889760D01*
X161239524Y-71937379D01*
X161334762Y-71937379D01*
X161477620Y-71889760D01*
X161572858Y-71794522D01*
X161620477Y-71699284D01*
X161668096Y-71508808D01*
X161668096Y-71365951D01*
X161620477Y-71175475D01*
X161572858Y-71080237D01*
X161477620Y-70984999D01*
X161334762Y-70937379D01*
X161239524Y-70937379D01*
X161096667Y-70984999D01*
X161049048Y-71032618D01*
X160096667Y-71937379D02*
X160668096Y-71937379D01*
X160382381Y-71937379D02*
X160382381Y-70937379D01*
X160477620Y-71080237D01*
X160572858Y-71175475D01*
X160668096Y-71223094D01*
X159144286Y-71937379D02*
X159715715Y-71937379D01*
X159430001Y-71937379D02*
X159430001Y-70937379D01*
X159525239Y-71080237D01*
X159620477Y-71175475D01*
X159715715Y-71223094D01*
X158239524Y-70937379D02*
X158715715Y-70937379D01*
X158763334Y-71413570D01*
X158715715Y-71365951D01*
X158620477Y-71318332D01*
X158382381Y-71318332D01*
X158287143Y-71365951D01*
X158239524Y-71413570D01*
X158191905Y-71508808D01*
X158191905Y-71746903D01*
X158239524Y-71842141D01*
X158287143Y-71889760D01*
X158382381Y-71937379D01*
X158620477Y-71937379D01*
X158715715Y-71889760D01*
X158763334Y-71842141D01*
X156849048Y-70832141D02*
X156896667Y-70879760D01*
X157039524Y-70927379D01*
X157134762Y-70927379D01*
X157277620Y-70879760D01*
X157372858Y-70784522D01*
X157420477Y-70689284D01*
X157468096Y-70498808D01*
X157468096Y-70355951D01*
X157420477Y-70165475D01*
X157372858Y-70070237D01*
X157277620Y-69974999D01*
X157134762Y-69927379D01*
X157039524Y-69927379D01*
X156896667Y-69974999D01*
X156849048Y-70022618D01*
X155896667Y-70927379D02*
X156468096Y-70927379D01*
X156182381Y-70927379D02*
X156182381Y-69927379D01*
X156277620Y-70070237D01*
X156372858Y-70165475D01*
X156468096Y-70213094D01*
X154944286Y-70927379D02*
X155515715Y-70927379D01*
X155230001Y-70927379D02*
X155230001Y-69927379D01*
X155325239Y-70070237D01*
X155420477Y-70165475D01*
X155515715Y-70213094D01*
X154087143Y-69927379D02*
X154277620Y-69927379D01*
X154372858Y-69974999D01*
X154420477Y-70022618D01*
X154515715Y-70165475D01*
X154563334Y-70355951D01*
X154563334Y-70736903D01*
X154515715Y-70832141D01*
X154468096Y-70879760D01*
X154372858Y-70927379D01*
X154182381Y-70927379D01*
X154087143Y-70879760D01*
X154039524Y-70832141D01*
X153991905Y-70736903D01*
X153991905Y-70498808D01*
X154039524Y-70403570D01*
X154087143Y-70355951D01*
X154182381Y-70308332D01*
X154372858Y-70308332D01*
X154468096Y-70355951D01*
X154515715Y-70403570D01*
X154563334Y-70498808D01*
X142569048Y-58392141D02*
X142616667Y-58439760D01*
X142759524Y-58487379D01*
X142854762Y-58487379D01*
X142997620Y-58439760D01*
X143092858Y-58344522D01*
X143140477Y-58249284D01*
X143188096Y-58058808D01*
X143188096Y-57915951D01*
X143140477Y-57725475D01*
X143092858Y-57630237D01*
X142997620Y-57534999D01*
X142854762Y-57487379D01*
X142759524Y-57487379D01*
X142616667Y-57534999D01*
X142569048Y-57582618D01*
X141616667Y-58487379D02*
X142188096Y-58487379D01*
X141902381Y-58487379D02*
X141902381Y-57487379D01*
X141997620Y-57630237D01*
X142092858Y-57725475D01*
X142188096Y-57773094D01*
X140664286Y-58487379D02*
X141235715Y-58487379D01*
X140950001Y-58487379D02*
X140950001Y-57487379D01*
X141045239Y-57630237D01*
X141140477Y-57725475D01*
X141235715Y-57773094D01*
X140330953Y-57487379D02*
X139664286Y-57487379D01*
X140092858Y-58487379D01*
X149269048Y-64352141D02*
X149316667Y-64399760D01*
X149459524Y-64447379D01*
X149554762Y-64447379D01*
X149697620Y-64399760D01*
X149792858Y-64304522D01*
X149840477Y-64209284D01*
X149888096Y-64018808D01*
X149888096Y-63875951D01*
X149840477Y-63685475D01*
X149792858Y-63590237D01*
X149697620Y-63494999D01*
X149554762Y-63447379D01*
X149459524Y-63447379D01*
X149316667Y-63494999D01*
X149269048Y-63542618D01*
X148316667Y-64447379D02*
X148888096Y-64447379D01*
X148602381Y-64447379D02*
X148602381Y-63447379D01*
X148697620Y-63590237D01*
X148792858Y-63685475D01*
X148888096Y-63733094D01*
X147364286Y-64447379D02*
X147935715Y-64447379D01*
X147650001Y-64447379D02*
X147650001Y-63447379D01*
X147745239Y-63590237D01*
X147840477Y-63685475D01*
X147935715Y-63733094D01*
X146792858Y-63875951D02*
X146888096Y-63828332D01*
X146935715Y-63780713D01*
X146983334Y-63685475D01*
X146983334Y-63637856D01*
X146935715Y-63542618D01*
X146888096Y-63494999D01*
X146792858Y-63447379D01*
X146602381Y-63447379D01*
X146507143Y-63494999D01*
X146459524Y-63542618D01*
X146411905Y-63637856D01*
X146411905Y-63685475D01*
X146459524Y-63780713D01*
X146507143Y-63828332D01*
X146602381Y-63875951D01*
X146792858Y-63875951D01*
X146888096Y-63923570D01*
X146935715Y-63971189D01*
X146983334Y-64066427D01*
X146983334Y-64256903D01*
X146935715Y-64352141D01*
X146888096Y-64399760D01*
X146792858Y-64447379D01*
X146602381Y-64447379D01*
X146507143Y-64399760D01*
X146459524Y-64352141D01*
X146411905Y-64256903D01*
X146411905Y-64066427D01*
X146459524Y-63971189D01*
X146507143Y-63923570D01*
X146602381Y-63875951D01*
X177089048Y-72242141D02*
X177136667Y-72289760D01*
X177279524Y-72337379D01*
X177374762Y-72337379D01*
X177517620Y-72289760D01*
X177612858Y-72194522D01*
X177660477Y-72099284D01*
X177708096Y-71908808D01*
X177708096Y-71765951D01*
X177660477Y-71575475D01*
X177612858Y-71480237D01*
X177517620Y-71384999D01*
X177374762Y-71337379D01*
X177279524Y-71337379D01*
X177136667Y-71384999D01*
X177089048Y-71432618D01*
X176136667Y-72337379D02*
X176708096Y-72337379D01*
X176422381Y-72337379D02*
X176422381Y-71337379D01*
X176517620Y-71480237D01*
X176612858Y-71575475D01*
X176708096Y-71623094D01*
X175184286Y-72337379D02*
X175755715Y-72337379D01*
X175470001Y-72337379D02*
X175470001Y-71337379D01*
X175565239Y-71480237D01*
X175660477Y-71575475D01*
X175755715Y-71623094D01*
X174708096Y-72337379D02*
X174517620Y-72337379D01*
X174422381Y-72289760D01*
X174374762Y-72242141D01*
X174279524Y-72099284D01*
X174231905Y-71908808D01*
X174231905Y-71527856D01*
X174279524Y-71432618D01*
X174327143Y-71384999D01*
X174422381Y-71337379D01*
X174612858Y-71337379D01*
X174708096Y-71384999D01*
X174755715Y-71432618D01*
X174803334Y-71527856D01*
X174803334Y-71765951D01*
X174755715Y-71861189D01*
X174708096Y-71908808D01*
X174612858Y-71956427D01*
X174422381Y-71956427D01*
X174327143Y-71908808D01*
X174279524Y-71861189D01*
X174231905Y-71765951D01*
X170402143Y-95605953D02*
X170449762Y-95558334D01*
X170497381Y-95415477D01*
X170497381Y-95320239D01*
X170449762Y-95177381D01*
X170354524Y-95082143D01*
X170259286Y-95034524D01*
X170068810Y-94986905D01*
X169925953Y-94986905D01*
X169735477Y-95034524D01*
X169640239Y-95082143D01*
X169545001Y-95177381D01*
X169497381Y-95320239D01*
X169497381Y-95415477D01*
X169545001Y-95558334D01*
X169592620Y-95605953D01*
X170497381Y-96558334D02*
X170497381Y-95986905D01*
X170497381Y-96272620D02*
X169497381Y-96272620D01*
X169640239Y-96177381D01*
X169735477Y-96082143D01*
X169783096Y-95986905D01*
X169497381Y-96891667D02*
X169497381Y-97510715D01*
X169878334Y-97177381D01*
X169878334Y-97320239D01*
X169925953Y-97415477D01*
X169973572Y-97463096D01*
X170068810Y-97510715D01*
X170306905Y-97510715D01*
X170402143Y-97463096D01*
X170449762Y-97415477D01*
X170497381Y-97320239D01*
X170497381Y-97034524D01*
X170449762Y-96939286D01*
X170402143Y-96891667D01*
X169830715Y-98367858D02*
X170497381Y-98367858D01*
X169449762Y-98129762D02*
X170164048Y-97891667D01*
X170164048Y-98510715D01*
X164552143Y-105495953D02*
X164599762Y-105448334D01*
X164647381Y-105305477D01*
X164647381Y-105210239D01*
X164599762Y-105067381D01*
X164504524Y-104972143D01*
X164409286Y-104924524D01*
X164218810Y-104876905D01*
X164075953Y-104876905D01*
X163885477Y-104924524D01*
X163790239Y-104972143D01*
X163695001Y-105067381D01*
X163647381Y-105210239D01*
X163647381Y-105305477D01*
X163695001Y-105448334D01*
X163742620Y-105495953D01*
X164647381Y-106448334D02*
X164647381Y-105876905D01*
X164647381Y-106162620D02*
X163647381Y-106162620D01*
X163790239Y-106067381D01*
X163885477Y-105972143D01*
X163933096Y-105876905D01*
X163647381Y-106781667D02*
X163647381Y-107400715D01*
X164028334Y-107067381D01*
X164028334Y-107210239D01*
X164075953Y-107305477D01*
X164123572Y-107353096D01*
X164218810Y-107400715D01*
X164456905Y-107400715D01*
X164552143Y-107353096D01*
X164599762Y-107305477D01*
X164647381Y-107210239D01*
X164647381Y-106924524D01*
X164599762Y-106829286D01*
X164552143Y-106781667D01*
X163647381Y-108305477D02*
X163647381Y-107829286D01*
X164123572Y-107781667D01*
X164075953Y-107829286D01*
X164028334Y-107924524D01*
X164028334Y-108162620D01*
X164075953Y-108257858D01*
X164123572Y-108305477D01*
X164218810Y-108353096D01*
X164456905Y-108353096D01*
X164552143Y-108305477D01*
X164599762Y-108257858D01*
X164647381Y-108162620D01*
X164647381Y-107924524D01*
X164599762Y-107829286D01*
X164552143Y-107781667D01*
X164552143Y-95605953D02*
X164599762Y-95558334D01*
X164647381Y-95415477D01*
X164647381Y-95320239D01*
X164599762Y-95177381D01*
X164504524Y-95082143D01*
X164409286Y-95034524D01*
X164218810Y-94986905D01*
X164075953Y-94986905D01*
X163885477Y-95034524D01*
X163790239Y-95082143D01*
X163695001Y-95177381D01*
X163647381Y-95320239D01*
X163647381Y-95415477D01*
X163695001Y-95558334D01*
X163742620Y-95605953D01*
X164647381Y-96558334D02*
X164647381Y-95986905D01*
X164647381Y-96272620D02*
X163647381Y-96272620D01*
X163790239Y-96177381D01*
X163885477Y-96082143D01*
X163933096Y-95986905D01*
X163647381Y-96891667D02*
X163647381Y-97510715D01*
X164028334Y-97177381D01*
X164028334Y-97320239D01*
X164075953Y-97415477D01*
X164123572Y-97463096D01*
X164218810Y-97510715D01*
X164456905Y-97510715D01*
X164552143Y-97463096D01*
X164599762Y-97415477D01*
X164647381Y-97320239D01*
X164647381Y-97034524D01*
X164599762Y-96939286D01*
X164552143Y-96891667D01*
X163647381Y-98367858D02*
X163647381Y-98177381D01*
X163695001Y-98082143D01*
X163742620Y-98034524D01*
X163885477Y-97939286D01*
X164075953Y-97891667D01*
X164456905Y-97891667D01*
X164552143Y-97939286D01*
X164599762Y-97986905D01*
X164647381Y-98082143D01*
X164647381Y-98272620D01*
X164599762Y-98367858D01*
X164552143Y-98415477D01*
X164456905Y-98463096D01*
X164218810Y-98463096D01*
X164123572Y-98415477D01*
X164075953Y-98367858D01*
X164028334Y-98272620D01*
X164028334Y-98082143D01*
X164075953Y-97986905D01*
X164123572Y-97939286D01*
X164218810Y-97891667D01*
X147988096Y-69047379D02*
X147988096Y-68047379D01*
X147750001Y-68047379D01*
X147607143Y-68094999D01*
X147511905Y-68190237D01*
X147464286Y-68285475D01*
X147416667Y-68475951D01*
X147416667Y-68618808D01*
X147464286Y-68809284D01*
X147511905Y-68904522D01*
X147607143Y-68999760D01*
X147750001Y-69047379D01*
X147988096Y-69047379D01*
X146559524Y-68380713D02*
X146559524Y-69047379D01*
X146797620Y-67999760D02*
X147035715Y-68714046D01*
X146416667Y-68714046D01*
X142958096Y-68937379D02*
X142958096Y-67937379D01*
X142720001Y-67937379D01*
X142577143Y-67984999D01*
X142481905Y-68080237D01*
X142434286Y-68175475D01*
X142386667Y-68365951D01*
X142386667Y-68508808D01*
X142434286Y-68699284D01*
X142481905Y-68794522D01*
X142577143Y-68889760D01*
X142720001Y-68937379D01*
X142958096Y-68937379D01*
X141481905Y-67937379D02*
X141958096Y-67937379D01*
X142005715Y-68413570D01*
X141958096Y-68365951D01*
X141862858Y-68318332D01*
X141624762Y-68318332D01*
X141529524Y-68365951D01*
X141481905Y-68413570D01*
X141434286Y-68508808D01*
X141434286Y-68746903D01*
X141481905Y-68842141D01*
X141529524Y-68889760D01*
X141624762Y-68937379D01*
X141862858Y-68937379D01*
X141958096Y-68889760D01*
X142005715Y-68842141D01*
X151408096Y-76887379D02*
X151408096Y-75887379D01*
X151170001Y-75887379D01*
X151027143Y-75934999D01*
X150931905Y-76030237D01*
X150884286Y-76125475D01*
X150836667Y-76315951D01*
X150836667Y-76458808D01*
X150884286Y-76649284D01*
X150931905Y-76744522D01*
X151027143Y-76839760D01*
X151170001Y-76887379D01*
X151408096Y-76887379D01*
X149979524Y-75887379D02*
X150170001Y-75887379D01*
X150265239Y-75934999D01*
X150312858Y-75982618D01*
X150408096Y-76125475D01*
X150455715Y-76315951D01*
X150455715Y-76696903D01*
X150408096Y-76792141D01*
X150360477Y-76839760D01*
X150265239Y-76887379D01*
X150074762Y-76887379D01*
X149979524Y-76839760D01*
X149931905Y-76792141D01*
X149884286Y-76696903D01*
X149884286Y-76458808D01*
X149931905Y-76363570D01*
X149979524Y-76315951D01*
X150074762Y-76268332D01*
X150265239Y-76268332D01*
X150360477Y-76315951D01*
X150408096Y-76363570D01*
X150455715Y-76458808D01*
X128973096Y-57487379D02*
X128973096Y-56487379D01*
X128735001Y-56487379D01*
X128592143Y-56534999D01*
X128496905Y-56630237D01*
X128449286Y-56725475D01*
X128401667Y-56915951D01*
X128401667Y-57058808D01*
X128449286Y-57249284D01*
X128496905Y-57344522D01*
X128592143Y-57439760D01*
X128735001Y-57487379D01*
X128973096Y-57487379D01*
X128068334Y-56487379D02*
X127401667Y-56487379D01*
X127830239Y-57487379D01*
X161208096Y-84937379D02*
X161208096Y-83937379D01*
X160970001Y-83937379D01*
X160827143Y-83984999D01*
X160731905Y-84080237D01*
X160684286Y-84175475D01*
X160636667Y-84365951D01*
X160636667Y-84508808D01*
X160684286Y-84699284D01*
X160731905Y-84794522D01*
X160827143Y-84889760D01*
X160970001Y-84937379D01*
X161208096Y-84937379D01*
X160065239Y-84365951D02*
X160160477Y-84318332D01*
X160208096Y-84270713D01*
X160255715Y-84175475D01*
X160255715Y-84127856D01*
X160208096Y-84032618D01*
X160160477Y-83984999D01*
X160065239Y-83937379D01*
X159874762Y-83937379D01*
X159779524Y-83984999D01*
X159731905Y-84032618D01*
X159684286Y-84127856D01*
X159684286Y-84175475D01*
X159731905Y-84270713D01*
X159779524Y-84318332D01*
X159874762Y-84365951D01*
X160065239Y-84365951D01*
X160160477Y-84413570D01*
X160208096Y-84461189D01*
X160255715Y-84556427D01*
X160255715Y-84746903D01*
X160208096Y-84842141D01*
X160160477Y-84889760D01*
X160065239Y-84937379D01*
X159874762Y-84937379D01*
X159779524Y-84889760D01*
X159731905Y-84842141D01*
X159684286Y-84746903D01*
X159684286Y-84556427D01*
X159731905Y-84461189D01*
X159779524Y-84413570D01*
X159874762Y-84365951D01*
X175633332Y-120377380D02*
X175633332Y-121091666D01*
X175680951Y-121234523D01*
X175776189Y-121329761D01*
X175919046Y-121377380D01*
X176014284Y-121377380D01*
X174633332Y-121377380D02*
X175204760Y-121377380D01*
X174919046Y-121377380D02*
X174919046Y-120377380D01*
X175014284Y-120520238D01*
X175109522Y-120615476D01*
X175204760Y-120663095D01*
X181728570Y-121377380D02*
X182299999Y-121377380D01*
X182014284Y-121377380D02*
X182014284Y-120377380D01*
X182109522Y-120520238D01*
X182204760Y-120615476D01*
X182299999Y-120663095D01*
X181109522Y-120377380D02*
X181014284Y-120377380D01*
X180919046Y-120425000D01*
X180871427Y-120472619D01*
X180823808Y-120567857D01*
X180776189Y-120758333D01*
X180776189Y-120996428D01*
X180823808Y-121186904D01*
X180871427Y-121282142D01*
X180919046Y-121329761D01*
X181014284Y-121377380D01*
X181109522Y-121377380D01*
X181204760Y-121329761D01*
X181252379Y-121282142D01*
X181299999Y-121186904D01*
X181347618Y-120996428D01*
X181347618Y-120758333D01*
X181299999Y-120567857D01*
X181252379Y-120472619D01*
X181204760Y-120425000D01*
X181109522Y-120377380D01*
X180157141Y-120377380D02*
X180061903Y-120377380D01*
X179966665Y-120425000D01*
X179919046Y-120472619D01*
X179871427Y-120567857D01*
X179823808Y-120758333D01*
X179823808Y-120996428D01*
X179871427Y-121186904D01*
X179919046Y-121282142D01*
X179966665Y-121329761D01*
X180061903Y-121377380D01*
X180157141Y-121377380D01*
X180252379Y-121329761D01*
X180299999Y-121282142D01*
X180347618Y-121186904D01*
X180395237Y-120996428D01*
X180395237Y-120758333D01*
X180347618Y-120567857D01*
X180299999Y-120472619D01*
X180252379Y-120425000D01*
X180157141Y-120377380D01*
X179442856Y-120472619D02*
X179395237Y-120425000D01*
X179299999Y-120377380D01*
X179061903Y-120377380D01*
X178966665Y-120425000D01*
X178919046Y-120472619D01*
X178871427Y-120567857D01*
X178871427Y-120663095D01*
X178919046Y-120805952D01*
X179490475Y-121377380D01*
X178871427Y-121377380D01*
X178395237Y-121377380D02*
X178204760Y-121377380D01*
X178109522Y-121329761D01*
X178061903Y-121282142D01*
X177966665Y-121139285D01*
X177919046Y-120948809D01*
X177919046Y-120567857D01*
X177966665Y-120472619D01*
X178014284Y-120425000D01*
X178109522Y-120377380D01*
X178299999Y-120377380D01*
X178395237Y-120425000D01*
X178442856Y-120472619D01*
X178490475Y-120567857D01*
X178490475Y-120805952D01*
X178442856Y-120901190D01*
X178395237Y-120948809D01*
X178299999Y-120996428D01*
X178109522Y-120996428D01*
X178014284Y-120948809D01*
X177966665Y-120901190D01*
X177919046Y-120805952D01*
X177061903Y-120710714D02*
X177061903Y-121377380D01*
X177299999Y-120329761D02*
X177538094Y-121044047D01*
X176919046Y-121044047D01*
X176109522Y-120710714D02*
X176109522Y-121377380D01*
X176347618Y-120329761D02*
X176585713Y-121044047D01*
X175966665Y-121044047D01*
X175538094Y-121377380D02*
X175347618Y-121377380D01*
X175252379Y-121329761D01*
X175204760Y-121282142D01*
X175109522Y-121139285D01*
X175061903Y-120948809D01*
X175061903Y-120567857D01*
X175109522Y-120472619D01*
X175157141Y-120425000D01*
X175252379Y-120377380D01*
X175442856Y-120377380D01*
X175538094Y-120425000D01*
X175585713Y-120472619D01*
X175633332Y-120567857D01*
X175633332Y-120805952D01*
X175585713Y-120901190D01*
X175538094Y-120948809D01*
X175442856Y-120996428D01*
X175252379Y-120996428D01*
X175157141Y-120948809D01*
X175109522Y-120901190D01*
X175061903Y-120805952D01*
X174633332Y-120996428D02*
X173871427Y-120996428D01*
X172871427Y-121377380D02*
X173442856Y-121377380D01*
X173157141Y-121377380D02*
X173157141Y-120377380D01*
X173252379Y-120520238D01*
X173347618Y-120615476D01*
X173442856Y-120663095D01*
X171919046Y-121377380D02*
X172490475Y-121377380D01*
X172204760Y-121377380D02*
X172204760Y-120377380D01*
X172299999Y-120520238D01*
X172395237Y-120615476D01*
X172490475Y-120663095D01*
X170966665Y-121377380D02*
X171538094Y-121377380D01*
X171252379Y-121377380D02*
X171252379Y-120377380D01*
X171347618Y-120520238D01*
X171442856Y-120615476D01*
X171538094Y-120663095D01*
X169966665Y-121377380D02*
X170299999Y-120901190D01*
X170538094Y-121377380D02*
X170538094Y-120377380D01*
X170157141Y-120377380D01*
X170061903Y-120425000D01*
X170014284Y-120472619D01*
X169966665Y-120567857D01*
X169966665Y-120710714D01*
X170014284Y-120805952D01*
X170061903Y-120853571D01*
X170157141Y-120901190D01*
X170538094Y-120901190D01*
X169061903Y-121377380D02*
X169538094Y-121377380D01*
X169538094Y-120377380D01*
X168395237Y-120853571D02*
X168728570Y-120853571D01*
X168728570Y-121377380D02*
X168728570Y-120377380D01*
X168252379Y-120377380D01*
X179800000Y-120377380D02*
X179800000Y-120615476D01*
X180038095Y-120520238D02*
X179800000Y-120615476D01*
X179561904Y-120520238D01*
X179942857Y-120805952D02*
X179800000Y-120615476D01*
X179657142Y-120805952D01*
X151833333Y-48477380D02*
X151833333Y-49191666D01*
X151880952Y-49334523D01*
X151976190Y-49429761D01*
X152119047Y-49477380D01*
X152214285Y-49477380D01*
X150928571Y-48810714D02*
X150928571Y-49477380D01*
X151166666Y-48429761D02*
X151404761Y-49144047D01*
X150785714Y-49144047D01*
X156238095Y-49429761D02*
X156095238Y-49477380D01*
X155857142Y-49477380D01*
X155761904Y-49429761D01*
X155714285Y-49382142D01*
X155666666Y-49286904D01*
X155666666Y-49191666D01*
X155714285Y-49096428D01*
X155761904Y-49048809D01*
X155857142Y-49001190D01*
X156047619Y-48953571D01*
X156142857Y-48905952D01*
X156190476Y-48858333D01*
X156238095Y-48763095D01*
X156238095Y-48667857D01*
X156190476Y-48572619D01*
X156142857Y-48525000D01*
X156047619Y-48477380D01*
X155809523Y-48477380D01*
X155666666Y-48525000D01*
X155047619Y-48477380D02*
X154857142Y-48477380D01*
X154761904Y-48525000D01*
X154666666Y-48620238D01*
X154619047Y-48810714D01*
X154619047Y-49144047D01*
X154666666Y-49334523D01*
X154761904Y-49429761D01*
X154857142Y-49477380D01*
X155047619Y-49477380D01*
X155142857Y-49429761D01*
X155238095Y-49334523D01*
X155285714Y-49144047D01*
X155285714Y-48810714D01*
X155238095Y-48620238D01*
X155142857Y-48525000D01*
X155047619Y-48477380D01*
X154190476Y-49477380D02*
X154190476Y-48477380D01*
X153952380Y-48477380D01*
X153809523Y-48525000D01*
X153714285Y-48620238D01*
X153666666Y-48715476D01*
X153619047Y-48905952D01*
X153619047Y-49048809D01*
X153666666Y-49239285D01*
X153714285Y-49334523D01*
X153809523Y-49429761D01*
X153952380Y-49477380D01*
X154190476Y-49477380D01*
X153190476Y-49477380D02*
X153190476Y-48477380D01*
X152714285Y-49477380D02*
X152714285Y-48477380D01*
X152380952Y-49191666D01*
X152047619Y-48477380D01*
X152047619Y-49477380D01*
X151571428Y-49477380D02*
X151571428Y-48477380D01*
X151238095Y-49191666D01*
X150904761Y-48477380D01*
X150904761Y-49477380D01*
X150428571Y-49096428D02*
X149666666Y-49096428D01*
X149238095Y-48572619D02*
X149190476Y-48525000D01*
X149095238Y-48477380D01*
X148857142Y-48477380D01*
X148761904Y-48525000D01*
X148714285Y-48572619D01*
X148666666Y-48667857D01*
X148666666Y-48763095D01*
X148714285Y-48905952D01*
X149285714Y-49477380D01*
X148666666Y-49477380D01*
X148047619Y-48477380D02*
X147952380Y-48477380D01*
X147857142Y-48525000D01*
X147809523Y-48572619D01*
X147761904Y-48667857D01*
X147714285Y-48858333D01*
X147714285Y-49096428D01*
X147761904Y-49286904D01*
X147809523Y-49382142D01*
X147857142Y-49429761D01*
X147952380Y-49477380D01*
X148047619Y-49477380D01*
X148142857Y-49429761D01*
X148190476Y-49382142D01*
X148238095Y-49286904D01*
X148285714Y-49096428D01*
X148285714Y-48858333D01*
X148238095Y-48667857D01*
X148190476Y-48572619D01*
X148142857Y-48525000D01*
X148047619Y-48477380D01*
X147095238Y-48477380D02*
X147000000Y-48477380D01*
X146904761Y-48525000D01*
X146857142Y-48572619D01*
X146809523Y-48667857D01*
X146761904Y-48858333D01*
X146761904Y-49096428D01*
X146809523Y-49286904D01*
X146857142Y-49382142D01*
X146904761Y-49429761D01*
X147000000Y-49477380D01*
X147095238Y-49477380D01*
X147190476Y-49429761D01*
X147238095Y-49382142D01*
X147285714Y-49286904D01*
X147333333Y-49096428D01*
X147333333Y-48858333D01*
X147285714Y-48667857D01*
X147238095Y-48572619D01*
X147190476Y-48525000D01*
X147095238Y-48477380D01*
X151500000Y-48477380D02*
X151500000Y-48715476D01*
X151738095Y-48620238D02*
X151500000Y-48715476D01*
X151261904Y-48620238D01*
X151642857Y-48905952D02*
X151500000Y-48715476D01*
X151357142Y-48905952D01*
X144803334Y-63297379D02*
X144803334Y-64011665D01*
X144850953Y-64154522D01*
X144946191Y-64249760D01*
X145089048Y-64297379D01*
X145184286Y-64297379D01*
X144327143Y-64297379D02*
X144327143Y-63297379D01*
X143946191Y-63297379D01*
X143850953Y-63344999D01*
X143803334Y-63392618D01*
X143755715Y-63487856D01*
X143755715Y-63630713D01*
X143803334Y-63725951D01*
X143850953Y-63773570D01*
X143946191Y-63821189D01*
X144327143Y-63821189D01*
X142803334Y-64297379D02*
X143374762Y-64297379D01*
X143089048Y-64297379D02*
X143089048Y-63297379D01*
X143184286Y-63440237D01*
X143279524Y-63535475D01*
X143374762Y-63583094D01*
X170322380Y-112670833D02*
X170322380Y-112194642D01*
X169322380Y-112194642D01*
X169417619Y-112956547D02*
X169370000Y-113004166D01*
X169322380Y-113099404D01*
X169322380Y-113337500D01*
X169370000Y-113432738D01*
X169417619Y-113480357D01*
X169512857Y-113527976D01*
X169608095Y-113527976D01*
X169750952Y-113480357D01*
X170322380Y-112908928D01*
X170322380Y-113527976D01*
X138082858Y-58177379D02*
X138559048Y-58177379D01*
X138559048Y-57177379D01*
X137225715Y-58177379D02*
X137797143Y-58177379D01*
X137511429Y-58177379D02*
X137511429Y-57177379D01*
X137606667Y-57320237D01*
X137701905Y-57415475D01*
X137797143Y-57463094D01*
X136368572Y-57177379D02*
X136559048Y-57177379D01*
X136654286Y-57224999D01*
X136701905Y-57272618D01*
X136797143Y-57415475D01*
X136844762Y-57605951D01*
X136844762Y-57986903D01*
X136797143Y-58082141D01*
X136749524Y-58129760D01*
X136654286Y-58177379D01*
X136463810Y-58177379D01*
X136368572Y-58129760D01*
X136320953Y-58082141D01*
X136273334Y-57986903D01*
X136273334Y-57748808D01*
X136320953Y-57653570D01*
X136368572Y-57605951D01*
X136463810Y-57558332D01*
X136654286Y-57558332D01*
X136749524Y-57605951D01*
X136797143Y-57653570D01*
X136844762Y-57748808D01*
X155795239Y-75622618D02*
X155890477Y-75574999D01*
X155985715Y-75479760D01*
X156128572Y-75336903D01*
X156223810Y-75289284D01*
X156319048Y-75289284D01*
X156271429Y-75527379D02*
X156366667Y-75479760D01*
X156461905Y-75384522D01*
X156509524Y-75194046D01*
X156509524Y-74860713D01*
X156461905Y-74670237D01*
X156366667Y-74574999D01*
X156271429Y-74527379D01*
X156080953Y-74527379D01*
X155985715Y-74574999D01*
X155890477Y-74670237D01*
X155842858Y-74860713D01*
X155842858Y-75194046D01*
X155890477Y-75384522D01*
X155985715Y-75479760D01*
X156080953Y-75527379D01*
X156271429Y-75527379D01*
X154890477Y-75527379D02*
X155461905Y-75527379D01*
X155176191Y-75527379D02*
X155176191Y-74527379D01*
X155271429Y-74670237D01*
X155366667Y-74765475D01*
X155461905Y-74813094D01*
X165015239Y-85032618D02*
X165110477Y-84984999D01*
X165205715Y-84889760D01*
X165348572Y-84746903D01*
X165443810Y-84699284D01*
X165539048Y-84699284D01*
X165491429Y-84937379D02*
X165586667Y-84889760D01*
X165681905Y-84794522D01*
X165729524Y-84604046D01*
X165729524Y-84270713D01*
X165681905Y-84080237D01*
X165586667Y-83984999D01*
X165491429Y-83937379D01*
X165300953Y-83937379D01*
X165205715Y-83984999D01*
X165110477Y-84080237D01*
X165062858Y-84270713D01*
X165062858Y-84604046D01*
X165110477Y-84794522D01*
X165205715Y-84889760D01*
X165300953Y-84937379D01*
X165491429Y-84937379D01*
X164681905Y-84032618D02*
X164634286Y-83984999D01*
X164539048Y-83937379D01*
X164300953Y-83937379D01*
X164205715Y-83984999D01*
X164158096Y-84032618D01*
X164110477Y-84127856D01*
X164110477Y-84223094D01*
X164158096Y-84365951D01*
X164729524Y-84937379D01*
X164110477Y-84937379D01*
X160565239Y-80482618D02*
X160660477Y-80434999D01*
X160755715Y-80339760D01*
X160898572Y-80196903D01*
X160993810Y-80149284D01*
X161089048Y-80149284D01*
X161041429Y-80387379D02*
X161136667Y-80339760D01*
X161231905Y-80244522D01*
X161279524Y-80054046D01*
X161279524Y-79720713D01*
X161231905Y-79530237D01*
X161136667Y-79434999D01*
X161041429Y-79387379D01*
X160850953Y-79387379D01*
X160755715Y-79434999D01*
X160660477Y-79530237D01*
X160612858Y-79720713D01*
X160612858Y-80054046D01*
X160660477Y-80244522D01*
X160755715Y-80339760D01*
X160850953Y-80387379D01*
X161041429Y-80387379D01*
X160279524Y-79387379D02*
X159660477Y-79387379D01*
X159993810Y-79768332D01*
X159850953Y-79768332D01*
X159755715Y-79815951D01*
X159708096Y-79863570D01*
X159660477Y-79958808D01*
X159660477Y-80196903D01*
X159708096Y-80292141D01*
X159755715Y-80339760D01*
X159850953Y-80387379D01*
X160136667Y-80387379D01*
X160231905Y-80339760D01*
X160279524Y-80292141D01*
X139665239Y-63182618D02*
X139760477Y-63134999D01*
X139855715Y-63039760D01*
X139998572Y-62896903D01*
X140093810Y-62849284D01*
X140189048Y-62849284D01*
X140141429Y-63087379D02*
X140236667Y-63039760D01*
X140331905Y-62944522D01*
X140379524Y-62754046D01*
X140379524Y-62420713D01*
X140331905Y-62230237D01*
X140236667Y-62134999D01*
X140141429Y-62087379D01*
X139950953Y-62087379D01*
X139855715Y-62134999D01*
X139760477Y-62230237D01*
X139712858Y-62420713D01*
X139712858Y-62754046D01*
X139760477Y-62944522D01*
X139855715Y-63039760D01*
X139950953Y-63087379D01*
X140141429Y-63087379D01*
X138855715Y-62420713D02*
X138855715Y-63087379D01*
X139093810Y-62039760D02*
X139331905Y-62754046D01*
X138712858Y-62754046D01*
X150145239Y-73692618D02*
X150240477Y-73644999D01*
X150335715Y-73549760D01*
X150478572Y-73406903D01*
X150573810Y-73359284D01*
X150669048Y-73359284D01*
X150621429Y-73597379D02*
X150716667Y-73549760D01*
X150811905Y-73454522D01*
X150859524Y-73264046D01*
X150859524Y-72930713D01*
X150811905Y-72740237D01*
X150716667Y-72644999D01*
X150621429Y-72597379D01*
X150430953Y-72597379D01*
X150335715Y-72644999D01*
X150240477Y-72740237D01*
X150192858Y-72930713D01*
X150192858Y-73264046D01*
X150240477Y-73454522D01*
X150335715Y-73549760D01*
X150430953Y-73597379D01*
X150621429Y-73597379D01*
X149288096Y-72597379D02*
X149764286Y-72597379D01*
X149811905Y-73073570D01*
X149764286Y-73025951D01*
X149669048Y-72978332D01*
X149430953Y-72978332D01*
X149335715Y-73025951D01*
X149288096Y-73073570D01*
X149240477Y-73168808D01*
X149240477Y-73406903D01*
X149288096Y-73502141D01*
X149335715Y-73549760D01*
X149430953Y-73597379D01*
X149669048Y-73597379D01*
X149764286Y-73549760D01*
X149811905Y-73502141D01*
X155795239Y-80172618D02*
X155890477Y-80124999D01*
X155985715Y-80029760D01*
X156128572Y-79886903D01*
X156223810Y-79839284D01*
X156319048Y-79839284D01*
X156271429Y-80077379D02*
X156366667Y-80029760D01*
X156461905Y-79934522D01*
X156509524Y-79744046D01*
X156509524Y-79410713D01*
X156461905Y-79220237D01*
X156366667Y-79124999D01*
X156271429Y-79077379D01*
X156080953Y-79077379D01*
X155985715Y-79124999D01*
X155890477Y-79220237D01*
X155842858Y-79410713D01*
X155842858Y-79744046D01*
X155890477Y-79934522D01*
X155985715Y-80029760D01*
X156080953Y-80077379D01*
X156271429Y-80077379D01*
X154985715Y-79077379D02*
X155176191Y-79077379D01*
X155271429Y-79124999D01*
X155319048Y-79172618D01*
X155414286Y-79315475D01*
X155461905Y-79505951D01*
X155461905Y-79886903D01*
X155414286Y-79982141D01*
X155366667Y-80029760D01*
X155271429Y-80077379D01*
X155080953Y-80077379D01*
X154985715Y-80029760D01*
X154938096Y-79982141D01*
X154890477Y-79886903D01*
X154890477Y-79648808D01*
X154938096Y-79553570D01*
X154985715Y-79505951D01*
X155080953Y-79458332D01*
X155271429Y-79458332D01*
X155366667Y-79505951D01*
X155414286Y-79553570D01*
X155461905Y-79648808D01*
X160145239Y-75782618D02*
X160240477Y-75734999D01*
X160335715Y-75639760D01*
X160478572Y-75496903D01*
X160573810Y-75449284D01*
X160669048Y-75449284D01*
X160621429Y-75687379D02*
X160716667Y-75639760D01*
X160811905Y-75544522D01*
X160859524Y-75354046D01*
X160859524Y-75020713D01*
X160811905Y-74830237D01*
X160716667Y-74734999D01*
X160621429Y-74687379D01*
X160430953Y-74687379D01*
X160335715Y-74734999D01*
X160240477Y-74830237D01*
X160192858Y-75020713D01*
X160192858Y-75354046D01*
X160240477Y-75544522D01*
X160335715Y-75639760D01*
X160430953Y-75687379D01*
X160621429Y-75687379D01*
X159859524Y-74687379D02*
X159192858Y-74687379D01*
X159621429Y-75687379D01*
X151695239Y-68992618D02*
X151790477Y-68944999D01*
X151885715Y-68849760D01*
X152028572Y-68706903D01*
X152123810Y-68659284D01*
X152219048Y-68659284D01*
X152171429Y-68897379D02*
X152266667Y-68849760D01*
X152361905Y-68754522D01*
X152409524Y-68564046D01*
X152409524Y-68230713D01*
X152361905Y-68040237D01*
X152266667Y-67944999D01*
X152171429Y-67897379D01*
X151980953Y-67897379D01*
X151885715Y-67944999D01*
X151790477Y-68040237D01*
X151742858Y-68230713D01*
X151742858Y-68564046D01*
X151790477Y-68754522D01*
X151885715Y-68849760D01*
X151980953Y-68897379D01*
X152171429Y-68897379D01*
X151171429Y-68325951D02*
X151266667Y-68278332D01*
X151314286Y-68230713D01*
X151361905Y-68135475D01*
X151361905Y-68087856D01*
X151314286Y-67992618D01*
X151266667Y-67944999D01*
X151171429Y-67897379D01*
X150980953Y-67897379D01*
X150885715Y-67944999D01*
X150838096Y-67992618D01*
X150790477Y-68087856D01*
X150790477Y-68135475D01*
X150838096Y-68230713D01*
X150885715Y-68278332D01*
X150980953Y-68325951D01*
X151171429Y-68325951D01*
X151266667Y-68373570D01*
X151314286Y-68421189D01*
X151361905Y-68516427D01*
X151361905Y-68706903D01*
X151314286Y-68802141D01*
X151266667Y-68849760D01*
X151171429Y-68897379D01*
X150980953Y-68897379D01*
X150885715Y-68849760D01*
X150838096Y-68802141D01*
X150790477Y-68706903D01*
X150790477Y-68516427D01*
X150838096Y-68421189D01*
X150885715Y-68373570D01*
X150980953Y-68325951D01*
X174255357Y-110907380D02*
X174588690Y-110431190D01*
X174826785Y-110907380D02*
X174826785Y-109907380D01*
X174445833Y-109907380D01*
X174350595Y-109955000D01*
X174302976Y-110002619D01*
X174255357Y-110097857D01*
X174255357Y-110240714D01*
X174302976Y-110335952D01*
X174350595Y-110383571D01*
X174445833Y-110431190D01*
X174826785Y-110431190D01*
X173398214Y-109907380D02*
X173588690Y-109907380D01*
X173683928Y-109955000D01*
X173731547Y-110002619D01*
X173826785Y-110145476D01*
X173874404Y-110335952D01*
X173874404Y-110716904D01*
X173826785Y-110812142D01*
X173779166Y-110859761D01*
X173683928Y-110907380D01*
X173493452Y-110907380D01*
X173398214Y-110859761D01*
X173350595Y-110812142D01*
X173302976Y-110716904D01*
X173302976Y-110478809D01*
X173350595Y-110383571D01*
X173398214Y-110335952D01*
X173493452Y-110288333D01*
X173683928Y-110288333D01*
X173779166Y-110335952D01*
X173826785Y-110383571D01*
X173874404Y-110478809D01*
X172969642Y-109907380D02*
X172350595Y-109907380D01*
X172683928Y-110288333D01*
X172541071Y-110288333D01*
X172445833Y-110335952D01*
X172398214Y-110383571D01*
X172350595Y-110478809D01*
X172350595Y-110716904D01*
X172398214Y-110812142D01*
X172445833Y-110859761D01*
X172541071Y-110907380D01*
X172826785Y-110907380D01*
X172922023Y-110859761D01*
X172969642Y-110812142D01*
X174230357Y-109407380D02*
X174563690Y-108931190D01*
X174801785Y-109407380D02*
X174801785Y-108407380D01*
X174420833Y-108407380D01*
X174325595Y-108455000D01*
X174277976Y-108502619D01*
X174230357Y-108597857D01*
X174230357Y-108740714D01*
X174277976Y-108835952D01*
X174325595Y-108883571D01*
X174420833Y-108931190D01*
X174801785Y-108931190D01*
X173373214Y-108407380D02*
X173563690Y-108407380D01*
X173658928Y-108455000D01*
X173706547Y-108502619D01*
X173801785Y-108645476D01*
X173849404Y-108835952D01*
X173849404Y-109216904D01*
X173801785Y-109312142D01*
X173754166Y-109359761D01*
X173658928Y-109407380D01*
X173468452Y-109407380D01*
X173373214Y-109359761D01*
X173325595Y-109312142D01*
X173277976Y-109216904D01*
X173277976Y-108978809D01*
X173325595Y-108883571D01*
X173373214Y-108835952D01*
X173468452Y-108788333D01*
X173658928Y-108788333D01*
X173754166Y-108835952D01*
X173801785Y-108883571D01*
X173849404Y-108978809D01*
X172420833Y-108740714D02*
X172420833Y-109407380D01*
X172658928Y-108359761D02*
X172897023Y-109074047D01*
X172277976Y-109074047D01*
X174255357Y-112407380D02*
X174588690Y-111931190D01*
X174826785Y-112407380D02*
X174826785Y-111407380D01*
X174445833Y-111407380D01*
X174350595Y-111455000D01*
X174302976Y-111502619D01*
X174255357Y-111597857D01*
X174255357Y-111740714D01*
X174302976Y-111835952D01*
X174350595Y-111883571D01*
X174445833Y-111931190D01*
X174826785Y-111931190D01*
X173398214Y-111407380D02*
X173588690Y-111407380D01*
X173683928Y-111455000D01*
X173731547Y-111502619D01*
X173826785Y-111645476D01*
X173874404Y-111835952D01*
X173874404Y-112216904D01*
X173826785Y-112312142D01*
X173779166Y-112359761D01*
X173683928Y-112407380D01*
X173493452Y-112407380D01*
X173398214Y-112359761D01*
X173350595Y-112312142D01*
X173302976Y-112216904D01*
X173302976Y-111978809D01*
X173350595Y-111883571D01*
X173398214Y-111835952D01*
X173493452Y-111788333D01*
X173683928Y-111788333D01*
X173779166Y-111835952D01*
X173826785Y-111883571D01*
X173874404Y-111978809D01*
X172826785Y-112407380D02*
X172636309Y-112407380D01*
X172541071Y-112359761D01*
X172493452Y-112312142D01*
X172398214Y-112169285D01*
X172350595Y-111978809D01*
X172350595Y-111597857D01*
X172398214Y-111502619D01*
X172445833Y-111455000D01*
X172541071Y-111407380D01*
X172731547Y-111407380D01*
X172826785Y-111455000D01*
X172874404Y-111502619D01*
X172922023Y-111597857D01*
X172922023Y-111835952D01*
X172874404Y-111931190D01*
X172826785Y-111978809D01*
X172731547Y-112026428D01*
X172541071Y-112026428D01*
X172445833Y-111978809D01*
X172398214Y-111931190D01*
X172350595Y-111835952D01*
X158132858Y-60887379D02*
X158466191Y-60411189D01*
X158704286Y-60887379D02*
X158704286Y-59887379D01*
X158323334Y-59887379D01*
X158228096Y-59934999D01*
X158180477Y-59982618D01*
X158132858Y-60077856D01*
X158132858Y-60220713D01*
X158180477Y-60315951D01*
X158228096Y-60363570D01*
X158323334Y-60411189D01*
X158704286Y-60411189D01*
X157656667Y-60887379D02*
X157466191Y-60887379D01*
X157370953Y-60839760D01*
X157323334Y-60792141D01*
X157228096Y-60649284D01*
X157180477Y-60458808D01*
X157180477Y-60077856D01*
X157228096Y-59982618D01*
X157275715Y-59934999D01*
X157370953Y-59887379D01*
X157561429Y-59887379D01*
X157656667Y-59934999D01*
X157704286Y-59982618D01*
X157751905Y-60077856D01*
X157751905Y-60315951D01*
X157704286Y-60411189D01*
X157656667Y-60458808D01*
X157561429Y-60506427D01*
X157370953Y-60506427D01*
X157275715Y-60458808D01*
X157228096Y-60411189D01*
X157180477Y-60315951D01*
X156799524Y-59982618D02*
X156751905Y-59934999D01*
X156656667Y-59887379D01*
X156418572Y-59887379D01*
X156323334Y-59934999D01*
X156275715Y-59982618D01*
X156228096Y-60077856D01*
X156228096Y-60173094D01*
X156275715Y-60315951D01*
X156847143Y-60887379D01*
X156228096Y-60887379D01*
X164832858Y-66917379D02*
X165166191Y-66441189D01*
X165404286Y-66917379D02*
X165404286Y-65917379D01*
X165023334Y-65917379D01*
X164928096Y-65964999D01*
X164880477Y-66012618D01*
X164832858Y-66107856D01*
X164832858Y-66250713D01*
X164880477Y-66345951D01*
X164928096Y-66393570D01*
X165023334Y-66441189D01*
X165404286Y-66441189D01*
X164356667Y-66917379D02*
X164166191Y-66917379D01*
X164070953Y-66869760D01*
X164023334Y-66822141D01*
X163928096Y-66679284D01*
X163880477Y-66488808D01*
X163880477Y-66107856D01*
X163928096Y-66012618D01*
X163975715Y-65964999D01*
X164070953Y-65917379D01*
X164261429Y-65917379D01*
X164356667Y-65964999D01*
X164404286Y-66012618D01*
X164451905Y-66107856D01*
X164451905Y-66345951D01*
X164404286Y-66441189D01*
X164356667Y-66488808D01*
X164261429Y-66536427D01*
X164070953Y-66536427D01*
X163975715Y-66488808D01*
X163928096Y-66441189D01*
X163880477Y-66345951D01*
X163547143Y-65917379D02*
X162928096Y-65917379D01*
X163261429Y-66298332D01*
X163118572Y-66298332D01*
X163023334Y-66345951D01*
X162975715Y-66393570D01*
X162928096Y-66488808D01*
X162928096Y-66726903D01*
X162975715Y-66822141D01*
X163023334Y-66869760D01*
X163118572Y-66917379D01*
X163404286Y-66917379D01*
X163499524Y-66869760D01*
X163547143Y-66822141D01*
X173802858Y-82377379D02*
X174136191Y-81901189D01*
X174374286Y-82377379D02*
X174374286Y-81377379D01*
X173993334Y-81377379D01*
X173898096Y-81424999D01*
X173850477Y-81472618D01*
X173802858Y-81567856D01*
X173802858Y-81710713D01*
X173850477Y-81805951D01*
X173898096Y-81853570D01*
X173993334Y-81901189D01*
X174374286Y-81901189D01*
X173326667Y-82377379D02*
X173136191Y-82377379D01*
X173040953Y-82329760D01*
X172993334Y-82282141D01*
X172898096Y-82139284D01*
X172850477Y-81948808D01*
X172850477Y-81567856D01*
X172898096Y-81472618D01*
X172945715Y-81424999D01*
X173040953Y-81377379D01*
X173231429Y-81377379D01*
X173326667Y-81424999D01*
X173374286Y-81472618D01*
X173421905Y-81567856D01*
X173421905Y-81805951D01*
X173374286Y-81901189D01*
X173326667Y-81948808D01*
X173231429Y-81996427D01*
X173040953Y-81996427D01*
X172945715Y-81948808D01*
X172898096Y-81901189D01*
X172850477Y-81805951D01*
X171993334Y-81710713D02*
X171993334Y-82377379D01*
X172231429Y-81329760D02*
X172469524Y-82044046D01*
X171850477Y-82044046D01*
X168402858Y-69427379D02*
X168736191Y-68951189D01*
X168974286Y-69427379D02*
X168974286Y-68427379D01*
X168593334Y-68427379D01*
X168498096Y-68474999D01*
X168450477Y-68522618D01*
X168402858Y-68617856D01*
X168402858Y-68760713D01*
X168450477Y-68855951D01*
X168498096Y-68903570D01*
X168593334Y-68951189D01*
X168974286Y-68951189D01*
X167926667Y-69427379D02*
X167736191Y-69427379D01*
X167640953Y-69379760D01*
X167593334Y-69332141D01*
X167498096Y-69189284D01*
X167450477Y-68998808D01*
X167450477Y-68617856D01*
X167498096Y-68522618D01*
X167545715Y-68474999D01*
X167640953Y-68427379D01*
X167831429Y-68427379D01*
X167926667Y-68474999D01*
X167974286Y-68522618D01*
X168021905Y-68617856D01*
X168021905Y-68855951D01*
X167974286Y-68951189D01*
X167926667Y-68998808D01*
X167831429Y-69046427D01*
X167640953Y-69046427D01*
X167545715Y-68998808D01*
X167498096Y-68951189D01*
X167450477Y-68855951D01*
X166545715Y-68427379D02*
X167021905Y-68427379D01*
X167069524Y-68903570D01*
X167021905Y-68855951D01*
X166926667Y-68808332D01*
X166688572Y-68808332D01*
X166593334Y-68855951D01*
X166545715Y-68903570D01*
X166498096Y-68998808D01*
X166498096Y-69236903D01*
X166545715Y-69332141D01*
X166593334Y-69379760D01*
X166688572Y-69427379D01*
X166926667Y-69427379D01*
X167021905Y-69379760D01*
X167069524Y-69332141D01*
X156053451Y-82281979D02*
X156386784Y-81805789D01*
X156624879Y-82281979D02*
X156624879Y-81281979D01*
X156243927Y-81281979D01*
X156148689Y-81329599D01*
X156101070Y-81377218D01*
X156053451Y-81472456D01*
X156053451Y-81615313D01*
X156101070Y-81710551D01*
X156148689Y-81758170D01*
X156243927Y-81805789D01*
X156624879Y-81805789D01*
X155577260Y-82281979D02*
X155386784Y-82281979D01*
X155291546Y-82234360D01*
X155243927Y-82186741D01*
X155148689Y-82043884D01*
X155101070Y-81853408D01*
X155101070Y-81472456D01*
X155148689Y-81377218D01*
X155196308Y-81329599D01*
X155291546Y-81281979D01*
X155482022Y-81281979D01*
X155577260Y-81329599D01*
X155624879Y-81377218D01*
X155672498Y-81472456D01*
X155672498Y-81710551D01*
X155624879Y-81805789D01*
X155577260Y-81853408D01*
X155482022Y-81901027D01*
X155291546Y-81901027D01*
X155196308Y-81853408D01*
X155148689Y-81805789D01*
X155101070Y-81710551D01*
X154243927Y-81281979D02*
X154434403Y-81281979D01*
X154529641Y-81329599D01*
X154577260Y-81377218D01*
X154672498Y-81520075D01*
X154720117Y-81710551D01*
X154720117Y-82091503D01*
X154672498Y-82186741D01*
X154624879Y-82234360D01*
X154529641Y-82281979D01*
X154339165Y-82281979D01*
X154243927Y-82234360D01*
X154196308Y-82186741D01*
X154148689Y-82091503D01*
X154148689Y-81853408D01*
X154196308Y-81758170D01*
X154243927Y-81710551D01*
X154339165Y-81662932D01*
X154529641Y-81662932D01*
X154624879Y-81710551D01*
X154672498Y-81758170D01*
X154720117Y-81853408D01*
X159886784Y-82281979D02*
X160220117Y-81805789D01*
X160458213Y-82281979D02*
X160458213Y-81281979D01*
X160077260Y-81281979D01*
X159982022Y-81329599D01*
X159934403Y-81377218D01*
X159886784Y-81472456D01*
X159886784Y-81615313D01*
X159934403Y-81710551D01*
X159982022Y-81758170D01*
X160077260Y-81805789D01*
X160458213Y-81805789D01*
X158791546Y-82377218D02*
X158886784Y-82329599D01*
X158982022Y-82234360D01*
X159124879Y-82091503D01*
X159220117Y-82043884D01*
X159315355Y-82043884D01*
X159267736Y-82281979D02*
X159362974Y-82234360D01*
X159458213Y-82139122D01*
X159505832Y-81948646D01*
X159505832Y-81615313D01*
X159458213Y-81424837D01*
X159362974Y-81329599D01*
X159267736Y-81281979D01*
X159077260Y-81281979D01*
X158982022Y-81329599D01*
X158886784Y-81424837D01*
X158839165Y-81615313D01*
X158839165Y-81948646D01*
X158886784Y-82139122D01*
X158982022Y-82234360D01*
X159077260Y-82281979D01*
X159267736Y-82281979D01*
X158505832Y-81281979D02*
X157886784Y-81281979D01*
X158220117Y-81662932D01*
X158077260Y-81662932D01*
X157982022Y-81710551D01*
X157934403Y-81758170D01*
X157886784Y-81853408D01*
X157886784Y-82091503D01*
X157934403Y-82186741D01*
X157982022Y-82234360D01*
X158077260Y-82281979D01*
X158362974Y-82281979D01*
X158458213Y-82234360D01*
X158505832Y-82186741D01*
X157458213Y-81758170D02*
X157124879Y-81758170D01*
X156982022Y-82281979D02*
X157458213Y-82281979D01*
X157458213Y-81281979D01*
X156982022Y-81281979D01*
X156029641Y-82281979D02*
X156601070Y-82281979D01*
X156315355Y-82281979D02*
X156315355Y-81281979D01*
X156410594Y-81424837D01*
X156505832Y-81520075D01*
X156601070Y-81567694D01*
X155458213Y-81710551D02*
X155553451Y-81662932D01*
X155601070Y-81615313D01*
X155648689Y-81520075D01*
X155648689Y-81472456D01*
X155601070Y-81377218D01*
X155553451Y-81329599D01*
X155458213Y-81281979D01*
X155267736Y-81281979D01*
X155172498Y-81329599D01*
X155124879Y-81377218D01*
X155077260Y-81472456D01*
X155077260Y-81520075D01*
X155124879Y-81615313D01*
X155172498Y-81662932D01*
X155267736Y-81710551D01*
X155458213Y-81710551D01*
X155553451Y-81758170D01*
X155601070Y-81805789D01*
X155648689Y-81901027D01*
X155648689Y-82091503D01*
X155601070Y-82186741D01*
X155553451Y-82234360D01*
X155458213Y-82281979D01*
X155267736Y-82281979D01*
X155172498Y-82234360D01*
X155124879Y-82186741D01*
X155077260Y-82091503D01*
X155077260Y-81901027D01*
X155124879Y-81805789D01*
X155172498Y-81758170D01*
X155267736Y-81710551D01*
X154458213Y-81281979D02*
X154362974Y-81281979D01*
X154267736Y-81329599D01*
X154220117Y-81377218D01*
X154172498Y-81472456D01*
X154124879Y-81662932D01*
X154124879Y-81901027D01*
X154172498Y-82091503D01*
X154220117Y-82186741D01*
X154267736Y-82234360D01*
X154362974Y-82281979D01*
X154458213Y-82281979D01*
X154553451Y-82234360D01*
X154601070Y-82186741D01*
X154648689Y-82091503D01*
X154696308Y-81901027D01*
X154696308Y-81662932D01*
X154648689Y-81472456D01*
X154601070Y-81377218D01*
X154553451Y-81329599D01*
X154458213Y-81281979D01*
X153172498Y-81329599D02*
X153267736Y-81281979D01*
X153410594Y-81281979D01*
X153553451Y-81329599D01*
X153648689Y-81424837D01*
X153696308Y-81520075D01*
X153743927Y-81710551D01*
X153743927Y-81853408D01*
X153696308Y-82043884D01*
X153648689Y-82139122D01*
X153553451Y-82234360D01*
X153410594Y-82281979D01*
X153315355Y-82281979D01*
X153172498Y-82234360D01*
X153124879Y-82186741D01*
X153124879Y-81853408D01*
X153315355Y-81853408D01*
X152696308Y-82281979D02*
X152696308Y-81281979D01*
X152124879Y-82281979D01*
X152124879Y-81281979D01*
X151791546Y-81281979D02*
X151220117Y-81281979D01*
X151505832Y-82281979D02*
X151505832Y-81281979D01*
X150553451Y-81758170D02*
X150410594Y-81805789D01*
X150362974Y-81853408D01*
X150315355Y-81948646D01*
X150315355Y-82091503D01*
X150362974Y-82186741D01*
X150410594Y-82234360D01*
X150505832Y-82281979D01*
X150886784Y-82281979D01*
X150886784Y-81281979D01*
X150553451Y-81281979D01*
X150458213Y-81329599D01*
X150410594Y-81377218D01*
X150362974Y-81472456D01*
X150362974Y-81567694D01*
X150410594Y-81662932D01*
X150458213Y-81710551D01*
X150553451Y-81758170D01*
X150886784Y-81758170D01*
X155410594Y-81281979D02*
X155410594Y-81520075D01*
X155648689Y-81424837D02*
X155410594Y-81520075D01*
X155172498Y-81424837D01*
X155553451Y-81710551D02*
X155410594Y-81520075D01*
X155267736Y-81710551D01*
X172602858Y-72337379D02*
X172936191Y-71861189D01*
X173174286Y-72337379D02*
X173174286Y-71337379D01*
X172793334Y-71337379D01*
X172698096Y-71384999D01*
X172650477Y-71432618D01*
X172602858Y-71527856D01*
X172602858Y-71670713D01*
X172650477Y-71765951D01*
X172698096Y-71813570D01*
X172793334Y-71861189D01*
X173174286Y-71861189D01*
X172126667Y-72337379D02*
X171936191Y-72337379D01*
X171840953Y-72289760D01*
X171793334Y-72242141D01*
X171698096Y-72099284D01*
X171650477Y-71908808D01*
X171650477Y-71527856D01*
X171698096Y-71432618D01*
X171745715Y-71384999D01*
X171840953Y-71337379D01*
X172031429Y-71337379D01*
X172126667Y-71384999D01*
X172174286Y-71432618D01*
X172221905Y-71527856D01*
X172221905Y-71765951D01*
X172174286Y-71861189D01*
X172126667Y-71908808D01*
X172031429Y-71956427D01*
X171840953Y-71956427D01*
X171745715Y-71908808D01*
X171698096Y-71861189D01*
X171650477Y-71765951D01*
X171317143Y-71337379D02*
X170650477Y-71337379D01*
X171079048Y-72337379D01*
X135153451Y-60431979D02*
X135486784Y-59955789D01*
X135724879Y-60431979D02*
X135724879Y-59431979D01*
X135343927Y-59431979D01*
X135248689Y-59479599D01*
X135201070Y-59527218D01*
X135153451Y-59622456D01*
X135153451Y-59765313D01*
X135201070Y-59860551D01*
X135248689Y-59908170D01*
X135343927Y-59955789D01*
X135724879Y-59955789D01*
X134677260Y-60431979D02*
X134486784Y-60431979D01*
X134391546Y-60384360D01*
X134343927Y-60336741D01*
X134248689Y-60193884D01*
X134201070Y-60003408D01*
X134201070Y-59622456D01*
X134248689Y-59527218D01*
X134296308Y-59479599D01*
X134391546Y-59431979D01*
X134582022Y-59431979D01*
X134677260Y-59479599D01*
X134724879Y-59527218D01*
X134772498Y-59622456D01*
X134772498Y-59860551D01*
X134724879Y-59955789D01*
X134677260Y-60003408D01*
X134582022Y-60051027D01*
X134391546Y-60051027D01*
X134296308Y-60003408D01*
X134248689Y-59955789D01*
X134201070Y-59860551D01*
X133629641Y-59860551D02*
X133724879Y-59812932D01*
X133772498Y-59765313D01*
X133820117Y-59670075D01*
X133820117Y-59622456D01*
X133772498Y-59527218D01*
X133724879Y-59479599D01*
X133629641Y-59431979D01*
X133439165Y-59431979D01*
X133343927Y-59479599D01*
X133296308Y-59527218D01*
X133248689Y-59622456D01*
X133248689Y-59670075D01*
X133296308Y-59765313D01*
X133343927Y-59812932D01*
X133439165Y-59860551D01*
X133629641Y-59860551D01*
X133724879Y-59908170D01*
X133772498Y-59955789D01*
X133820117Y-60051027D01*
X133820117Y-60241503D01*
X133772498Y-60336741D01*
X133724879Y-60384360D01*
X133629641Y-60431979D01*
X133439165Y-60431979D01*
X133343927Y-60384360D01*
X133296308Y-60336741D01*
X133248689Y-60241503D01*
X133248689Y-60051027D01*
X133296308Y-59955789D01*
X133343927Y-59908170D01*
X133439165Y-59860551D01*
X138986784Y-60431979D02*
X139320117Y-59955789D01*
X139558213Y-60431979D02*
X139558213Y-59431979D01*
X139177260Y-59431979D01*
X139082022Y-59479599D01*
X139034403Y-59527218D01*
X138986784Y-59622456D01*
X138986784Y-59765313D01*
X139034403Y-59860551D01*
X139082022Y-59908170D01*
X139177260Y-59955789D01*
X139558213Y-59955789D01*
X137891546Y-60527218D02*
X137986784Y-60479599D01*
X138082022Y-60384360D01*
X138224879Y-60241503D01*
X138320117Y-60193884D01*
X138415355Y-60193884D01*
X138367736Y-60431979D02*
X138462974Y-60384360D01*
X138558213Y-60289122D01*
X138605832Y-60098646D01*
X138605832Y-59765313D01*
X138558213Y-59574837D01*
X138462974Y-59479599D01*
X138367736Y-59431979D01*
X138177260Y-59431979D01*
X138082022Y-59479599D01*
X137986784Y-59574837D01*
X137939165Y-59765313D01*
X137939165Y-60098646D01*
X137986784Y-60289122D01*
X138082022Y-60384360D01*
X138177260Y-60431979D01*
X138367736Y-60431979D01*
X137605832Y-59431979D02*
X136986784Y-59431979D01*
X137320117Y-59812932D01*
X137177260Y-59812932D01*
X137082022Y-59860551D01*
X137034403Y-59908170D01*
X136986784Y-60003408D01*
X136986784Y-60241503D01*
X137034403Y-60336741D01*
X137082022Y-60384360D01*
X137177260Y-60431979D01*
X137462974Y-60431979D01*
X137558213Y-60384360D01*
X137605832Y-60336741D01*
X136558213Y-59908170D02*
X136224879Y-59908170D01*
X136082022Y-60431979D02*
X136558213Y-60431979D01*
X136558213Y-59431979D01*
X136082022Y-59431979D01*
X135129641Y-60431979D02*
X135701070Y-60431979D01*
X135415355Y-60431979D02*
X135415355Y-59431979D01*
X135510594Y-59574837D01*
X135605832Y-59670075D01*
X135701070Y-59717694D01*
X134558213Y-59860551D02*
X134653451Y-59812932D01*
X134701070Y-59765313D01*
X134748689Y-59670075D01*
X134748689Y-59622456D01*
X134701070Y-59527218D01*
X134653451Y-59479599D01*
X134558213Y-59431979D01*
X134367736Y-59431979D01*
X134272498Y-59479599D01*
X134224879Y-59527218D01*
X134177260Y-59622456D01*
X134177260Y-59670075D01*
X134224879Y-59765313D01*
X134272498Y-59812932D01*
X134367736Y-59860551D01*
X134558213Y-59860551D01*
X134653451Y-59908170D01*
X134701070Y-59955789D01*
X134748689Y-60051027D01*
X134748689Y-60241503D01*
X134701070Y-60336741D01*
X134653451Y-60384360D01*
X134558213Y-60431979D01*
X134367736Y-60431979D01*
X134272498Y-60384360D01*
X134224879Y-60336741D01*
X134177260Y-60241503D01*
X134177260Y-60051027D01*
X134224879Y-59955789D01*
X134272498Y-59908170D01*
X134367736Y-59860551D01*
X133558213Y-59431979D02*
X133462974Y-59431979D01*
X133367736Y-59479599D01*
X133320117Y-59527218D01*
X133272498Y-59622456D01*
X133224879Y-59812932D01*
X133224879Y-60051027D01*
X133272498Y-60241503D01*
X133320117Y-60336741D01*
X133367736Y-60384360D01*
X133462974Y-60431979D01*
X133558213Y-60431979D01*
X133653451Y-60384360D01*
X133701070Y-60336741D01*
X133748689Y-60241503D01*
X133796308Y-60051027D01*
X133796308Y-59812932D01*
X133748689Y-59622456D01*
X133701070Y-59527218D01*
X133653451Y-59479599D01*
X133558213Y-59431979D01*
X132272498Y-59479599D02*
X132367736Y-59431979D01*
X132510594Y-59431979D01*
X132653451Y-59479599D01*
X132748689Y-59574837D01*
X132796308Y-59670075D01*
X132843927Y-59860551D01*
X132843927Y-60003408D01*
X132796308Y-60193884D01*
X132748689Y-60289122D01*
X132653451Y-60384360D01*
X132510594Y-60431979D01*
X132415355Y-60431979D01*
X132272498Y-60384360D01*
X132224879Y-60336741D01*
X132224879Y-60003408D01*
X132415355Y-60003408D01*
X131796308Y-60431979D02*
X131796308Y-59431979D01*
X131224879Y-60431979D01*
X131224879Y-59431979D01*
X130891546Y-59431979D02*
X130320117Y-59431979D01*
X130605832Y-60431979D02*
X130605832Y-59431979D01*
X129653451Y-59908170D02*
X129510594Y-59955789D01*
X129462974Y-60003408D01*
X129415355Y-60098646D01*
X129415355Y-60241503D01*
X129462974Y-60336741D01*
X129510594Y-60384360D01*
X129605832Y-60431979D01*
X129986784Y-60431979D01*
X129986784Y-59431979D01*
X129653451Y-59431979D01*
X129558213Y-59479599D01*
X129510594Y-59527218D01*
X129462974Y-59622456D01*
X129462974Y-59717694D01*
X129510594Y-59812932D01*
X129558213Y-59860551D01*
X129653451Y-59908170D01*
X129986784Y-59908170D01*
X134510594Y-59431979D02*
X134510594Y-59670075D01*
X134748689Y-59574837D02*
X134510594Y-59670075D01*
X134272498Y-59574837D01*
X134653451Y-59860551D02*
X134510594Y-59670075D01*
X134367736Y-59860551D01*
X158132858Y-58377379D02*
X158466191Y-57901189D01*
X158704286Y-58377379D02*
X158704286Y-57377379D01*
X158323334Y-57377379D01*
X158228096Y-57424999D01*
X158180477Y-57472618D01*
X158132858Y-57567856D01*
X158132858Y-57710713D01*
X158180477Y-57805951D01*
X158228096Y-57853570D01*
X158323334Y-57901189D01*
X158704286Y-57901189D01*
X157656667Y-58377379D02*
X157466191Y-58377379D01*
X157370953Y-58329760D01*
X157323334Y-58282141D01*
X157228096Y-58139284D01*
X157180477Y-57948808D01*
X157180477Y-57567856D01*
X157228096Y-57472618D01*
X157275715Y-57424999D01*
X157370953Y-57377379D01*
X157561429Y-57377379D01*
X157656667Y-57424999D01*
X157704286Y-57472618D01*
X157751905Y-57567856D01*
X157751905Y-57805951D01*
X157704286Y-57901189D01*
X157656667Y-57948808D01*
X157561429Y-57996427D01*
X157370953Y-57996427D01*
X157275715Y-57948808D01*
X157228096Y-57901189D01*
X157180477Y-57805951D01*
X156704286Y-58377379D02*
X156513810Y-58377379D01*
X156418572Y-58329760D01*
X156370953Y-58282141D01*
X156275715Y-58139284D01*
X156228096Y-57948808D01*
X156228096Y-57567856D01*
X156275715Y-57472618D01*
X156323334Y-57424999D01*
X156418572Y-57377379D01*
X156609048Y-57377379D01*
X156704286Y-57424999D01*
X156751905Y-57472618D01*
X156799524Y-57567856D01*
X156799524Y-57805951D01*
X156751905Y-57901189D01*
X156704286Y-57948808D01*
X156609048Y-57996427D01*
X156418572Y-57996427D01*
X156323334Y-57948808D01*
X156275715Y-57901189D01*
X156228096Y-57805951D01*
X177849048Y-79867379D02*
X178182381Y-79391189D01*
X178420477Y-79867379D02*
X178420477Y-78867379D01*
X178039524Y-78867379D01*
X177944286Y-78914999D01*
X177896667Y-78962618D01*
X177849048Y-79057856D01*
X177849048Y-79200713D01*
X177896667Y-79295951D01*
X177944286Y-79343570D01*
X178039524Y-79391189D01*
X178420477Y-79391189D01*
X176896667Y-79867379D02*
X177468096Y-79867379D01*
X177182381Y-79867379D02*
X177182381Y-78867379D01*
X177277620Y-79010237D01*
X177372858Y-79105475D01*
X177468096Y-79153094D01*
X176277620Y-78867379D02*
X176182381Y-78867379D01*
X176087143Y-78914999D01*
X176039524Y-78962618D01*
X175991905Y-79057856D01*
X175944286Y-79248332D01*
X175944286Y-79486427D01*
X175991905Y-79676903D01*
X176039524Y-79772141D01*
X176087143Y-79819760D01*
X176182381Y-79867379D01*
X176277620Y-79867379D01*
X176372858Y-79819760D01*
X176420477Y-79772141D01*
X176468096Y-79676903D01*
X176515715Y-79486427D01*
X176515715Y-79248332D01*
X176468096Y-79057856D01*
X176420477Y-78962618D01*
X176372858Y-78914999D01*
X176277620Y-78867379D01*
X175325239Y-78867379D02*
X175230001Y-78867379D01*
X175134762Y-78914999D01*
X175087143Y-78962618D01*
X175039524Y-79057856D01*
X174991905Y-79248332D01*
X174991905Y-79486427D01*
X175039524Y-79676903D01*
X175087143Y-79772141D01*
X175134762Y-79819760D01*
X175230001Y-79867379D01*
X175325239Y-79867379D01*
X175420477Y-79819760D01*
X175468096Y-79772141D01*
X175515715Y-79676903D01*
X175563334Y-79486427D01*
X175563334Y-79248332D01*
X175515715Y-79057856D01*
X175468096Y-78962618D01*
X175420477Y-78914999D01*
X175325239Y-78867379D01*
X165309048Y-64407379D02*
X165642381Y-63931189D01*
X165880477Y-64407379D02*
X165880477Y-63407379D01*
X165499524Y-63407379D01*
X165404286Y-63454999D01*
X165356667Y-63502618D01*
X165309048Y-63597856D01*
X165309048Y-63740713D01*
X165356667Y-63835951D01*
X165404286Y-63883570D01*
X165499524Y-63931189D01*
X165880477Y-63931189D01*
X164356667Y-64407379D02*
X164928096Y-64407379D01*
X164642381Y-64407379D02*
X164642381Y-63407379D01*
X164737620Y-63550237D01*
X164832858Y-63645475D01*
X164928096Y-63693094D01*
X163737620Y-63407379D02*
X163642381Y-63407379D01*
X163547143Y-63454999D01*
X163499524Y-63502618D01*
X163451905Y-63597856D01*
X163404286Y-63788332D01*
X163404286Y-64026427D01*
X163451905Y-64216903D01*
X163499524Y-64312141D01*
X163547143Y-64359760D01*
X163642381Y-64407379D01*
X163737620Y-64407379D01*
X163832858Y-64359760D01*
X163880477Y-64312141D01*
X163928096Y-64216903D01*
X163975715Y-64026427D01*
X163975715Y-63788332D01*
X163928096Y-63597856D01*
X163880477Y-63502618D01*
X163832858Y-63454999D01*
X163737620Y-63407379D01*
X162451905Y-64407379D02*
X163023334Y-64407379D01*
X162737620Y-64407379D02*
X162737620Y-63407379D01*
X162832858Y-63550237D01*
X162928096Y-63645475D01*
X163023334Y-63693094D01*
X130272048Y-60577979D02*
X130605381Y-60101789D01*
X130843477Y-60577979D02*
X130843477Y-59577979D01*
X130462524Y-59577979D01*
X130367286Y-59625599D01*
X130319667Y-59673218D01*
X130272048Y-59768456D01*
X130272048Y-59911313D01*
X130319667Y-60006551D01*
X130367286Y-60054170D01*
X130462524Y-60101789D01*
X130843477Y-60101789D01*
X129319667Y-60577979D02*
X129891096Y-60577979D01*
X129605381Y-60577979D02*
X129605381Y-59577979D01*
X129700620Y-59720837D01*
X129795858Y-59816075D01*
X129891096Y-59863694D01*
X128700620Y-59577979D02*
X128605381Y-59577979D01*
X128510143Y-59625599D01*
X128462524Y-59673218D01*
X128414905Y-59768456D01*
X128367286Y-59958932D01*
X128367286Y-60197027D01*
X128414905Y-60387503D01*
X128462524Y-60482741D01*
X128510143Y-60530360D01*
X128605381Y-60577979D01*
X128700620Y-60577979D01*
X128795858Y-60530360D01*
X128843477Y-60482741D01*
X128891096Y-60387503D01*
X128938715Y-60197027D01*
X128938715Y-59958932D01*
X128891096Y-59768456D01*
X128843477Y-59673218D01*
X128795858Y-59625599D01*
X128700620Y-59577979D01*
X127986334Y-59673218D02*
X127938715Y-59625599D01*
X127843477Y-59577979D01*
X127605381Y-59577979D01*
X127510143Y-59625599D01*
X127462524Y-59673218D01*
X127414905Y-59768456D01*
X127414905Y-59863694D01*
X127462524Y-60006551D01*
X128033953Y-60577979D01*
X127414905Y-60577979D01*
X133819667Y-60577979D02*
X134153001Y-60101789D01*
X134391096Y-60577979D02*
X134391096Y-59577979D01*
X134010143Y-59577979D01*
X133914905Y-59625599D01*
X133867286Y-59673218D01*
X133819667Y-59768456D01*
X133819667Y-59911313D01*
X133867286Y-60006551D01*
X133914905Y-60054170D01*
X134010143Y-60101789D01*
X134391096Y-60101789D01*
X132724429Y-60673218D02*
X132819667Y-60625599D01*
X132914905Y-60530360D01*
X133057762Y-60387503D01*
X133153001Y-60339884D01*
X133248239Y-60339884D01*
X133200620Y-60577979D02*
X133295858Y-60530360D01*
X133391096Y-60435122D01*
X133438715Y-60244646D01*
X133438715Y-59911313D01*
X133391096Y-59720837D01*
X133295858Y-59625599D01*
X133200620Y-59577979D01*
X133010143Y-59577979D01*
X132914905Y-59625599D01*
X132819667Y-59720837D01*
X132772048Y-59911313D01*
X132772048Y-60244646D01*
X132819667Y-60435122D01*
X132914905Y-60530360D01*
X133010143Y-60577979D01*
X133200620Y-60577979D01*
X131867286Y-59577979D02*
X132343477Y-59577979D01*
X132391096Y-60054170D01*
X132343477Y-60006551D01*
X132248239Y-59958932D01*
X132010143Y-59958932D01*
X131914905Y-60006551D01*
X131867286Y-60054170D01*
X131819667Y-60149408D01*
X131819667Y-60387503D01*
X131867286Y-60482741D01*
X131914905Y-60530360D01*
X132010143Y-60577979D01*
X132248239Y-60577979D01*
X132343477Y-60530360D01*
X132391096Y-60482741D01*
X131391096Y-60054170D02*
X131057762Y-60054170D01*
X130914905Y-60577979D02*
X131391096Y-60577979D01*
X131391096Y-59577979D01*
X130914905Y-59577979D01*
X130295858Y-59577979D02*
X130200620Y-59577979D01*
X130105381Y-59625599D01*
X130057762Y-59673218D01*
X130010143Y-59768456D01*
X129962524Y-59958932D01*
X129962524Y-60197027D01*
X130010143Y-60387503D01*
X130057762Y-60482741D01*
X130105381Y-60530360D01*
X130200620Y-60577979D01*
X130295858Y-60577979D01*
X130391096Y-60530360D01*
X130438715Y-60482741D01*
X130486334Y-60387503D01*
X130533953Y-60197027D01*
X130533953Y-59958932D01*
X130486334Y-59768456D01*
X130438715Y-59673218D01*
X130391096Y-59625599D01*
X130295858Y-59577979D01*
X129629191Y-59577979D02*
X129010143Y-59577979D01*
X129343477Y-59958932D01*
X129200620Y-59958932D01*
X129105381Y-60006551D01*
X129057762Y-60054170D01*
X129010143Y-60149408D01*
X129010143Y-60387503D01*
X129057762Y-60482741D01*
X129105381Y-60530360D01*
X129200620Y-60577979D01*
X129486334Y-60577979D01*
X129581572Y-60530360D01*
X129629191Y-60482741D01*
X128105381Y-59577979D02*
X128581572Y-59577979D01*
X128629191Y-60054170D01*
X128581572Y-60006551D01*
X128486334Y-59958932D01*
X128248239Y-59958932D01*
X128153001Y-60006551D01*
X128105381Y-60054170D01*
X128057762Y-60149408D01*
X128057762Y-60387503D01*
X128105381Y-60482741D01*
X128153001Y-60530360D01*
X128248239Y-60577979D01*
X128486334Y-60577979D01*
X128581572Y-60530360D01*
X128629191Y-60482741D01*
X127676810Y-60292265D02*
X127200620Y-60292265D01*
X127772048Y-60577979D02*
X127438715Y-59577979D01*
X127105381Y-60577979D01*
X126914905Y-59577979D02*
X126343477Y-59577979D01*
X126629191Y-60577979D02*
X126629191Y-59577979D01*
X126153001Y-59577979D02*
X125581572Y-59577979D01*
X125867286Y-60577979D02*
X125867286Y-59577979D01*
X124676810Y-60482741D02*
X124724429Y-60530360D01*
X124867286Y-60577979D01*
X124962524Y-60577979D01*
X125105381Y-60530360D01*
X125200620Y-60435122D01*
X125248239Y-60339884D01*
X125295858Y-60149408D01*
X125295858Y-60006551D01*
X125248239Y-59816075D01*
X125200620Y-59720837D01*
X125105381Y-59625599D01*
X124962524Y-59577979D01*
X124867286Y-59577979D01*
X124724429Y-59625599D01*
X124676810Y-59673218D01*
X123772048Y-60577979D02*
X124248239Y-60577979D01*
X124248239Y-59577979D01*
X129153001Y-59577979D02*
X129153001Y-59816075D01*
X129391096Y-59720837D02*
X129153001Y-59816075D01*
X128914905Y-59720837D01*
X129295858Y-60006551D02*
X129153001Y-59816075D01*
X129010143Y-60006551D01*
X138222048Y-66127979D02*
X138555381Y-65651789D01*
X138793477Y-66127979D02*
X138793477Y-65127979D01*
X138412524Y-65127979D01*
X138317286Y-65175599D01*
X138269667Y-65223218D01*
X138222048Y-65318456D01*
X138222048Y-65461313D01*
X138269667Y-65556551D01*
X138317286Y-65604170D01*
X138412524Y-65651789D01*
X138793477Y-65651789D01*
X137269667Y-66127979D02*
X137841096Y-66127979D01*
X137555381Y-66127979D02*
X137555381Y-65127979D01*
X137650620Y-65270837D01*
X137745858Y-65366075D01*
X137841096Y-65413694D01*
X136650620Y-65127979D02*
X136555381Y-65127979D01*
X136460143Y-65175599D01*
X136412524Y-65223218D01*
X136364905Y-65318456D01*
X136317286Y-65508932D01*
X136317286Y-65747027D01*
X136364905Y-65937503D01*
X136412524Y-66032741D01*
X136460143Y-66080360D01*
X136555381Y-66127979D01*
X136650620Y-66127979D01*
X136745858Y-66080360D01*
X136793477Y-66032741D01*
X136841096Y-65937503D01*
X136888715Y-65747027D01*
X136888715Y-65508932D01*
X136841096Y-65318456D01*
X136793477Y-65223218D01*
X136745858Y-65175599D01*
X136650620Y-65127979D01*
X135983953Y-65127979D02*
X135364905Y-65127979D01*
X135698239Y-65508932D01*
X135555381Y-65508932D01*
X135460143Y-65556551D01*
X135412524Y-65604170D01*
X135364905Y-65699408D01*
X135364905Y-65937503D01*
X135412524Y-66032741D01*
X135460143Y-66080360D01*
X135555381Y-66127979D01*
X135841096Y-66127979D01*
X135936334Y-66080360D01*
X135983953Y-66032741D01*
X141769667Y-66127979D02*
X142103001Y-65651789D01*
X142341096Y-66127979D02*
X142341096Y-65127979D01*
X141960143Y-65127979D01*
X141864905Y-65175599D01*
X141817286Y-65223218D01*
X141769667Y-65318456D01*
X141769667Y-65461313D01*
X141817286Y-65556551D01*
X141864905Y-65604170D01*
X141960143Y-65651789D01*
X142341096Y-65651789D01*
X140674429Y-66223218D02*
X140769667Y-66175599D01*
X140864905Y-66080360D01*
X141007762Y-65937503D01*
X141103001Y-65889884D01*
X141198239Y-65889884D01*
X141150620Y-66127979D02*
X141245858Y-66080360D01*
X141341096Y-65985122D01*
X141388715Y-65794646D01*
X141388715Y-65461313D01*
X141341096Y-65270837D01*
X141245858Y-65175599D01*
X141150620Y-65127979D01*
X140960143Y-65127979D01*
X140864905Y-65175599D01*
X140769667Y-65270837D01*
X140722048Y-65461313D01*
X140722048Y-65794646D01*
X140769667Y-65985122D01*
X140864905Y-66080360D01*
X140960143Y-66127979D01*
X141150620Y-66127979D01*
X139817286Y-65127979D02*
X140293477Y-65127979D01*
X140341096Y-65604170D01*
X140293477Y-65556551D01*
X140198239Y-65508932D01*
X139960143Y-65508932D01*
X139864905Y-65556551D01*
X139817286Y-65604170D01*
X139769667Y-65699408D01*
X139769667Y-65937503D01*
X139817286Y-66032741D01*
X139864905Y-66080360D01*
X139960143Y-66127979D01*
X140198239Y-66127979D01*
X140293477Y-66080360D01*
X140341096Y-66032741D01*
X139341096Y-65604170D02*
X139007762Y-65604170D01*
X138864905Y-66127979D02*
X139341096Y-66127979D01*
X139341096Y-65127979D01*
X138864905Y-65127979D01*
X138245858Y-65127979D02*
X138150620Y-65127979D01*
X138055381Y-65175599D01*
X138007762Y-65223218D01*
X137960143Y-65318456D01*
X137912524Y-65508932D01*
X137912524Y-65747027D01*
X137960143Y-65937503D01*
X138007762Y-66032741D01*
X138055381Y-66080360D01*
X138150620Y-66127979D01*
X138245858Y-66127979D01*
X138341096Y-66080360D01*
X138388715Y-66032741D01*
X138436334Y-65937503D01*
X138483953Y-65747027D01*
X138483953Y-65508932D01*
X138436334Y-65318456D01*
X138388715Y-65223218D01*
X138341096Y-65175599D01*
X138245858Y-65127979D01*
X137579191Y-65127979D02*
X136960143Y-65127979D01*
X137293477Y-65508932D01*
X137150620Y-65508932D01*
X137055381Y-65556551D01*
X137007762Y-65604170D01*
X136960143Y-65699408D01*
X136960143Y-65937503D01*
X137007762Y-66032741D01*
X137055381Y-66080360D01*
X137150620Y-66127979D01*
X137436334Y-66127979D01*
X137531572Y-66080360D01*
X137579191Y-66032741D01*
X136055381Y-65127979D02*
X136531572Y-65127979D01*
X136579191Y-65604170D01*
X136531572Y-65556551D01*
X136436334Y-65508932D01*
X136198239Y-65508932D01*
X136103001Y-65556551D01*
X136055381Y-65604170D01*
X136007762Y-65699408D01*
X136007762Y-65937503D01*
X136055381Y-66032741D01*
X136103001Y-66080360D01*
X136198239Y-66127979D01*
X136436334Y-66127979D01*
X136531572Y-66080360D01*
X136579191Y-66032741D01*
X135626810Y-65842265D02*
X135150620Y-65842265D01*
X135722048Y-66127979D02*
X135388715Y-65127979D01*
X135055381Y-66127979D01*
X134864905Y-65127979D02*
X134293477Y-65127979D01*
X134579191Y-66127979D02*
X134579191Y-65127979D01*
X134103001Y-65127979D02*
X133531572Y-65127979D01*
X133817286Y-66127979D02*
X133817286Y-65127979D01*
X132626810Y-66032741D02*
X132674429Y-66080360D01*
X132817286Y-66127979D01*
X132912524Y-66127979D01*
X133055381Y-66080360D01*
X133150620Y-65985122D01*
X133198239Y-65889884D01*
X133245858Y-65699408D01*
X133245858Y-65556551D01*
X133198239Y-65366075D01*
X133150620Y-65270837D01*
X133055381Y-65175599D01*
X132912524Y-65127979D01*
X132817286Y-65127979D01*
X132674429Y-65175599D01*
X132626810Y-65223218D01*
X131722048Y-66127979D02*
X132198239Y-66127979D01*
X132198239Y-65127979D01*
X137103001Y-65127979D02*
X137103001Y-65366075D01*
X137341096Y-65270837D02*
X137103001Y-65366075D01*
X136864905Y-65270837D01*
X137245858Y-65556551D02*
X137103001Y-65366075D01*
X136960143Y-65556551D01*
X162619048Y-61897379D02*
X162952381Y-61421189D01*
X163190477Y-61897379D02*
X163190477Y-60897379D01*
X162809524Y-60897379D01*
X162714286Y-60944999D01*
X162666667Y-60992618D01*
X162619048Y-61087856D01*
X162619048Y-61230713D01*
X162666667Y-61325951D01*
X162714286Y-61373570D01*
X162809524Y-61421189D01*
X163190477Y-61421189D01*
X161666667Y-61897379D02*
X162238096Y-61897379D01*
X161952381Y-61897379D02*
X161952381Y-60897379D01*
X162047620Y-61040237D01*
X162142858Y-61135475D01*
X162238096Y-61183094D01*
X160714286Y-61897379D02*
X161285715Y-61897379D01*
X161000001Y-61897379D02*
X161000001Y-60897379D01*
X161095239Y-61040237D01*
X161190477Y-61135475D01*
X161285715Y-61183094D01*
X159761905Y-61897379D02*
X160333334Y-61897379D01*
X160047620Y-61897379D02*
X160047620Y-60897379D01*
X160142858Y-61040237D01*
X160238096Y-61135475D01*
X160333334Y-61183094D01*
X169319048Y-66917379D02*
X169652381Y-66441189D01*
X169890477Y-66917379D02*
X169890477Y-65917379D01*
X169509524Y-65917379D01*
X169414286Y-65964999D01*
X169366667Y-66012618D01*
X169319048Y-66107856D01*
X169319048Y-66250713D01*
X169366667Y-66345951D01*
X169414286Y-66393570D01*
X169509524Y-66441189D01*
X169890477Y-66441189D01*
X168366667Y-66917379D02*
X168938096Y-66917379D01*
X168652381Y-66917379D02*
X168652381Y-65917379D01*
X168747620Y-66060237D01*
X168842858Y-66155475D01*
X168938096Y-66203094D01*
X167414286Y-66917379D02*
X167985715Y-66917379D01*
X167700001Y-66917379D02*
X167700001Y-65917379D01*
X167795239Y-66060237D01*
X167890477Y-66155475D01*
X167985715Y-66203094D01*
X167033334Y-66012618D02*
X166985715Y-65964999D01*
X166890477Y-65917379D01*
X166652381Y-65917379D01*
X166557143Y-65964999D01*
X166509524Y-66012618D01*
X166461905Y-66107856D01*
X166461905Y-66203094D01*
X166509524Y-66345951D01*
X167080953Y-66917379D01*
X166461905Y-66917379D01*
X177329048Y-74847379D02*
X177662381Y-74371189D01*
X177900477Y-74847379D02*
X177900477Y-73847379D01*
X177519524Y-73847379D01*
X177424286Y-73894999D01*
X177376667Y-73942618D01*
X177329048Y-74037856D01*
X177329048Y-74180713D01*
X177376667Y-74275951D01*
X177424286Y-74323570D01*
X177519524Y-74371189D01*
X177900477Y-74371189D01*
X176376667Y-74847379D02*
X176948096Y-74847379D01*
X176662381Y-74847379D02*
X176662381Y-73847379D01*
X176757620Y-73990237D01*
X176852858Y-74085475D01*
X176948096Y-74133094D01*
X175424286Y-74847379D02*
X175995715Y-74847379D01*
X175710001Y-74847379D02*
X175710001Y-73847379D01*
X175805239Y-73990237D01*
X175900477Y-74085475D01*
X175995715Y-74133094D01*
X175090953Y-73847379D02*
X174471905Y-73847379D01*
X174805239Y-74228332D01*
X174662381Y-74228332D01*
X174567143Y-74275951D01*
X174519524Y-74323570D01*
X174471905Y-74418808D01*
X174471905Y-74656903D01*
X174519524Y-74752141D01*
X174567143Y-74799760D01*
X174662381Y-74847379D01*
X174948096Y-74847379D01*
X175043334Y-74799760D01*
X175090953Y-74752141D01*
X172889048Y-69827379D02*
X173222381Y-69351189D01*
X173460477Y-69827379D02*
X173460477Y-68827379D01*
X173079524Y-68827379D01*
X172984286Y-68874999D01*
X172936667Y-68922618D01*
X172889048Y-69017856D01*
X172889048Y-69160713D01*
X172936667Y-69255951D01*
X172984286Y-69303570D01*
X173079524Y-69351189D01*
X173460477Y-69351189D01*
X171936667Y-69827379D02*
X172508096Y-69827379D01*
X172222381Y-69827379D02*
X172222381Y-68827379D01*
X172317620Y-68970237D01*
X172412858Y-69065475D01*
X172508096Y-69113094D01*
X170984286Y-69827379D02*
X171555715Y-69827379D01*
X171270001Y-69827379D02*
X171270001Y-68827379D01*
X171365239Y-68970237D01*
X171460477Y-69065475D01*
X171555715Y-69113094D01*
X170127143Y-69160713D02*
X170127143Y-69827379D01*
X170365239Y-68779760D02*
X170603334Y-69494046D01*
X169984286Y-69494046D01*
X162619048Y-59387379D02*
X162952381Y-58911189D01*
X163190477Y-59387379D02*
X163190477Y-58387379D01*
X162809524Y-58387379D01*
X162714286Y-58434999D01*
X162666667Y-58482618D01*
X162619048Y-58577856D01*
X162619048Y-58720713D01*
X162666667Y-58815951D01*
X162714286Y-58863570D01*
X162809524Y-58911189D01*
X163190477Y-58911189D01*
X161666667Y-59387379D02*
X162238096Y-59387379D01*
X161952381Y-59387379D02*
X161952381Y-58387379D01*
X162047620Y-58530237D01*
X162142858Y-58625475D01*
X162238096Y-58673094D01*
X160714286Y-59387379D02*
X161285715Y-59387379D01*
X161000001Y-59387379D02*
X161000001Y-58387379D01*
X161095239Y-58530237D01*
X161190477Y-58625475D01*
X161285715Y-58673094D01*
X159809524Y-58387379D02*
X160285715Y-58387379D01*
X160333334Y-58863570D01*
X160285715Y-58815951D01*
X160190477Y-58768332D01*
X159952381Y-58768332D01*
X159857143Y-58815951D01*
X159809524Y-58863570D01*
X159761905Y-58958808D01*
X159761905Y-59196903D01*
X159809524Y-59292141D01*
X159857143Y-59339760D01*
X159952381Y-59387379D01*
X160190477Y-59387379D01*
X160285715Y-59339760D01*
X160333334Y-59292141D01*
X177849048Y-77357379D02*
X178182381Y-76881189D01*
X178420477Y-77357379D02*
X178420477Y-76357379D01*
X178039524Y-76357379D01*
X177944286Y-76404999D01*
X177896667Y-76452618D01*
X177849048Y-76547856D01*
X177849048Y-76690713D01*
X177896667Y-76785951D01*
X177944286Y-76833570D01*
X178039524Y-76881189D01*
X178420477Y-76881189D01*
X176896667Y-77357379D02*
X177468096Y-77357379D01*
X177182381Y-77357379D02*
X177182381Y-76357379D01*
X177277620Y-76500237D01*
X177372858Y-76595475D01*
X177468096Y-76643094D01*
X175944286Y-77357379D02*
X176515715Y-77357379D01*
X176230001Y-77357379D02*
X176230001Y-76357379D01*
X176325239Y-76500237D01*
X176420477Y-76595475D01*
X176515715Y-76643094D01*
X175087143Y-76357379D02*
X175277620Y-76357379D01*
X175372858Y-76404999D01*
X175420477Y-76452618D01*
X175515715Y-76595475D01*
X175563334Y-76785951D01*
X175563334Y-77166903D01*
X175515715Y-77262141D01*
X175468096Y-77309760D01*
X175372858Y-77357379D01*
X175182381Y-77357379D01*
X175087143Y-77309760D01*
X175039524Y-77262141D01*
X174991905Y-77166903D01*
X174991905Y-76928808D01*
X175039524Y-76833570D01*
X175087143Y-76785951D01*
X175182381Y-76738332D01*
X175372858Y-76738332D01*
X175468096Y-76785951D01*
X175515715Y-76833570D01*
X175563334Y-76928808D01*
X166629048Y-61897379D02*
X166962381Y-61421189D01*
X167200477Y-61897379D02*
X167200477Y-60897379D01*
X166819524Y-60897379D01*
X166724286Y-60944999D01*
X166676667Y-60992618D01*
X166629048Y-61087856D01*
X166629048Y-61230713D01*
X166676667Y-61325951D01*
X166724286Y-61373570D01*
X166819524Y-61421189D01*
X167200477Y-61421189D01*
X165676667Y-61897379D02*
X166248096Y-61897379D01*
X165962381Y-61897379D02*
X165962381Y-60897379D01*
X166057620Y-61040237D01*
X166152858Y-61135475D01*
X166248096Y-61183094D01*
X164724286Y-61897379D02*
X165295715Y-61897379D01*
X165010001Y-61897379D02*
X165010001Y-60897379D01*
X165105239Y-61040237D01*
X165200477Y-61135475D01*
X165295715Y-61183094D01*
X164390953Y-60897379D02*
X163724286Y-60897379D01*
X164152858Y-61897379D01*
X157289048Y-65907379D02*
X157622381Y-65431189D01*
X157860477Y-65907379D02*
X157860477Y-64907379D01*
X157479524Y-64907379D01*
X157384286Y-64954999D01*
X157336667Y-65002618D01*
X157289048Y-65097856D01*
X157289048Y-65240713D01*
X157336667Y-65335951D01*
X157384286Y-65383570D01*
X157479524Y-65431189D01*
X157860477Y-65431189D01*
X156336667Y-65907379D02*
X156908096Y-65907379D01*
X156622381Y-65907379D02*
X156622381Y-64907379D01*
X156717620Y-65050237D01*
X156812858Y-65145475D01*
X156908096Y-65193094D01*
X155384286Y-65907379D02*
X155955715Y-65907379D01*
X155670001Y-65907379D02*
X155670001Y-64907379D01*
X155765239Y-65050237D01*
X155860477Y-65145475D01*
X155955715Y-65193094D01*
X154812858Y-65335951D02*
X154908096Y-65288332D01*
X154955715Y-65240713D01*
X155003334Y-65145475D01*
X155003334Y-65097856D01*
X154955715Y-65002618D01*
X154908096Y-64954999D01*
X154812858Y-64907379D01*
X154622381Y-64907379D01*
X154527143Y-64954999D01*
X154479524Y-65002618D01*
X154431905Y-65097856D01*
X154431905Y-65145475D01*
X154479524Y-65240713D01*
X154527143Y-65288332D01*
X154622381Y-65335951D01*
X154812858Y-65335951D01*
X154908096Y-65383570D01*
X154955715Y-65431189D01*
X155003334Y-65526427D01*
X155003334Y-65716903D01*
X154955715Y-65812141D01*
X154908096Y-65859760D01*
X154812858Y-65907379D01*
X154622381Y-65907379D01*
X154527143Y-65859760D01*
X154479524Y-65812141D01*
X154431905Y-65716903D01*
X154431905Y-65526427D01*
X154479524Y-65431189D01*
X154527143Y-65383570D01*
X154622381Y-65335951D01*
X146672048Y-74077979D02*
X147005381Y-73601789D01*
X147243477Y-74077979D02*
X147243477Y-73077979D01*
X146862524Y-73077979D01*
X146767286Y-73125599D01*
X146719667Y-73173218D01*
X146672048Y-73268456D01*
X146672048Y-73411313D01*
X146719667Y-73506551D01*
X146767286Y-73554170D01*
X146862524Y-73601789D01*
X147243477Y-73601789D01*
X145719667Y-74077979D02*
X146291096Y-74077979D01*
X146005381Y-74077979D02*
X146005381Y-73077979D01*
X146100620Y-73220837D01*
X146195858Y-73316075D01*
X146291096Y-73363694D01*
X144767286Y-74077979D02*
X145338715Y-74077979D01*
X145053001Y-74077979D02*
X145053001Y-73077979D01*
X145148239Y-73220837D01*
X145243477Y-73316075D01*
X145338715Y-73363694D01*
X144291096Y-74077979D02*
X144100620Y-74077979D01*
X144005381Y-74030360D01*
X143957762Y-73982741D01*
X143862524Y-73839884D01*
X143814905Y-73649408D01*
X143814905Y-73268456D01*
X143862524Y-73173218D01*
X143910143Y-73125599D01*
X144005381Y-73077979D01*
X144195858Y-73077979D01*
X144291096Y-73125599D01*
X144338715Y-73173218D01*
X144386334Y-73268456D01*
X144386334Y-73506551D01*
X144338715Y-73601789D01*
X144291096Y-73649408D01*
X144195858Y-73697027D01*
X144005381Y-73697027D01*
X143910143Y-73649408D01*
X143862524Y-73601789D01*
X143814905Y-73506551D01*
X150219667Y-74077979D02*
X150553001Y-73601789D01*
X150791096Y-74077979D02*
X150791096Y-73077979D01*
X150410143Y-73077979D01*
X150314905Y-73125599D01*
X150267286Y-73173218D01*
X150219667Y-73268456D01*
X150219667Y-73411313D01*
X150267286Y-73506551D01*
X150314905Y-73554170D01*
X150410143Y-73601789D01*
X150791096Y-73601789D01*
X149124429Y-74173218D02*
X149219667Y-74125599D01*
X149314905Y-74030360D01*
X149457762Y-73887503D01*
X149553001Y-73839884D01*
X149648239Y-73839884D01*
X149600620Y-74077979D02*
X149695858Y-74030360D01*
X149791096Y-73935122D01*
X149838715Y-73744646D01*
X149838715Y-73411313D01*
X149791096Y-73220837D01*
X149695858Y-73125599D01*
X149600620Y-73077979D01*
X149410143Y-73077979D01*
X149314905Y-73125599D01*
X149219667Y-73220837D01*
X149172048Y-73411313D01*
X149172048Y-73744646D01*
X149219667Y-73935122D01*
X149314905Y-74030360D01*
X149410143Y-74077979D01*
X149600620Y-74077979D01*
X148267286Y-73077979D02*
X148743477Y-73077979D01*
X148791096Y-73554170D01*
X148743477Y-73506551D01*
X148648239Y-73458932D01*
X148410143Y-73458932D01*
X148314905Y-73506551D01*
X148267286Y-73554170D01*
X148219667Y-73649408D01*
X148219667Y-73887503D01*
X148267286Y-73982741D01*
X148314905Y-74030360D01*
X148410143Y-74077979D01*
X148648239Y-74077979D01*
X148743477Y-74030360D01*
X148791096Y-73982741D01*
X147791096Y-73554170D02*
X147457762Y-73554170D01*
X147314905Y-74077979D02*
X147791096Y-74077979D01*
X147791096Y-73077979D01*
X147314905Y-73077979D01*
X146695858Y-73077979D02*
X146600620Y-73077979D01*
X146505381Y-73125599D01*
X146457762Y-73173218D01*
X146410143Y-73268456D01*
X146362524Y-73458932D01*
X146362524Y-73697027D01*
X146410143Y-73887503D01*
X146457762Y-73982741D01*
X146505381Y-74030360D01*
X146600620Y-74077979D01*
X146695858Y-74077979D01*
X146791096Y-74030360D01*
X146838715Y-73982741D01*
X146886334Y-73887503D01*
X146933953Y-73697027D01*
X146933953Y-73458932D01*
X146886334Y-73268456D01*
X146838715Y-73173218D01*
X146791096Y-73125599D01*
X146695858Y-73077979D01*
X146029191Y-73077979D02*
X145410143Y-73077979D01*
X145743477Y-73458932D01*
X145600620Y-73458932D01*
X145505381Y-73506551D01*
X145457762Y-73554170D01*
X145410143Y-73649408D01*
X145410143Y-73887503D01*
X145457762Y-73982741D01*
X145505381Y-74030360D01*
X145600620Y-74077979D01*
X145886334Y-74077979D01*
X145981572Y-74030360D01*
X146029191Y-73982741D01*
X144505381Y-73077979D02*
X144981572Y-73077979D01*
X145029191Y-73554170D01*
X144981572Y-73506551D01*
X144886334Y-73458932D01*
X144648239Y-73458932D01*
X144553001Y-73506551D01*
X144505381Y-73554170D01*
X144457762Y-73649408D01*
X144457762Y-73887503D01*
X144505381Y-73982741D01*
X144553001Y-74030360D01*
X144648239Y-74077979D01*
X144886334Y-74077979D01*
X144981572Y-74030360D01*
X145029191Y-73982741D01*
X144076810Y-73792265D02*
X143600620Y-73792265D01*
X144172048Y-74077979D02*
X143838715Y-73077979D01*
X143505381Y-74077979D01*
X143314905Y-73077979D02*
X142743477Y-73077979D01*
X143029191Y-74077979D02*
X143029191Y-73077979D01*
X142553001Y-73077979D02*
X141981572Y-73077979D01*
X142267286Y-74077979D02*
X142267286Y-73077979D01*
X141076810Y-73982741D02*
X141124429Y-74030360D01*
X141267286Y-74077979D01*
X141362524Y-74077979D01*
X141505381Y-74030360D01*
X141600620Y-73935122D01*
X141648239Y-73839884D01*
X141695858Y-73649408D01*
X141695858Y-73506551D01*
X141648239Y-73316075D01*
X141600620Y-73220837D01*
X141505381Y-73125599D01*
X141362524Y-73077979D01*
X141267286Y-73077979D01*
X141124429Y-73125599D01*
X141076810Y-73173218D01*
X140172048Y-74077979D02*
X140648239Y-74077979D01*
X140648239Y-73077979D01*
X145553001Y-73077979D02*
X145553001Y-73316075D01*
X145791096Y-73220837D02*
X145553001Y-73316075D01*
X145314905Y-73220837D01*
X145695858Y-73506551D02*
X145553001Y-73316075D01*
X145410143Y-73506551D01*
X157289048Y-63397379D02*
X157622381Y-62921189D01*
X157860477Y-63397379D02*
X157860477Y-62397379D01*
X157479524Y-62397379D01*
X157384286Y-62444999D01*
X157336667Y-62492618D01*
X157289048Y-62587856D01*
X157289048Y-62730713D01*
X157336667Y-62825951D01*
X157384286Y-62873570D01*
X157479524Y-62921189D01*
X157860477Y-62921189D01*
X156336667Y-63397379D02*
X156908096Y-63397379D01*
X156622381Y-63397379D02*
X156622381Y-62397379D01*
X156717620Y-62540237D01*
X156812858Y-62635475D01*
X156908096Y-62683094D01*
X155955715Y-62492618D02*
X155908096Y-62444999D01*
X155812858Y-62397379D01*
X155574762Y-62397379D01*
X155479524Y-62444999D01*
X155431905Y-62492618D01*
X155384286Y-62587856D01*
X155384286Y-62683094D01*
X155431905Y-62825951D01*
X156003334Y-63397379D01*
X155384286Y-63397379D01*
X154765239Y-62397379D02*
X154670001Y-62397379D01*
X154574762Y-62444999D01*
X154527143Y-62492618D01*
X154479524Y-62587856D01*
X154431905Y-62778332D01*
X154431905Y-63016427D01*
X154479524Y-63206903D01*
X154527143Y-63302141D01*
X154574762Y-63349760D01*
X154670001Y-63397379D01*
X154765239Y-63397379D01*
X154860477Y-63349760D01*
X154908096Y-63302141D01*
X154955715Y-63206903D01*
X155003334Y-63016427D01*
X155003334Y-62778332D01*
X154955715Y-62587856D01*
X154908096Y-62492618D01*
X154860477Y-62444999D01*
X154765239Y-62397379D01*
X154599048Y-60127379D02*
X154932381Y-59651189D01*
X155170477Y-60127379D02*
X155170477Y-59127379D01*
X154789524Y-59127379D01*
X154694286Y-59174999D01*
X154646667Y-59222618D01*
X154599048Y-59317856D01*
X154599048Y-59460713D01*
X154646667Y-59555951D01*
X154694286Y-59603570D01*
X154789524Y-59651189D01*
X155170477Y-59651189D01*
X153646667Y-60127379D02*
X154218096Y-60127379D01*
X153932381Y-60127379D02*
X153932381Y-59127379D01*
X154027620Y-59270237D01*
X154122858Y-59365475D01*
X154218096Y-59413094D01*
X153265715Y-59222618D02*
X153218096Y-59174999D01*
X153122858Y-59127379D01*
X152884762Y-59127379D01*
X152789524Y-59174999D01*
X152741905Y-59222618D01*
X152694286Y-59317856D01*
X152694286Y-59413094D01*
X152741905Y-59555951D01*
X153313334Y-60127379D01*
X152694286Y-60127379D01*
X151741905Y-60127379D02*
X152313334Y-60127379D01*
X152027620Y-60127379D02*
X152027620Y-59127379D01*
X152122858Y-59270237D01*
X152218096Y-59365475D01*
X152313334Y-59413094D01*
X169309048Y-74847379D02*
X169642381Y-74371189D01*
X169880477Y-74847379D02*
X169880477Y-73847379D01*
X169499524Y-73847379D01*
X169404286Y-73894999D01*
X169356667Y-73942618D01*
X169309048Y-74037856D01*
X169309048Y-74180713D01*
X169356667Y-74275951D01*
X169404286Y-74323570D01*
X169499524Y-74371189D01*
X169880477Y-74371189D01*
X168356667Y-74847379D02*
X168928096Y-74847379D01*
X168642381Y-74847379D02*
X168642381Y-73847379D01*
X168737620Y-73990237D01*
X168832858Y-74085475D01*
X168928096Y-74133094D01*
X167975715Y-73942618D02*
X167928096Y-73894999D01*
X167832858Y-73847379D01*
X167594762Y-73847379D01*
X167499524Y-73894999D01*
X167451905Y-73942618D01*
X167404286Y-74037856D01*
X167404286Y-74133094D01*
X167451905Y-74275951D01*
X168023334Y-74847379D01*
X167404286Y-74847379D01*
X167023334Y-73942618D02*
X166975715Y-73894999D01*
X166880477Y-73847379D01*
X166642381Y-73847379D01*
X166547143Y-73894999D01*
X166499524Y-73942618D01*
X166451905Y-74037856D01*
X166451905Y-74133094D01*
X166499524Y-74275951D01*
X167070953Y-74847379D01*
X166451905Y-74847379D01*
X164869048Y-69427379D02*
X165202381Y-68951189D01*
X165440477Y-69427379D02*
X165440477Y-68427379D01*
X165059524Y-68427379D01*
X164964286Y-68474999D01*
X164916667Y-68522618D01*
X164869048Y-68617856D01*
X164869048Y-68760713D01*
X164916667Y-68855951D01*
X164964286Y-68903570D01*
X165059524Y-68951189D01*
X165440477Y-68951189D01*
X163916667Y-69427379D02*
X164488096Y-69427379D01*
X164202381Y-69427379D02*
X164202381Y-68427379D01*
X164297620Y-68570237D01*
X164392858Y-68665475D01*
X164488096Y-68713094D01*
X163535715Y-68522618D02*
X163488096Y-68474999D01*
X163392858Y-68427379D01*
X163154762Y-68427379D01*
X163059524Y-68474999D01*
X163011905Y-68522618D01*
X162964286Y-68617856D01*
X162964286Y-68713094D01*
X163011905Y-68855951D01*
X163583334Y-69427379D01*
X162964286Y-69427379D01*
X162630953Y-68427379D02*
X162011905Y-68427379D01*
X162345239Y-68808332D01*
X162202381Y-68808332D01*
X162107143Y-68855951D01*
X162059524Y-68903570D01*
X162011905Y-68998808D01*
X162011905Y-69236903D01*
X162059524Y-69332141D01*
X162107143Y-69379760D01*
X162202381Y-69427379D01*
X162488096Y-69427379D01*
X162583334Y-69379760D01*
X162630953Y-69332141D01*
X173839048Y-77357379D02*
X174172381Y-76881189D01*
X174410477Y-77357379D02*
X174410477Y-76357379D01*
X174029524Y-76357379D01*
X173934286Y-76404999D01*
X173886667Y-76452618D01*
X173839048Y-76547856D01*
X173839048Y-76690713D01*
X173886667Y-76785951D01*
X173934286Y-76833570D01*
X174029524Y-76881189D01*
X174410477Y-76881189D01*
X172886667Y-77357379D02*
X173458096Y-77357379D01*
X173172381Y-77357379D02*
X173172381Y-76357379D01*
X173267620Y-76500237D01*
X173362858Y-76595475D01*
X173458096Y-76643094D01*
X172505715Y-76452618D02*
X172458096Y-76404999D01*
X172362858Y-76357379D01*
X172124762Y-76357379D01*
X172029524Y-76404999D01*
X171981905Y-76452618D01*
X171934286Y-76547856D01*
X171934286Y-76643094D01*
X171981905Y-76785951D01*
X172553334Y-77357379D01*
X171934286Y-77357379D01*
X171077143Y-76690713D02*
X171077143Y-77357379D01*
X171315239Y-76309760D02*
X171553334Y-77024046D01*
X170934286Y-77024046D01*
X161299048Y-64407379D02*
X161632381Y-63931189D01*
X161870477Y-64407379D02*
X161870477Y-63407379D01*
X161489524Y-63407379D01*
X161394286Y-63454999D01*
X161346667Y-63502618D01*
X161299048Y-63597856D01*
X161299048Y-63740713D01*
X161346667Y-63835951D01*
X161394286Y-63883570D01*
X161489524Y-63931189D01*
X161870477Y-63931189D01*
X160346667Y-64407379D02*
X160918096Y-64407379D01*
X160632381Y-64407379D02*
X160632381Y-63407379D01*
X160727620Y-63550237D01*
X160822858Y-63645475D01*
X160918096Y-63693094D01*
X159965715Y-63502618D02*
X159918096Y-63454999D01*
X159822858Y-63407379D01*
X159584762Y-63407379D01*
X159489524Y-63454999D01*
X159441905Y-63502618D01*
X159394286Y-63597856D01*
X159394286Y-63693094D01*
X159441905Y-63835951D01*
X160013334Y-64407379D01*
X159394286Y-64407379D01*
X158489524Y-63407379D02*
X158965715Y-63407379D01*
X159013334Y-63883570D01*
X158965715Y-63835951D01*
X158870477Y-63788332D01*
X158632381Y-63788332D01*
X158537143Y-63835951D01*
X158489524Y-63883570D01*
X158441905Y-63978808D01*
X158441905Y-64216903D01*
X158489524Y-64312141D01*
X158537143Y-64359760D01*
X158632381Y-64407379D01*
X158870477Y-64407379D01*
X158965715Y-64359760D01*
X159013334Y-64312141D01*
X169069048Y-72337379D02*
X169402381Y-71861189D01*
X169640477Y-72337379D02*
X169640477Y-71337379D01*
X169259524Y-71337379D01*
X169164286Y-71384999D01*
X169116667Y-71432618D01*
X169069048Y-71527856D01*
X169069048Y-71670713D01*
X169116667Y-71765951D01*
X169164286Y-71813570D01*
X169259524Y-71861189D01*
X169640477Y-71861189D01*
X168116667Y-72337379D02*
X168688096Y-72337379D01*
X168402381Y-72337379D02*
X168402381Y-71337379D01*
X168497620Y-71480237D01*
X168592858Y-71575475D01*
X168688096Y-71623094D01*
X167735715Y-71432618D02*
X167688096Y-71384999D01*
X167592858Y-71337379D01*
X167354762Y-71337379D01*
X167259524Y-71384999D01*
X167211905Y-71432618D01*
X167164286Y-71527856D01*
X167164286Y-71623094D01*
X167211905Y-71765951D01*
X167783334Y-72337379D01*
X167164286Y-72337379D01*
X166307143Y-71337379D02*
X166497620Y-71337379D01*
X166592858Y-71384999D01*
X166640477Y-71432618D01*
X166735715Y-71575475D01*
X166783334Y-71765951D01*
X166783334Y-72146903D01*
X166735715Y-72242141D01*
X166688096Y-72289760D01*
X166592858Y-72337379D01*
X166402381Y-72337379D01*
X166307143Y-72289760D01*
X166259524Y-72242141D01*
X166211905Y-72146903D01*
X166211905Y-71908808D01*
X166259524Y-71813570D01*
X166307143Y-71765951D01*
X166402381Y-71718332D01*
X166592858Y-71718332D01*
X166688096Y-71765951D01*
X166735715Y-71813570D01*
X166783334Y-71908808D01*
X161299048Y-66917379D02*
X161632381Y-66441189D01*
X161870477Y-66917379D02*
X161870477Y-65917379D01*
X161489524Y-65917379D01*
X161394286Y-65964999D01*
X161346667Y-66012618D01*
X161299048Y-66107856D01*
X161299048Y-66250713D01*
X161346667Y-66345951D01*
X161394286Y-66393570D01*
X161489524Y-66441189D01*
X161870477Y-66441189D01*
X160346667Y-66917379D02*
X160918096Y-66917379D01*
X160632381Y-66917379D02*
X160632381Y-65917379D01*
X160727620Y-66060237D01*
X160822858Y-66155475D01*
X160918096Y-66203094D01*
X159965715Y-66012618D02*
X159918096Y-65964999D01*
X159822858Y-65917379D01*
X159584762Y-65917379D01*
X159489524Y-65964999D01*
X159441905Y-66012618D01*
X159394286Y-66107856D01*
X159394286Y-66203094D01*
X159441905Y-66345951D01*
X160013334Y-66917379D01*
X159394286Y-66917379D01*
X159060953Y-65917379D02*
X158394286Y-65917379D01*
X158822858Y-66917379D01*
X187352380Y-113663095D02*
X188161904Y-113663095D01*
X188257142Y-113710714D01*
X188304761Y-113758333D01*
X188352380Y-113853571D01*
X188352380Y-114044047D01*
X188304761Y-114139285D01*
X188257142Y-114186904D01*
X188161904Y-114234523D01*
X187352380Y-114234523D01*
X187352380Y-114615476D02*
X187352380Y-115234523D01*
X187733333Y-114901190D01*
X187733333Y-115044047D01*
X187780952Y-115139285D01*
X187828571Y-115186904D01*
X187923809Y-115234523D01*
X188161904Y-115234523D01*
X188257142Y-115186904D01*
X188304761Y-115139285D01*
X188352380Y-115044047D01*
X188352380Y-114758333D01*
X188304761Y-114663095D01*
X188257142Y-114615476D01*
X187352380Y-108710714D02*
X187352380Y-109282142D01*
X188352380Y-108996428D02*
X187352380Y-108996428D01*
X188352380Y-109615476D02*
X187352380Y-109615476D01*
X187352380Y-109996428D01*
X187400000Y-110091666D01*
X187447619Y-110139285D01*
X187542857Y-110186904D01*
X187685714Y-110186904D01*
X187780952Y-110139285D01*
X187828571Y-110091666D01*
X187876190Y-109996428D01*
X187876190Y-109615476D01*
X188352380Y-110615476D02*
X187352380Y-110615476D01*
X187352380Y-110853571D01*
X187400000Y-110996428D01*
X187495238Y-111091666D01*
X187590476Y-111139285D01*
X187780952Y-111186904D01*
X187923809Y-111186904D01*
X188114285Y-111139285D01*
X188209523Y-111091666D01*
X188304761Y-110996428D01*
X188352380Y-110853571D01*
X188352380Y-110615476D01*
X188352380Y-112139285D02*
X188352380Y-111567857D01*
X188352380Y-111853571D02*
X187352380Y-111853571D01*
X187495238Y-111758333D01*
X187590476Y-111663095D01*
X187638095Y-111567857D01*
X187447619Y-112520238D02*
X187400000Y-112567857D01*
X187352380Y-112663095D01*
X187352380Y-112901190D01*
X187400000Y-112996428D01*
X187447619Y-113044047D01*
X187542857Y-113091666D01*
X187638095Y-113091666D01*
X187780952Y-113044047D01*
X188352380Y-112472619D01*
X188352380Y-113091666D01*
X188304761Y-113472619D02*
X188352380Y-113615476D01*
X188352380Y-113853571D01*
X188304761Y-113948809D01*
X188257142Y-113996428D01*
X188161904Y-114044047D01*
X188066666Y-114044047D01*
X187971428Y-113996428D01*
X187923809Y-113948809D01*
X187876190Y-113853571D01*
X187828571Y-113663095D01*
X187780952Y-113567857D01*
X187733333Y-113520238D01*
X187638095Y-113472619D01*
X187542857Y-113472619D01*
X187447619Y-113520238D01*
X187400000Y-113567857D01*
X187352380Y-113663095D01*
X187352380Y-113901190D01*
X187400000Y-114044047D01*
X187352380Y-114663095D02*
X187352380Y-114758333D01*
X187400000Y-114853571D01*
X187447619Y-114901190D01*
X187542857Y-114948809D01*
X187733333Y-114996428D01*
X187971428Y-114996428D01*
X188161904Y-114948809D01*
X188257142Y-114901190D01*
X188304761Y-114853571D01*
X188352380Y-114758333D01*
X188352380Y-114663095D01*
X188304761Y-114567857D01*
X188257142Y-114520238D01*
X188161904Y-114472619D01*
X187971428Y-114425000D01*
X187733333Y-114425000D01*
X187542857Y-114472619D01*
X187447619Y-114520238D01*
X187400000Y-114567857D01*
X187352380Y-114663095D01*
X188352380Y-115948809D02*
X188352380Y-115377380D01*
X188352380Y-115663095D02*
X187352380Y-115663095D01*
X187495238Y-115567857D01*
X187590476Y-115472619D01*
X187638095Y-115377380D01*
X187352380Y-116805952D02*
X187352380Y-116615476D01*
X187400000Y-116520238D01*
X187447619Y-116472619D01*
X187590476Y-116377380D01*
X187780952Y-116329761D01*
X188161904Y-116329761D01*
X188257142Y-116377380D01*
X188304761Y-116425000D01*
X188352380Y-116520238D01*
X188352380Y-116710714D01*
X188304761Y-116805952D01*
X188257142Y-116853571D01*
X188161904Y-116901190D01*
X187923809Y-116901190D01*
X187828571Y-116853571D01*
X187780952Y-116805952D01*
X187733333Y-116710714D01*
X187733333Y-116520238D01*
X187780952Y-116425000D01*
X187828571Y-116377380D01*
X187923809Y-116329761D01*
X188352380Y-117329761D02*
X187352380Y-117329761D01*
X187352380Y-117710714D01*
X187400000Y-117805952D01*
X187447619Y-117853571D01*
X187542857Y-117901190D01*
X187685714Y-117901190D01*
X187780952Y-117853571D01*
X187828571Y-117805952D01*
X187876190Y-117710714D01*
X187876190Y-117329761D01*
X187352380Y-118234523D02*
X188352380Y-118472619D01*
X187638095Y-118663095D01*
X188352380Y-118853571D01*
X187352380Y-119091666D01*
X188352380Y-120044047D02*
X187876190Y-119710714D01*
X188352380Y-119472619D02*
X187352380Y-119472619D01*
X187352380Y-119853571D01*
X187400000Y-119948809D01*
X187447619Y-119996428D01*
X187542857Y-120044047D01*
X187685714Y-120044047D01*
X187780952Y-119996428D01*
X187828571Y-119948809D01*
X187876190Y-119853571D01*
X187876190Y-119472619D01*
X192425980Y-117498400D02*
X192664076Y-117498400D01*
X192568838Y-117260304D02*
X192664076Y-117498400D01*
X192568838Y-117736495D01*
X192854552Y-117355542D02*
X192664076Y-117498400D01*
X192854552Y-117641257D01*
X132338096Y-76837379D02*
X132338096Y-77646903D01*
X132290477Y-77742141D01*
X132242858Y-77789760D01*
X132147620Y-77837379D01*
X131957143Y-77837379D01*
X131861905Y-77789760D01*
X131814286Y-77742141D01*
X131766667Y-77646903D01*
X131766667Y-76837379D01*
X131338096Y-76932618D02*
X131290477Y-76884999D01*
X131195239Y-76837379D01*
X130957143Y-76837379D01*
X130861905Y-76884999D01*
X130814286Y-76932618D01*
X130766667Y-77027856D01*
X130766667Y-77123094D01*
X130814286Y-77265951D01*
X131385715Y-77837379D01*
X130766667Y-77837379D01*
X129861905Y-76837379D02*
X130338096Y-76837379D01*
X130385715Y-77313570D01*
X130338096Y-77265951D01*
X130242858Y-77218332D01*
X130004762Y-77218332D01*
X129909524Y-77265951D01*
X129861905Y-77313570D01*
X129814286Y-77408808D01*
X129814286Y-77646903D01*
X129861905Y-77742141D01*
X129909524Y-77789760D01*
X130004762Y-77837379D01*
X130242858Y-77837379D01*
X130338096Y-77789760D01*
X130385715Y-77742141D01*
X107952381Y-49505953D02*
X107476191Y-49172620D01*
X107952381Y-48934524D02*
X106952381Y-48934524D01*
X106952381Y-49315477D01*
X107000001Y-49410715D01*
X107047620Y-49458334D01*
X107142858Y-49505953D01*
X107285715Y-49505953D01*
X107380953Y-49458334D01*
X107428572Y-49410715D01*
X107476191Y-49315477D01*
X107476191Y-48934524D01*
X107952381Y-50458334D02*
X107952381Y-49886905D01*
X107952381Y-50172620D02*
X106952381Y-50172620D01*
X107095239Y-50077381D01*
X107190477Y-49982143D01*
X107238096Y-49886905D01*
X106952381Y-50791667D02*
X106952381Y-51458334D01*
X107952381Y-51029762D01*
X106952381Y-52315477D02*
X106952381Y-51839286D01*
X107428572Y-51791667D01*
X107380953Y-51839286D01*
X107333334Y-51934524D01*
X107333334Y-52172620D01*
X107380953Y-52267858D01*
X107428572Y-52315477D01*
X107523810Y-52363096D01*
X107761905Y-52363096D01*
X107857143Y-52315477D01*
X107904762Y-52267858D01*
X107952381Y-52172620D01*
X107952381Y-51934524D01*
X107904762Y-51839286D01*
X107857143Y-51791667D01*
X103902381Y-53555953D02*
X103426191Y-53222620D01*
X103902381Y-52984524D02*
X102902381Y-52984524D01*
X102902381Y-53365477D01*
X102950001Y-53460715D01*
X102997620Y-53508334D01*
X103092858Y-53555953D01*
X103235715Y-53555953D01*
X103330953Y-53508334D01*
X103378572Y-53460715D01*
X103426191Y-53365477D01*
X103426191Y-52984524D01*
X103902381Y-54508334D02*
X103902381Y-53936905D01*
X103902381Y-54222620D02*
X102902381Y-54222620D01*
X103045239Y-54127381D01*
X103140477Y-54032143D01*
X103188096Y-53936905D01*
X102902381Y-54841667D02*
X102902381Y-55508334D01*
X103902381Y-55079762D01*
X102902381Y-56317858D02*
X102902381Y-56127381D01*
X102950001Y-56032143D01*
X102997620Y-55984524D01*
X103140477Y-55889286D01*
X103330953Y-55841667D01*
X103711905Y-55841667D01*
X103807143Y-55889286D01*
X103854762Y-55936905D01*
X103902381Y-56032143D01*
X103902381Y-56222620D01*
X103854762Y-56317858D01*
X103807143Y-56365477D01*
X103711905Y-56413096D01*
X103473810Y-56413096D01*
X103378572Y-56365477D01*
X103330953Y-56317858D01*
X103283334Y-56222620D01*
X103283334Y-56032143D01*
X103330953Y-55936905D01*
X103378572Y-55889286D01*
X103473810Y-55841667D01*
X110462381Y-49505953D02*
X109986191Y-49172620D01*
X110462381Y-48934524D02*
X109462381Y-48934524D01*
X109462381Y-49315477D01*
X109510001Y-49410715D01*
X109557620Y-49458334D01*
X109652858Y-49505953D01*
X109795715Y-49505953D01*
X109890953Y-49458334D01*
X109938572Y-49410715D01*
X109986191Y-49315477D01*
X109986191Y-48934524D01*
X110462381Y-50458334D02*
X110462381Y-49886905D01*
X110462381Y-50172620D02*
X109462381Y-50172620D01*
X109605239Y-50077381D01*
X109700477Y-49982143D01*
X109748096Y-49886905D01*
X109462381Y-50791667D02*
X109462381Y-51458334D01*
X110462381Y-51029762D01*
X109462381Y-51744048D02*
X109462381Y-52410715D01*
X110462381Y-51982143D01*
X107952381Y-53515953D02*
X107476191Y-53182620D01*
X107952381Y-52944524D02*
X106952381Y-52944524D01*
X106952381Y-53325477D01*
X107000001Y-53420715D01*
X107047620Y-53468334D01*
X107142858Y-53515953D01*
X107285715Y-53515953D01*
X107380953Y-53468334D01*
X107428572Y-53420715D01*
X107476191Y-53325477D01*
X107476191Y-52944524D01*
X107952381Y-54468334D02*
X107952381Y-53896905D01*
X107952381Y-54182620D02*
X106952381Y-54182620D01*
X107095239Y-54087381D01*
X107190477Y-53992143D01*
X107238096Y-53896905D01*
X106952381Y-54801667D02*
X106952381Y-55468334D01*
X107952381Y-55039762D01*
X107380953Y-55992143D02*
X107333334Y-55896905D01*
X107285715Y-55849286D01*
X107190477Y-55801667D01*
X107142858Y-55801667D01*
X107047620Y-55849286D01*
X107000001Y-55896905D01*
X106952381Y-55992143D01*
X106952381Y-56182620D01*
X107000001Y-56277858D01*
X107047620Y-56325477D01*
X107142858Y-56373096D01*
X107190477Y-56373096D01*
X107285715Y-56325477D01*
X107333334Y-56277858D01*
X107380953Y-56182620D01*
X107380953Y-55992143D01*
X107428572Y-55896905D01*
X107476191Y-55849286D01*
X107571429Y-55801667D01*
X107761905Y-55801667D01*
X107857143Y-55849286D01*
X107904762Y-55896905D01*
X107952381Y-55992143D01*
X107952381Y-56182620D01*
X107904762Y-56277858D01*
X107857143Y-56325477D01*
X107761905Y-56373096D01*
X107571429Y-56373096D01*
X107476191Y-56325477D01*
X107428572Y-56277858D01*
X107380953Y-56182620D01*
X103902381Y-57565953D02*
X103426191Y-57232620D01*
X103902381Y-56994524D02*
X102902381Y-56994524D01*
X102902381Y-57375477D01*
X102950001Y-57470715D01*
X102997620Y-57518334D01*
X103092858Y-57565953D01*
X103235715Y-57565953D01*
X103330953Y-57518334D01*
X103378572Y-57470715D01*
X103426191Y-57375477D01*
X103426191Y-56994524D01*
X103902381Y-58518334D02*
X103902381Y-57946905D01*
X103902381Y-58232620D02*
X102902381Y-58232620D01*
X103045239Y-58137381D01*
X103140477Y-58042143D01*
X103188096Y-57946905D01*
X102902381Y-58851667D02*
X102902381Y-59518334D01*
X103902381Y-59089762D01*
X103902381Y-59946905D02*
X103902381Y-60137381D01*
X103854762Y-60232620D01*
X103807143Y-60280239D01*
X103664286Y-60375477D01*
X103473810Y-60423096D01*
X103092858Y-60423096D01*
X102997620Y-60375477D01*
X102950001Y-60327858D01*
X102902381Y-60232620D01*
X102902381Y-60042143D01*
X102950001Y-59946905D01*
X102997620Y-59899286D01*
X103092858Y-59851667D01*
X103330953Y-59851667D01*
X103426191Y-59899286D01*
X103473810Y-59946905D01*
X103521429Y-60042143D01*
X103521429Y-60232620D01*
X103473810Y-60327858D01*
X103426191Y-60375477D01*
X103330953Y-60423096D01*
X110462381Y-53515953D02*
X109986191Y-53182620D01*
X110462381Y-52944524D02*
X109462381Y-52944524D01*
X109462381Y-53325477D01*
X109510001Y-53420715D01*
X109557620Y-53468334D01*
X109652858Y-53515953D01*
X109795715Y-53515953D01*
X109890953Y-53468334D01*
X109938572Y-53420715D01*
X109986191Y-53325477D01*
X109986191Y-52944524D01*
X110462381Y-54468334D02*
X110462381Y-53896905D01*
X110462381Y-54182620D02*
X109462381Y-54182620D01*
X109605239Y-54087381D01*
X109700477Y-53992143D01*
X109748096Y-53896905D01*
X109890953Y-55039762D02*
X109843334Y-54944524D01*
X109795715Y-54896905D01*
X109700477Y-54849286D01*
X109652858Y-54849286D01*
X109557620Y-54896905D01*
X109510001Y-54944524D01*
X109462381Y-55039762D01*
X109462381Y-55230239D01*
X109510001Y-55325477D01*
X109557620Y-55373096D01*
X109652858Y-55420715D01*
X109700477Y-55420715D01*
X109795715Y-55373096D01*
X109843334Y-55325477D01*
X109890953Y-55230239D01*
X109890953Y-55039762D01*
X109938572Y-54944524D01*
X109986191Y-54896905D01*
X110081429Y-54849286D01*
X110271905Y-54849286D01*
X110367143Y-54896905D01*
X110414762Y-54944524D01*
X110462381Y-55039762D01*
X110462381Y-55230239D01*
X110414762Y-55325477D01*
X110367143Y-55373096D01*
X110271905Y-55420715D01*
X110081429Y-55420715D01*
X109986191Y-55373096D01*
X109938572Y-55325477D01*
X109890953Y-55230239D01*
X109462381Y-56039762D02*
X109462381Y-56135001D01*
X109510001Y-56230239D01*
X109557620Y-56277858D01*
X109652858Y-56325477D01*
X109843334Y-56373096D01*
X110081429Y-56373096D01*
X110271905Y-56325477D01*
X110367143Y-56277858D01*
X110414762Y-56230239D01*
X110462381Y-56135001D01*
X110462381Y-56039762D01*
X110414762Y-55944524D01*
X110367143Y-55896905D01*
X110271905Y-55849286D01*
X110081429Y-55801667D01*
X109843334Y-55801667D01*
X109652858Y-55849286D01*
X109557620Y-55896905D01*
X109510001Y-55944524D01*
X109462381Y-56039762D01*
X106412381Y-57525953D02*
X105936191Y-57192620D01*
X106412381Y-56954524D02*
X105412381Y-56954524D01*
X105412381Y-57335477D01*
X105460001Y-57430715D01*
X105507620Y-57478334D01*
X105602858Y-57525953D01*
X105745715Y-57525953D01*
X105840953Y-57478334D01*
X105888572Y-57430715D01*
X105936191Y-57335477D01*
X105936191Y-56954524D01*
X106412381Y-58478334D02*
X106412381Y-57906905D01*
X106412381Y-58192620D02*
X105412381Y-58192620D01*
X105555239Y-58097381D01*
X105650477Y-58002143D01*
X105698096Y-57906905D01*
X105840953Y-59049762D02*
X105793334Y-58954524D01*
X105745715Y-58906905D01*
X105650477Y-58859286D01*
X105602858Y-58859286D01*
X105507620Y-58906905D01*
X105460001Y-58954524D01*
X105412381Y-59049762D01*
X105412381Y-59240239D01*
X105460001Y-59335477D01*
X105507620Y-59383096D01*
X105602858Y-59430715D01*
X105650477Y-59430715D01*
X105745715Y-59383096D01*
X105793334Y-59335477D01*
X105840953Y-59240239D01*
X105840953Y-59049762D01*
X105888572Y-58954524D01*
X105936191Y-58906905D01*
X106031429Y-58859286D01*
X106221905Y-58859286D01*
X106317143Y-58906905D01*
X106364762Y-58954524D01*
X106412381Y-59049762D01*
X106412381Y-59240239D01*
X106364762Y-59335477D01*
X106317143Y-59383096D01*
X106221905Y-59430715D01*
X106031429Y-59430715D01*
X105936191Y-59383096D01*
X105888572Y-59335477D01*
X105840953Y-59240239D01*
X106412381Y-60383096D02*
X106412381Y-59811667D01*
X106412381Y-60097381D02*
X105412381Y-60097381D01*
X105555239Y-60002143D01*
X105650477Y-59906905D01*
X105698096Y-59811667D01*
X116202381Y-49505953D02*
X115726191Y-49172620D01*
X116202381Y-48934524D02*
X115202381Y-48934524D01*
X115202381Y-49315477D01*
X115250001Y-49410715D01*
X115297620Y-49458334D01*
X115392858Y-49505953D01*
X115535715Y-49505953D01*
X115630953Y-49458334D01*
X115678572Y-49410715D01*
X115726191Y-49315477D01*
X115726191Y-48934524D01*
X116202381Y-50458334D02*
X116202381Y-49886905D01*
X116202381Y-50172620D02*
X115202381Y-50172620D01*
X115345239Y-50077381D01*
X115440477Y-49982143D01*
X115488096Y-49886905D01*
X115630953Y-51029762D02*
X115583334Y-50934524D01*
X115535715Y-50886905D01*
X115440477Y-50839286D01*
X115392858Y-50839286D01*
X115297620Y-50886905D01*
X115250001Y-50934524D01*
X115202381Y-51029762D01*
X115202381Y-51220239D01*
X115250001Y-51315477D01*
X115297620Y-51363096D01*
X115392858Y-51410715D01*
X115440477Y-51410715D01*
X115535715Y-51363096D01*
X115583334Y-51315477D01*
X115630953Y-51220239D01*
X115630953Y-51029762D01*
X115678572Y-50934524D01*
X115726191Y-50886905D01*
X115821429Y-50839286D01*
X116011905Y-50839286D01*
X116107143Y-50886905D01*
X116154762Y-50934524D01*
X116202381Y-51029762D01*
X116202381Y-51220239D01*
X116154762Y-51315477D01*
X116107143Y-51363096D01*
X116011905Y-51410715D01*
X115821429Y-51410715D01*
X115726191Y-51363096D01*
X115678572Y-51315477D01*
X115630953Y-51220239D01*
X115535715Y-52267858D02*
X116202381Y-52267858D01*
X115154762Y-52029762D02*
X115869048Y-51791667D01*
X115869048Y-52410715D01*
M02*
